<?xml version="1.0" encoding="UTF-8"?>
<svg id="_레이어_1" data-name="레이어_1" xmlns="http://www.w3.org/2000/svg" version="1.1" viewBox="0 0 2114 1309.07">
  <!-- Generator: Adobe Illustrator 30.4.0, SVG Export Plug-In . SVG Version: 2.1.4 Build 226)  -->
  <defs>
    <style>
      .st0 {
        fill: #e8a36a;
      }

      .st1 {
        fill: #f0b888;
      }

      .st2 {
        fill: #f9ceae;
      }

      .st3 {
        fill: #f1e4db;
      }

      .st4 {
        fill: #e7d1c5;
      }
    </style>
  </defs>
  <path class="st3" d="M57,116.72c0-32.98,26.74-59.72,59.72-59.72h1880.55c32.98,0,59.72,26.74,59.72,59.72v498.62h57V116.72c0-31.18-12.14-60.49-34.19-82.54-22.05-22.05-51.36-34.19-82.54-34.19H116.72c-31.18,0-60.49,12.14-82.54,34.19C12.14,56.23,0,85.55,0,116.72v498.62h57V116.72Z"/>
  <path class="st4" d="M105.59,57h1902.82c26.82,0,48.59,21.77,48.59,48.59v1068.09H57V105.59c0-26.82,21.77-48.59,48.59-48.59Z"/>
  <g>
    <g>
      <path class="st3" d="M289.1,102.52c-1.34-12.21-2.58-26.39-11.03-36.11-8.42-9.67-23.66-10.68-35.04-6.47-14.89,5.51-18.8,19.77-19.81,34.27-1.26,18.26-.64,37.27-9.82,53.83-1.03,1.87-1.28,3.71-.98,5.4-.17,4.09,2.3,8.16,7.6,8.16,23.54,0,47.08.28,70.62.88,5.49.14,9.47-4.74,8.43-10.02-3.27-16.7-8.11-32.99-9.97-49.94Z"/>
      <path class="st3" d="M488.7,102.52c-1.34-12.21-2.58-26.39-11.03-36.11-8.42-9.67-23.66-10.68-35.04-6.47-14.89,5.51-18.8,19.77-19.81,34.27-1.26,18.26-.64,37.27-9.82,53.83-1.03,1.87-1.28,3.71-.98,5.4-.17,4.09,2.3,8.16,7.6,8.16,23.54,0,47.08.28,70.62.88,5.49.14,9.47-4.74,8.43-10.02-3.27-16.7-8.11-32.99-9.97-49.94Z"/>
      <path class="st3" d="M688.3,102.52c-1.34-12.21-2.58-26.39-11.03-36.11-8.42-9.67-23.66-10.68-35.04-6.47-14.89,5.51-18.8,19.77-19.81,34.27-1.26,18.26-.64,37.27-9.82,53.83-1.03,1.87-1.28,3.71-.98,5.4-.17,4.09,2.3,8.16,7.6,8.16,23.54,0,47.08.28,70.62.88,5.49.14,9.47-4.74,8.43-10.02-3.27-16.7-8.11-32.99-9.97-49.94Z"/>
      <path class="st3" d="M887.91,102.52c-1.34-12.21-2.58-26.39-11.03-36.11-8.42-9.67-23.66-10.68-35.04-6.47-14.89,5.51-18.8,19.77-19.81,34.27-1.26,18.26-.64,37.27-9.82,53.83-1.03,1.87-1.28,3.71-.98,5.4-.17,4.09,2.3,8.16,7.6,8.16,23.54,0,47.08.28,70.62.88,5.49.14,9.47-4.74,8.43-10.02-3.27-16.7-8.11-32.99-9.97-49.94Z"/>
      <path class="st3" d="M1087.51,102.52c-1.34-12.21-2.58-26.39-11.03-36.11-8.42-9.67-23.66-10.68-35.04-6.47-14.89,5.51-18.8,19.77-19.81,34.27-1.26,18.26-.64,37.27-9.82,53.83-1.03,1.87-1.28,3.71-.98,5.4-.17,4.09,2.3,8.16,7.6,8.16,23.54,0,47.08.28,70.62.88,5.49.14,9.47-4.74,8.43-10.02-3.27-16.7-8.11-32.99-9.97-49.94Z"/>
      <path class="st3" d="M1287.11,102.52c-1.34-12.21-2.58-26.39-11.03-36.11-8.42-9.67-23.66-10.68-35.04-6.47-14.89,5.51-18.8,19.77-19.81,34.27-1.26,18.26-.64,37.27-9.82,53.83-1.03,1.87-1.28,3.71-.98,5.4-.17,4.09,2.3,8.16,7.6,8.16,23.54,0,47.08.28,70.62.88,5.49.14,9.47-4.74,8.43-10.02-3.27-16.7-8.11-32.99-9.97-49.94Z"/>
      <path class="st3" d="M1486.71,102.52c-1.34-12.21-2.58-26.39-11.03-36.11-8.42-9.67-23.66-10.68-35.04-6.47-14.89,5.51-18.8,19.77-19.81,34.27-1.26,18.26-.64,37.27-9.82,53.83-1.03,1.87-1.28,3.71-.98,5.4-.17,4.09,2.3,8.16,7.6,8.16,23.54,0,47.08.28,70.62.88,5.49.14,9.47-4.74,8.43-10.02-3.27-16.7-8.11-32.99-9.97-49.94Z"/>
      <path class="st3" d="M1686.31,102.52c-1.34-12.21-2.58-26.39-11.03-36.11-8.42-9.67-23.66-10.68-35.04-6.47-14.89,5.51-18.8,19.77-19.81,34.27-1.26,18.26-.64,37.27-9.82,53.83-1.03,1.87-1.28,3.71-.98,5.4-.17,4.09,2.3,8.16,7.6,8.16,23.54,0,47.08.28,70.62.88,5.49.14,9.47-4.74,8.43-10.02-3.27-16.7-8.11-32.99-9.97-49.94Z"/>
      <path class="st3" d="M1885.91,102.52c-1.34-12.21-2.58-26.39-11.03-36.11-8.42-9.67-23.66-10.68-35.04-6.47-14.89,5.51-18.8,19.77-19.81,34.27-1.26,18.26-.64,37.27-9.82,53.83-1.03,1.87-1.28,3.71-.98,5.4-.17,4.09,2.3,8.16,7.6,8.16,23.54,0,47.08.28,70.62.88,5.49.14,9.47-4.74,8.43-10.02-3.27-16.7-8.11-32.99-9.97-49.94Z"/>
    </g>
    <g>
      <path class="st0" d="M255.77,175.59c0,68.57-41.13,110.32-91.86,110.32s-91.86-41.75-91.86-110.32S113.78,37.59,163.91,37.59s91.86,69.43,91.86,138.01Z"/>
      <ellipse class="st1" cx="128.34" cy="76.22" rx="15.91" ry="10.41" transform="translate(-10.48 131.07) rotate(-52.27)"/>
      <path class="st0" d="M453.57,175.59c0,68.57-41.13,110.32-91.86,110.32s-91.86-41.75-91.86-110.32,41.74-138.01,91.86-138.01,91.86,69.43,91.86,138.01Z"/>
      <ellipse class="st1" cx="326.14" cy="76.22" rx="15.91" ry="10.41" transform="translate(66.27 287.51) rotate(-52.27)"/>
      <path class="st0" d="M651.36,175.59c0,68.57-41.13,110.32-91.86,110.32s-91.86-41.75-91.86-110.32,41.74-138.01,91.86-138.01,91.86,69.43,91.86,138.01Z"/>
      <ellipse class="st1" cx="523.94" cy="76.22" rx="15.91" ry="10.41" transform="translate(143.02 443.94) rotate(-52.27)"/>
      <path class="st0" d="M849.16,175.59c0,68.57-41.13,110.32-91.86,110.32s-91.86-41.75-91.86-110.32,41.74-138.01,91.86-138.01,91.86,69.43,91.86,138.01Z"/>
      <ellipse class="st1" cx="721.73" cy="76.22" rx="15.91" ry="10.41" transform="translate(219.77 600.37) rotate(-52.27)"/>
      <path class="st0" d="M1046.96,175.59c0,68.57-41.13,110.32-91.86,110.32s-91.86-41.75-91.86-110.32,41.74-138.01,91.86-138.01,91.86,69.43,91.86,138.01Z"/>
      <ellipse class="st1" cx="919.53" cy="76.22" rx="15.91" ry="10.41" transform="translate(296.52 756.8) rotate(-52.27)"/>
      <path class="st0" d="M1244.76,175.59c0,68.57-41.13,110.32-91.86,110.32s-91.86-41.75-91.86-110.32,41.74-138.01,91.86-138.01,91.86,69.43,91.86,138.01Z"/>
      <ellipse class="st1" cx="1117.33" cy="76.22" rx="15.91" ry="10.41" transform="translate(373.26 913.24) rotate(-52.27)"/>
      <path class="st0" d="M1442.56,175.59c0,68.57-41.13,110.32-91.86,110.32s-91.86-41.75-91.86-110.32,41.74-138.01,91.86-138.01,91.86,69.43,91.86,138.01Z"/>
      <ellipse class="st1" cx="1315.13" cy="76.22" rx="15.91" ry="10.41" transform="translate(450.0132 1069.6695) rotate(-52.267)"/>
      <path class="st0" d="M1640.35,175.59c0,68.57-41.13,110.32-91.86,110.32s-91.86-41.75-91.86-110.32,41.74-138.01,91.86-138.01,91.86,69.43,91.86,138.01Z"/>
      <ellipse class="st1" cx="1512.92" cy="76.22" rx="15.91" ry="10.41" transform="translate(526.7622 1226.102) rotate(-52.267)"/>
      <path class="st0" d="M1838.15,175.59c0,68.57-41.13,110.32-91.86,110.32s-91.86-41.75-91.86-110.32,41.74-138.01,91.86-138.01,91.86,69.43,91.86,138.01Z"/>
      <ellipse class="st1" cx="1710.72" cy="76.22" rx="15.91" ry="10.41" transform="translate(603.5111 1382.5346) rotate(-52.267)"/>
      <path class="st0" d="M2035.95,175.59c0,68.57-41.13,110.32-91.86,110.32s-91.86-41.75-91.86-110.32,41.74-138.01,91.86-138.01,91.86,69.43,91.86,138.01Z"/>
      <ellipse class="st1" cx="1908.52" cy="76.22" rx="15.91" ry="10.41" transform="translate(680.26 1538.9671) rotate(-52.267)"/>
    </g>
  </g>
  <g>
    <g>
      <path class="st3" d="M289.1,216.02c-1.34-12.21-2.58-26.39-11.03-36.11-8.42-9.67-23.66-10.68-35.04-6.47-14.89,5.51-18.8,19.77-19.81,34.27-1.26,18.26-.64,37.27-9.82,53.83-1.03,1.87-1.28,3.71-.98,5.4-.17,4.09,2.3,8.16,7.6,8.16,23.54,0,47.08.28,70.62.88,5.49.14,9.47-4.74,8.43-10.02-3.27-16.7-8.11-32.99-9.97-49.94Z"/>
      <path class="st3" d="M488.7,216.02c-1.34-12.21-2.58-26.39-11.03-36.11-8.42-9.67-23.66-10.68-35.04-6.47-14.89,5.51-18.8,19.77-19.81,34.27-1.26,18.26-.64,37.27-9.82,53.83-1.03,1.87-1.28,3.71-.98,5.4-.17,4.09,2.3,8.16,7.6,8.16,23.54,0,47.08.28,70.62.88,5.49.14,9.47-4.74,8.43-10.02-3.27-16.7-8.11-32.99-9.97-49.94Z"/>
      <path class="st3" d="M688.3,216.02c-1.34-12.21-2.58-26.39-11.03-36.11-8.42-9.67-23.66-10.68-35.04-6.47-14.89,5.51-18.8,19.77-19.81,34.27-1.26,18.26-.64,37.27-9.82,53.83-1.03,1.87-1.28,3.71-.98,5.4-.17,4.09,2.3,8.16,7.6,8.16,23.54,0,47.08.28,70.62.88,5.49.14,9.47-4.74,8.43-10.02-3.27-16.7-8.11-32.99-9.97-49.94Z"/>
      <path class="st3" d="M887.91,216.02c-1.34-12.21-2.58-26.39-11.03-36.11-8.42-9.67-23.66-10.68-35.04-6.47-14.89,5.51-18.8,19.77-19.81,34.27-1.26,18.26-.64,37.27-9.82,53.83-1.03,1.87-1.28,3.71-.98,5.4-.17,4.09,2.3,8.16,7.6,8.16,23.54,0,47.08.28,70.62.88,5.49.14,9.47-4.74,8.43-10.02-3.27-16.7-8.11-32.99-9.97-49.94Z"/>
      <path class="st3" d="M1087.51,216.02c-1.34-12.21-2.58-26.39-11.03-36.11-8.42-9.67-23.66-10.68-35.04-6.47-14.89,5.51-18.8,19.77-19.81,34.27-1.26,18.26-.64,37.27-9.82,53.83-1.03,1.87-1.28,3.71-.98,5.4-.17,4.09,2.3,8.16,7.6,8.16,23.54,0,47.08.28,70.62.88,5.49.14,9.47-4.74,8.43-10.02-3.27-16.7-8.11-32.99-9.97-49.94Z"/>
      <path class="st3" d="M1287.11,216.02c-1.34-12.21-2.58-26.39-11.03-36.11-8.42-9.67-23.66-10.68-35.04-6.47-14.89,5.51-18.8,19.77-19.81,34.27-1.26,18.26-.64,37.27-9.82,53.83-1.03,1.87-1.28,3.71-.98,5.4-.17,4.09,2.3,8.16,7.6,8.16,23.54,0,47.08.28,70.62.88,5.49.14,9.47-4.74,8.43-10.02-3.27-16.7-8.11-32.99-9.97-49.94Z"/>
      <path class="st3" d="M1486.71,216.02c-1.34-12.21-2.58-26.39-11.03-36.11-8.42-9.67-23.66-10.68-35.04-6.47-14.89,5.51-18.8,19.77-19.81,34.27-1.26,18.26-.64,37.27-9.82,53.83-1.03,1.87-1.28,3.71-.98,5.4-.17,4.09,2.3,8.16,7.6,8.16,23.54,0,47.08.28,70.62.88,5.49.14,9.47-4.74,8.43-10.02-3.27-16.7-8.11-32.99-9.97-49.94Z"/>
      <path class="st3" d="M1686.31,216.02c-1.34-12.21-2.58-26.39-11.03-36.11-8.42-9.67-23.66-10.68-35.04-6.47-14.89,5.51-18.8,19.77-19.81,34.27-1.26,18.26-.64,37.27-9.82,53.83-1.03,1.87-1.28,3.71-.98,5.4-.17,4.09,2.3,8.16,7.6,8.16,23.54,0,47.08.28,70.62.88,5.49.14,9.47-4.74,8.43-10.02-3.27-16.7-8.11-32.99-9.97-49.94Z"/>
      <path class="st3" d="M1885.91,216.02c-1.34-12.21-2.58-26.39-11.03-36.11-8.42-9.67-23.66-10.68-35.04-6.47-14.89,5.51-18.8,19.77-19.81,34.27-1.26,18.26-.64,37.27-9.82,53.83-1.03,1.87-1.28,3.71-.98,5.4-.17,4.09,2.3,8.16,7.6,8.16,23.54,0,47.08.28,70.62.88,5.49.14,9.47-4.74,8.43-10.02-3.27-16.7-8.11-32.99-9.97-49.94Z"/>
    </g>
    <g>
      <g>
        <path class="st1" d="M255.77,289.09c0,68.57-41.13,110.32-91.86,110.32s-91.86-41.75-91.86-110.32,41.74-138.01,91.86-138.01,91.86,69.43,91.86,138.01Z"/>
        <ellipse class="st2" cx="128.34" cy="189.72" rx="15.91" ry="10.41" transform="translate(-100.24 175.11) rotate(-52.27)"/>
      </g>
      <g>
        <path class="st1" d="M453.57,289.09c0,68.57-41.13,110.32-91.86,110.32s-91.86-41.75-91.86-110.32,41.74-138.01,91.86-138.01,91.86,69.43,91.86,138.01Z"/>
        <ellipse class="st2" cx="326.14" cy="189.72" rx="15.91" ry="10.41" transform="translate(-23.49 331.55) rotate(-52.27)"/>
      </g>
      <g>
        <path class="st1" d="M651.36,289.09c0,68.57-41.13,110.32-91.86,110.32s-91.86-41.75-91.86-110.32,41.74-138.01,91.86-138.01,91.86,69.43,91.86,138.01Z"/>
        <ellipse class="st2" cx="523.94" cy="189.72" rx="15.91" ry="10.41" transform="translate(53.26 487.98) rotate(-52.27)"/>
      </g>
      <g>
        <path class="st1" d="M849.16,289.09c0,68.57-41.13,110.32-91.86,110.32s-91.86-41.75-91.86-110.32,41.74-138.01,91.86-138.01,91.86,69.43,91.86,138.01Z"/>
        <ellipse class="st2" cx="721.73" cy="189.72" rx="15.91" ry="10.41" transform="translate(130 644.41) rotate(-52.27)"/>
      </g>
      <g>
        <path class="st1" d="M1046.96,289.09c0,68.57-41.13,110.32-91.86,110.32s-91.86-41.75-91.86-110.32,41.74-138.01,91.86-138.01,91.86,69.43,91.86,138.01Z"/>
        <ellipse class="st2" cx="919.53" cy="189.72" rx="15.91" ry="10.41" transform="translate(206.75 800.84) rotate(-52.27)"/>
      </g>
      <g>
        <path class="st1" d="M1244.76,289.09c0,68.57-41.13,110.32-91.86,110.32s-91.86-41.75-91.86-110.32,41.74-138.01,91.86-138.01,91.86,69.43,91.86,138.01Z"/>
        <ellipse class="st2" cx="1117.33" cy="189.72" rx="15.91" ry="10.41" transform="translate(283.5 957.28) rotate(-52.27)"/>
      </g>
      <g>
        <path class="st1" d="M1442.56,289.09c0,68.57-41.13,110.32-91.86,110.32s-91.86-41.75-91.86-110.32,41.74-138.01,91.86-138.01,91.86,69.43,91.86,138.01Z"/>
        <ellipse class="st2" cx="1315.13" cy="189.72" rx="15.91" ry="10.41" transform="translate(360.2511 1113.7086) rotate(-52.267)"/>
      </g>
      <g>
        <path class="st1" d="M1640.35,289.09c0,68.57-41.13,110.32-91.86,110.32s-91.86-41.75-91.86-110.32,41.74-138.01,91.86-138.01,91.86,69.43,91.86,138.01Z"/>
        <ellipse class="st2" cx="1512.92" cy="189.72" rx="15.91" ry="10.41" transform="translate(437 1270.1411) rotate(-52.267)"/>
      </g>
      <g>
        <path class="st1" d="M1838.15,289.09c0,68.57-41.13,110.32-91.86,110.32s-91.86-41.75-91.86-110.32,41.74-138.01,91.86-138.01,91.86,69.43,91.86,138.01Z"/>
        <ellipse class="st2" cx="1710.72" cy="189.72" rx="15.91" ry="10.41" transform="translate(513.7489 1426.5737) rotate(-52.267)"/>
      </g>
      <g>
        <path class="st1" d="M2035.95,289.09c0,68.57-41.13,110.32-91.86,110.32s-91.86-41.75-91.86-110.32,41.74-138.01,91.86-138.01,91.86,69.43,91.86,138.01Z"/>
        <ellipse class="st2" cx="1908.52" cy="189.72" rx="15.91" ry="10.41" transform="translate(590.4978 1583.0062) rotate(-52.267)"/>
      </g>
    </g>
  </g>
  <g>
    <g>
      <path class="st3" d="M289.1,329.52c-1.34-12.21-2.58-26.39-11.03-36.11-8.42-9.67-23.66-10.68-35.04-6.47-14.89,5.51-18.8,19.77-19.81,34.27-1.26,18.26-.64,37.27-9.82,53.83-1.03,1.87-1.28,3.71-.98,5.4-.17,4.09,2.3,8.16,7.6,8.16,23.54,0,47.08.28,70.62.88,5.49.14,9.47-4.74,8.43-10.02-3.27-16.7-8.11-32.99-9.97-49.94Z"/>
      <path class="st3" d="M488.7,329.52c-1.34-12.21-2.58-26.39-11.03-36.11-8.42-9.67-23.66-10.68-35.04-6.47-14.89,5.51-18.8,19.77-19.81,34.27-1.26,18.26-.64,37.27-9.82,53.83-1.03,1.87-1.28,3.71-.98,5.4-.17,4.09,2.3,8.16,7.6,8.16,23.54,0,47.08.28,70.62.88,5.49.14,9.47-4.74,8.43-10.02-3.27-16.7-8.11-32.99-9.97-49.94Z"/>
      <path class="st3" d="M688.3,329.52c-1.34-12.21-2.58-26.39-11.03-36.11-8.42-9.67-23.66-10.68-35.04-6.47-14.89,5.51-18.8,19.77-19.81,34.27-1.26,18.26-.64,37.27-9.82,53.83-1.03,1.87-1.28,3.71-.98,5.4-.17,4.09,2.3,8.16,7.6,8.16,23.54,0,47.08.28,70.62.88,5.49.14,9.47-4.74,8.43-10.02-3.27-16.7-8.11-32.99-9.97-49.94Z"/>
      <path class="st3" d="M887.91,329.52c-1.34-12.21-2.58-26.39-11.03-36.11-8.42-9.67-23.66-10.68-35.04-6.47-14.89,5.51-18.8,19.77-19.81,34.27-1.26,18.26-.64,37.27-9.82,53.83-1.03,1.87-1.28,3.71-.98,5.4-.17,4.09,2.3,8.16,7.6,8.16,23.54,0,47.08.28,70.62.88,5.49.14,9.47-4.74,8.43-10.02-3.27-16.7-8.11-32.99-9.97-49.94Z"/>
      <path class="st3" d="M1087.51,329.52c-1.34-12.21-2.58-26.39-11.03-36.11-8.42-9.67-23.66-10.68-35.04-6.47-14.89,5.51-18.8,19.77-19.81,34.27-1.26,18.26-.64,37.27-9.82,53.83-1.03,1.87-1.28,3.71-.98,5.4-.17,4.09,2.3,8.16,7.6,8.16,23.54,0,47.08.28,70.62.88,5.49.14,9.47-4.74,8.43-10.02-3.27-16.7-8.11-32.99-9.97-49.94Z"/>
      <path class="st3" d="M1287.11,329.52c-1.34-12.21-2.58-26.39-11.03-36.11-8.42-9.67-23.66-10.68-35.04-6.47-14.89,5.51-18.8,19.77-19.81,34.27-1.26,18.26-.64,37.27-9.82,53.83-1.03,1.87-1.28,3.71-.98,5.4-.17,4.09,2.3,8.16,7.6,8.16,23.54,0,47.08.28,70.62.88,5.49.14,9.47-4.74,8.43-10.02-3.27-16.7-8.11-32.99-9.97-49.94Z"/>
      <path class="st3" d="M1486.71,329.52c-1.34-12.21-2.58-26.39-11.03-36.11-8.42-9.67-23.66-10.68-35.04-6.47-14.89,5.51-18.8,19.77-19.81,34.27-1.26,18.26-.64,37.27-9.82,53.83-1.03,1.87-1.28,3.71-.98,5.4-.17,4.09,2.3,8.16,7.6,8.16,23.54,0,47.08.28,70.62.88,5.49.14,9.47-4.74,8.43-10.02-3.27-16.7-8.11-32.99-9.97-49.94Z"/>
      <path class="st3" d="M1686.31,329.52c-1.34-12.21-2.58-26.39-11.03-36.11-8.42-9.67-23.66-10.68-35.04-6.47-14.89,5.51-18.8,19.77-19.81,34.27-1.26,18.26-.64,37.27-9.82,53.83-1.03,1.87-1.28,3.71-.98,5.4-.17,4.09,2.3,8.16,7.6,8.16,23.54,0,47.08.28,70.62.88,5.49.14,9.47-4.74,8.43-10.02-3.27-16.7-8.11-32.99-9.97-49.94Z"/>
      <path class="st3" d="M1885.91,329.52c-1.34-12.21-2.58-26.39-11.03-36.11-8.42-9.67-23.66-10.68-35.04-6.47-14.89,5.51-18.8,19.77-19.81,34.27-1.26,18.26-.64,37.27-9.82,53.83-1.03,1.87-1.28,3.71-.98,5.4-.17,4.09,2.3,8.16,7.6,8.16,23.54,0,47.08.28,70.62.88,5.49.14,9.47-4.74,8.43-10.02-3.27-16.7-8.11-32.99-9.97-49.94Z"/>
    </g>
    <g>
      <path class="st0" d="M255.77,402.59c0,68.57-41.13,110.32-91.86,110.32s-91.86-41.75-91.86-110.32,41.74-138.01,91.86-138.01,91.86,69.43,91.86,138.01Z"/>
      <ellipse class="st1" cx="128.34" cy="303.21" rx="15.91" ry="10.41" transform="translate(-190 219.15) rotate(-52.27)"/>
      <path class="st0" d="M453.57,402.59c0,68.57-41.13,110.32-91.86,110.32s-91.86-41.75-91.86-110.32,41.74-138.01,91.86-138.01,91.86,69.43,91.86,138.01Z"/>
      <ellipse class="st1" cx="326.14" cy="303.21" rx="15.91" ry="10.41" transform="translate(-113.26 375.58) rotate(-52.27)"/>
      <path class="st0" d="M651.36,402.59c0,68.57-41.13,110.32-91.86,110.32s-91.86-41.75-91.86-110.32,41.74-138.01,91.86-138.01,91.86,69.43,91.86,138.01Z"/>
      <ellipse class="st1" cx="523.94" cy="303.21" rx="15.91" ry="10.41" transform="translate(-36.51 532.02) rotate(-52.27)"/>
      <path class="st0" d="M849.16,402.59c0,68.57-41.13,110.32-91.86,110.32s-91.86-41.75-91.86-110.32,41.74-138.01,91.86-138.01,91.86,69.43,91.86,138.01Z"/>
      <ellipse class="st1" cx="721.73" cy="303.21" rx="15.91" ry="10.41" transform="translate(40.24 688.45) rotate(-52.27)"/>
      <path class="st0" d="M1046.96,402.59c0,68.57-41.13,110.32-91.86,110.32s-91.86-41.75-91.86-110.32,41.74-138.01,91.86-138.01,91.86,69.43,91.86,138.01Z"/>
      <ellipse class="st1" cx="919.53" cy="303.21" rx="15.91" ry="10.41" transform="translate(116.99 844.88) rotate(-52.27)"/>
      <path class="st0" d="M1244.76,402.59c0,68.57-41.13,110.32-91.86,110.32s-91.86-41.75-91.86-110.32,41.74-138.01,91.86-138.01,91.86,69.43,91.86,138.01Z"/>
      <ellipse class="st1" cx="1117.33" cy="303.21" rx="15.91" ry="10.41" transform="translate(193.74 1001.3151) rotate(-52.267)"/>
      <path class="st0" d="M1442.56,402.59c0,68.57-41.13,110.32-91.86,110.32s-91.86-41.75-91.86-110.32,41.74-138.01,91.86-138.01,91.86,69.43,91.86,138.01Z"/>
      <ellipse class="st1" cx="1315.13" cy="303.21" rx="15.91" ry="10.41" transform="translate(270.4889 1157.7477) rotate(-52.267)"/>
      <path class="st0" d="M1640.35,402.59c0,68.57-41.13,110.32-91.86,110.32s-91.86-41.75-91.86-110.32,41.74-138.01,91.86-138.01,91.86,69.43,91.86,138.01Z"/>
      <ellipse class="st1" cx="1512.92" cy="303.21" rx="15.91" ry="10.41" transform="translate(347.2379 1314.1802) rotate(-52.267)"/>
      <path class="st0" d="M1838.15,402.59c0,68.57-41.13,110.32-91.86,110.32s-91.86-41.75-91.86-110.32,41.74-138.01,91.86-138.01,91.86,69.43,91.86,138.01Z"/>
      <ellipse class="st1" cx="1710.72" cy="303.21" rx="15.91" ry="10.41" transform="translate(423.9868 1470.6128) rotate(-52.267)"/>
      <path class="st0" d="M2035.95,402.59c0,68.57-41.13,110.32-91.86,110.32s-91.86-41.75-91.86-110.32,41.74-138.01,91.86-138.01,91.86,69.43,91.86,138.01Z"/>
      <ellipse class="st1" cx="1908.52" cy="303.21" rx="15.91" ry="10.41" transform="translate(500.7357 1627.0453) rotate(-52.267)"/>
    </g>
  </g>
  <g>
    <g>
      <path class="st3" d="M289.1,443.01c-1.34-12.21-2.58-26.39-11.03-36.11-8.42-9.67-23.66-10.68-35.04-6.47-14.89,5.51-18.8,19.77-19.81,34.27-1.26,18.26-.64,37.27-9.82,53.83-1.03,1.87-1.28,3.71-.98,5.4-.17,4.09,2.3,8.16,7.6,8.16,23.54,0,47.08.28,70.62.88,5.49.14,9.47-4.74,8.43-10.02-3.27-16.7-8.11-32.99-9.97-49.94Z"/>
      <path class="st3" d="M488.7,443.01c-1.34-12.21-2.58-26.39-11.03-36.11-8.42-9.67-23.66-10.68-35.04-6.47-14.89,5.51-18.8,19.77-19.81,34.27-1.26,18.26-.64,37.27-9.82,53.83-1.03,1.87-1.28,3.71-.98,5.4-.17,4.09,2.3,8.16,7.6,8.16,23.54,0,47.08.28,70.62.88,5.49.14,9.47-4.74,8.43-10.02-3.27-16.7-8.11-32.99-9.97-49.94Z"/>
      <path class="st3" d="M688.3,443.01c-1.34-12.21-2.58-26.39-11.03-36.11-8.42-9.67-23.66-10.68-35.04-6.47-14.89,5.51-18.8,19.77-19.81,34.27-1.26,18.26-.64,37.27-9.82,53.83-1.03,1.87-1.28,3.71-.98,5.4-.17,4.09,2.3,8.16,7.6,8.16,23.54,0,47.08.28,70.62.88,5.49.14,9.47-4.74,8.43-10.02-3.27-16.7-8.11-32.99-9.97-49.94Z"/>
      <path class="st3" d="M887.91,443.01c-1.34-12.21-2.58-26.39-11.03-36.11-8.42-9.67-23.66-10.68-35.04-6.47-14.89,5.51-18.8,19.77-19.81,34.27-1.26,18.26-.64,37.27-9.82,53.83-1.03,1.87-1.28,3.71-.98,5.4-.17,4.09,2.3,8.16,7.6,8.16,23.54,0,47.08.28,70.62.88,5.49.14,9.47-4.74,8.43-10.02-3.27-16.7-8.11-32.99-9.97-49.94Z"/>
      <path class="st3" d="M1087.51,443.01c-1.34-12.21-2.58-26.39-11.03-36.11-8.42-9.67-23.66-10.68-35.04-6.47-14.89,5.51-18.8,19.77-19.81,34.27-1.26,18.26-.64,37.27-9.82,53.83-1.03,1.87-1.28,3.71-.98,5.4-.17,4.09,2.3,8.16,7.6,8.16,23.54,0,47.08.28,70.62.88,5.49.14,9.47-4.74,8.43-10.02-3.27-16.7-8.11-32.99-9.97-49.94Z"/>
      <path class="st3" d="M1287.11,443.01c-1.34-12.21-2.58-26.39-11.03-36.11-8.42-9.67-23.66-10.68-35.04-6.47-14.89,5.51-18.8,19.77-19.81,34.27-1.26,18.26-.64,37.27-9.82,53.83-1.03,1.87-1.28,3.71-.98,5.4-.17,4.09,2.3,8.16,7.6,8.16,23.54,0,47.08.28,70.62.88,5.49.14,9.47-4.74,8.43-10.02-3.27-16.7-8.11-32.99-9.97-49.94Z"/>
      <path class="st3" d="M1486.71,443.01c-1.34-12.21-2.58-26.39-11.03-36.11-8.42-9.67-23.66-10.68-35.04-6.47-14.89,5.51-18.8,19.77-19.81,34.27-1.26,18.26-.64,37.27-9.82,53.83-1.03,1.87-1.28,3.71-.98,5.4-.17,4.09,2.3,8.16,7.6,8.16,23.54,0,47.08.28,70.62.88,5.49.14,9.47-4.74,8.43-10.02-3.27-16.7-8.11-32.99-9.97-49.94Z"/>
      <path class="st3" d="M1686.31,443.01c-1.34-12.21-2.58-26.39-11.03-36.11-8.42-9.67-23.66-10.68-35.04-6.47-14.89,5.51-18.8,19.77-19.81,34.27-1.26,18.26-.64,37.27-9.82,53.83-1.03,1.87-1.28,3.71-.98,5.4-.17,4.09,2.3,8.16,7.6,8.16,23.54,0,47.08.28,70.62.88,5.49.14,9.47-4.74,8.43-10.02-3.27-16.7-8.11-32.99-9.97-49.94Z"/>
      <path class="st3" d="M1885.91,443.01c-1.34-12.21-2.58-26.39-11.03-36.11-8.42-9.67-23.66-10.68-35.04-6.47-14.89,5.51-18.8,19.77-19.81,34.27-1.26,18.26-.64,37.27-9.82,53.83-1.03,1.87-1.28,3.71-.98,5.4-.17,4.09,2.3,8.16,7.6,8.16,23.54,0,47.08.28,70.62.88,5.49.14,9.47-4.74,8.43-10.02-3.27-16.7-8.11-32.99-9.97-49.94Z"/>
    </g>
    <g>
      <g>
        <path class="st1" d="M255.77,516.09c0,68.57-41.13,110.32-91.86,110.32s-91.86-41.75-91.86-110.32,41.74-138.01,91.86-138.01,91.86,69.43,91.86,138.01Z"/>
        <ellipse class="st2" cx="128.34" cy="416.71" rx="15.91" ry="10.41" transform="translate(-279.77 263.19) rotate(-52.27)"/>
      </g>
      <g>
        <path class="st1" d="M453.57,516.09c0,68.57-41.13,110.32-91.86,110.32s-91.86-41.75-91.86-110.32,41.74-138.01,91.86-138.01,91.86,69.43,91.86,138.01Z"/>
        <ellipse class="st2" cx="326.14" cy="416.71" rx="15.91" ry="10.41" transform="translate(-203.02 419.62) rotate(-52.27)"/>
      </g>
      <g>
        <path class="st1" d="M651.36,516.09c0,68.57-41.13,110.32-91.86,110.32s-91.86-41.75-91.86-110.32,41.74-138.01,91.86-138.01,91.86,69.43,91.86,138.01Z"/>
        <ellipse class="st2" cx="523.94" cy="416.71" rx="15.91" ry="10.41" transform="translate(-126.27 576.06) rotate(-52.27)"/>
      </g>
      <g>
        <path class="st1" d="M849.16,516.09c0,68.57-41.13,110.32-91.86,110.32s-91.86-41.75-91.86-110.32,41.74-138.01,91.86-138.01,91.86,69.43,91.86,138.01Z"/>
        <ellipse class="st2" cx="721.73" cy="416.71" rx="15.91" ry="10.41" transform="translate(-49.52 732.49) rotate(-52.27)"/>
      </g>
      <g>
        <path class="st1" d="M1046.96,516.09c0,68.57-41.13,110.32-91.86,110.32s-91.86-41.75-91.86-110.32,41.74-138.01,91.86-138.01,91.86,69.43,91.86,138.01Z"/>
        <ellipse class="st2" cx="919.53" cy="416.71" rx="15.91" ry="10.41" transform="translate(27.23 888.92) rotate(-52.27)"/>
      </g>
      <g>
        <path class="st1" d="M1244.76,516.09c0,68.57-41.13,110.32-91.86,110.32s-91.86-41.75-91.86-110.32,41.74-138.01,91.86-138.01,91.86,69.43,91.86,138.01Z"/>
        <ellipse class="st2" cx="1117.33" cy="416.71" rx="15.91" ry="10.41" transform="translate(103.9779 1045.3542) rotate(-52.267)"/>
      </g>
      <g>
        <path class="st1" d="M1442.56,516.09c0,68.57-41.13,110.32-91.86,110.32s-91.86-41.75-91.86-110.32,41.74-138.01,91.86-138.01,91.86,69.43,91.86,138.01Z"/>
        <ellipse class="st2" cx="1315.13" cy="416.71" rx="15.91" ry="10.41" transform="translate(180.7268 1201.7868) rotate(-52.267)"/>
      </g>
      <g>
        <path class="st1" d="M1640.35,516.09c0,68.57-41.13,110.32-91.86,110.32s-91.86-41.75-91.86-110.32,41.74-138.01,91.86-138.01,91.86,69.43,91.86,138.01Z"/>
        <ellipse class="st2" cx="1512.92" cy="416.71" rx="15.91" ry="10.41" transform="translate(257.4757 1358.2193) rotate(-52.267)"/>
      </g>
      <g>
        <path class="st1" d="M1838.15,516.09c0,68.57-41.13,110.32-91.86,110.32s-91.86-41.75-91.86-110.32,41.74-138.01,91.86-138.01,91.86,69.43,91.86,138.01Z"/>
        <ellipse class="st2" cx="1710.72" cy="416.71" rx="15.91" ry="10.41" transform="translate(334.2246 1514.6519) rotate(-52.267)"/>
      </g>
      <g>
        <path class="st1" d="M2035.95,516.09c0,68.57-41.13,110.32-91.86,110.32s-91.86-41.75-91.86-110.32,41.74-138.01,91.86-138.01,91.86,69.43,91.86,138.01Z"/>
        <ellipse class="st2" cx="1908.52" cy="416.71" rx="15.91" ry="10.41" transform="translate(410.9736 1671.0844) rotate(-52.267)"/>
      </g>
    </g>
  </g>
  <g>
    <g>
      <path class="st3" d="M289.1,556.51c-1.34-12.21-2.58-26.39-11.03-36.11-8.42-9.67-23.66-10.68-35.04-6.47-14.89,5.51-18.8,19.77-19.81,34.27-1.26,18.26-.64,37.27-9.82,53.83-1.03,1.87-1.28,3.71-.98,5.4-.17,4.09,2.3,8.16,7.6,8.16,23.54,0,47.08.28,70.62.88,5.49.14,9.47-4.74,8.43-10.02-3.27-16.7-8.11-32.99-9.97-49.94Z"/>
      <path class="st3" d="M488.7,556.51c-1.34-12.21-2.58-26.39-11.03-36.11-8.42-9.67-23.66-10.68-35.04-6.47-14.89,5.51-18.8,19.77-19.81,34.27-1.26,18.26-.64,37.27-9.82,53.83-1.03,1.87-1.28,3.71-.98,5.4-.17,4.09,2.3,8.16,7.6,8.16,23.54,0,47.08.28,70.62.88,5.49.14,9.47-4.74,8.43-10.02-3.27-16.7-8.11-32.99-9.97-49.94Z"/>
      <path class="st3" d="M688.3,556.51c-1.34-12.21-2.58-26.39-11.03-36.11-8.42-9.67-23.66-10.68-35.04-6.47-14.89,5.51-18.8,19.77-19.81,34.27-1.26,18.26-.64,37.27-9.82,53.83-1.03,1.87-1.28,3.71-.98,5.4-.17,4.09,2.3,8.16,7.6,8.16,23.54,0,47.08.28,70.62.88,5.49.14,9.47-4.74,8.43-10.02-3.27-16.7-8.11-32.99-9.97-49.94Z"/>
      <path class="st3" d="M887.91,556.51c-1.34-12.21-2.58-26.39-11.03-36.11-8.42-9.67-23.66-10.68-35.04-6.47-14.89,5.51-18.8,19.77-19.81,34.27-1.26,18.26-.64,37.27-9.82,53.83-1.03,1.87-1.28,3.71-.98,5.4-.17,4.09,2.3,8.16,7.6,8.16,23.54,0,47.08.28,70.62.88,5.49.14,9.47-4.74,8.43-10.02-3.27-16.7-8.11-32.99-9.97-49.94Z"/>
      <path class="st3" d="M1087.51,556.51c-1.34-12.21-2.58-26.39-11.03-36.11-8.42-9.67-23.66-10.68-35.04-6.47-14.89,5.51-18.8,19.77-19.81,34.27-1.26,18.26-.64,37.27-9.82,53.83-1.03,1.87-1.28,3.71-.98,5.4-.17,4.09,2.3,8.16,7.6,8.16,23.54,0,47.08.28,70.62.88,5.49.14,9.47-4.74,8.43-10.02-3.27-16.7-8.11-32.99-9.97-49.94Z"/>
      <path class="st3" d="M1287.11,556.51c-1.34-12.21-2.58-26.39-11.03-36.11-8.42-9.67-23.66-10.68-35.04-6.47-14.89,5.51-18.8,19.77-19.81,34.27-1.26,18.26-.64,37.27-9.82,53.83-1.03,1.87-1.28,3.71-.98,5.4-.17,4.09,2.3,8.16,7.6,8.16,23.54,0,47.08.28,70.62.88,5.49.14,9.47-4.74,8.43-10.02-3.27-16.7-8.11-32.99-9.97-49.94Z"/>
      <path class="st3" d="M1486.71,556.51c-1.34-12.21-2.58-26.39-11.03-36.11-8.42-9.67-23.66-10.68-35.04-6.47-14.89,5.51-18.8,19.77-19.81,34.27-1.26,18.26-.64,37.27-9.82,53.83-1.03,1.87-1.28,3.71-.98,5.4-.17,4.09,2.3,8.16,7.6,8.16,23.54,0,47.08.28,70.62.88,5.49.14,9.47-4.74,8.43-10.02-3.27-16.7-8.11-32.99-9.97-49.94Z"/>
      <path class="st3" d="M1686.31,556.51c-1.34-12.21-2.58-26.39-11.03-36.11-8.42-9.67-23.66-10.68-35.04-6.47-14.89,5.51-18.8,19.77-19.81,34.27-1.26,18.26-.64,37.27-9.82,53.83-1.03,1.87-1.28,3.71-.98,5.4-.17,4.09,2.3,8.16,7.6,8.16,23.54,0,47.08.28,70.62.88,5.49.14,9.47-4.74,8.43-10.02-3.27-16.7-8.11-32.99-9.97-49.94Z"/>
      <path class="st3" d="M1885.91,556.51c-1.34-12.21-2.58-26.39-11.03-36.11-8.42-9.67-23.66-10.68-35.04-6.47-14.89,5.51-18.8,19.77-19.81,34.27-1.26,18.26-.64,37.27-9.82,53.83-1.03,1.87-1.28,3.71-.98,5.4-.17,4.09,2.3,8.16,7.6,8.16,23.54,0,47.08.28,70.62.88,5.49.14,9.47-4.74,8.43-10.02-3.27-16.7-8.11-32.99-9.97-49.94Z"/>
    </g>
    <g>
      <path class="st0" d="M255.77,629.59c0,68.57-41.13,110.32-91.86,110.32s-91.86-41.75-91.86-110.32,41.74-138.01,91.86-138.01,91.86,69.43,91.86,138.01Z"/>
      <ellipse class="st1" cx="128.34" cy="530.21" rx="15.91" ry="10.41" transform="translate(-369.53 307.23) rotate(-52.27)"/>
      <path class="st0" d="M453.57,629.59c0,68.57-41.13,110.32-91.86,110.32s-91.86-41.75-91.86-110.32,41.74-138.01,91.86-138.01,91.86,69.43,91.86,138.01Z"/>
      <ellipse class="st1" cx="326.14" cy="530.21" rx="15.91" ry="10.41" transform="translate(-292.78 463.66) rotate(-52.27)"/>
      <path class="st0" d="M651.36,629.59c0,68.57-41.13,110.32-91.86,110.32s-91.86-41.75-91.86-110.32,41.74-138.01,91.86-138.01,91.86,69.43,91.86,138.01Z"/>
      <ellipse class="st1" cx="523.94" cy="530.21" rx="15.91" ry="10.41" transform="translate(-216.03 620.1) rotate(-52.27)"/>
      <path class="st0" d="M849.16,629.59c0,68.57-41.13,110.32-91.86,110.32s-91.86-41.75-91.86-110.32,41.74-138.01,91.86-138.01,91.86,69.43,91.86,138.01Z"/>
      <ellipse class="st1" cx="721.73" cy="530.21" rx="15.91" ry="10.41" transform="translate(-139.28 776.53) rotate(-52.27)"/>
      <path class="st0" d="M1046.96,629.59c0,68.57-41.13,110.32-91.86,110.32s-91.86-41.75-91.86-110.32,41.74-138.01,91.86-138.01,91.86,69.43,91.86,138.01Z"/>
      <ellipse class="st1" cx="919.53" cy="530.21" rx="15.91" ry="10.41" transform="translate(-62.53 932.96) rotate(-52.27)"/>
      <path class="st0" d="M1244.76,629.59c0,68.57-41.13,110.32-91.86,110.32s-91.86-41.75-91.86-110.32,41.74-138.01,91.86-138.01,91.86,69.43,91.86,138.01Z"/>
      <ellipse class="st1" cx="1117.33" cy="530.21" rx="15.91" ry="10.41" transform="translate(14.2157 1089.3933) rotate(-52.267)"/>
      <path class="st0" d="M1442.56,629.59c0,68.57-41.13,110.32-91.86,110.32s-91.86-41.75-91.86-110.32,41.74-138.01,91.86-138.01,91.86,69.43,91.86,138.01Z"/>
      <ellipse class="st1" cx="1315.13" cy="530.21" rx="15.91" ry="10.41" transform="translate(90.9647 1245.8259) rotate(-52.267)"/>
      <path class="st0" d="M1640.35,629.59c0,68.57-41.13,110.32-91.86,110.32s-91.86-41.75-91.86-110.32,41.74-138.01,91.86-138.01,91.86,69.43,91.86,138.01Z"/>
      <ellipse class="st1" cx="1512.92" cy="530.21" rx="15.91" ry="10.41" transform="translate(167.7136 1402.2584) rotate(-52.267)"/>
      <path class="st0" d="M1838.15,629.59c0,68.57-41.13,110.32-91.86,110.32s-91.86-41.75-91.86-110.32,41.74-138.01,91.86-138.01,91.86,69.43,91.86,138.01Z"/>
      <ellipse class="st1" cx="1710.72" cy="530.21" rx="15.91" ry="10.41" transform="translate(244.4625 1558.691) rotate(-52.267)"/>
      <path class="st0" d="M2035.95,629.59c0,68.57-41.13,110.32-91.86,110.32s-91.86-41.75-91.86-110.32,41.74-138.01,91.86-138.01,91.86,69.43,91.86,138.01Z"/>
      <ellipse class="st1" cx="1908.52" cy="530.21" rx="15.91" ry="10.41" transform="translate(321.2114 1715.1235) rotate(-52.267)"/>
    </g>
  </g>
  <g>
    <g>
      <path class="st3" d="M289.1,670.01c-1.34-12.21-2.58-26.39-11.03-36.11-8.42-9.67-23.66-10.68-35.04-6.47-14.89,5.51-18.8,19.77-19.81,34.27-1.26,18.26-.64,37.27-9.82,53.83-1.03,1.87-1.28,3.71-.98,5.4-.17,4.09,2.3,8.16,7.6,8.16,23.54,0,47.08.28,70.62.88,5.49.14,9.47-4.74,8.43-10.02-3.27-16.7-8.11-32.99-9.97-49.94Z"/>
      <path class="st3" d="M488.7,670.01c-1.34-12.21-2.58-26.39-11.03-36.11-8.42-9.67-23.66-10.68-35.04-6.47-14.89,5.51-18.8,19.77-19.81,34.27-1.26,18.26-.64,37.27-9.82,53.83-1.03,1.87-1.28,3.71-.98,5.4-.17,4.09,2.3,8.16,7.6,8.16,23.54,0,47.08.28,70.62.88,5.49.14,9.47-4.74,8.43-10.02-3.27-16.7-8.11-32.99-9.97-49.94Z"/>
      <path class="st3" d="M688.3,670.01c-1.34-12.21-2.58-26.39-11.03-36.11-8.42-9.67-23.66-10.68-35.04-6.47-14.89,5.51-18.8,19.77-19.81,34.27-1.26,18.26-.64,37.27-9.82,53.83-1.03,1.87-1.28,3.71-.98,5.4-.17,4.09,2.3,8.16,7.6,8.16,23.54,0,47.08.28,70.62.88,5.49.14,9.47-4.74,8.43-10.02-3.27-16.7-8.11-32.99-9.97-49.94Z"/>
      <path class="st3" d="M887.91,670.01c-1.34-12.21-2.58-26.39-11.03-36.11-8.42-9.67-23.66-10.68-35.04-6.47-14.89,5.51-18.8,19.77-19.81,34.27-1.26,18.26-.64,37.27-9.82,53.83-1.03,1.87-1.28,3.71-.98,5.4-.17,4.09,2.3,8.16,7.6,8.16,23.54,0,47.08.28,70.62.88,5.49.14,9.47-4.74,8.43-10.02-3.27-16.7-8.11-32.99-9.97-49.94Z"/>
      <path class="st3" d="M1087.51,670.01c-1.34-12.21-2.58-26.39-11.03-36.11-8.42-9.67-23.66-10.68-35.04-6.47-14.89,5.51-18.8,19.77-19.81,34.27-1.26,18.26-.64,37.27-9.82,53.83-1.03,1.87-1.28,3.71-.98,5.4-.17,4.09,2.3,8.16,7.6,8.16,23.54,0,47.08.28,70.62.88,5.49.14,9.47-4.74,8.43-10.02-3.27-16.7-8.11-32.99-9.97-49.94Z"/>
      <path class="st3" d="M1287.11,670.01c-1.34-12.21-2.58-26.39-11.03-36.11-8.42-9.67-23.66-10.68-35.04-6.47-14.89,5.51-18.8,19.77-19.81,34.27-1.26,18.26-.64,37.27-9.82,53.83-1.03,1.87-1.28,3.71-.98,5.4-.17,4.09,2.3,8.16,7.6,8.16,23.54,0,47.08.28,70.62.88,5.49.14,9.47-4.74,8.43-10.02-3.27-16.7-8.11-32.99-9.97-49.94Z"/>
      <path class="st3" d="M1486.71,670.01c-1.34-12.21-2.58-26.39-11.03-36.11-8.42-9.67-23.66-10.68-35.04-6.47-14.89,5.51-18.8,19.77-19.81,34.27-1.26,18.26-.64,37.27-9.82,53.83-1.03,1.87-1.28,3.71-.98,5.4-.17,4.09,2.3,8.16,7.6,8.16,23.54,0,47.08.28,70.62.88,5.49.14,9.47-4.74,8.43-10.02-3.27-16.7-8.11-32.99-9.97-49.94Z"/>
      <path class="st3" d="M1686.31,670.01c-1.34-12.21-2.58-26.39-11.03-36.11-8.42-9.67-23.66-10.68-35.04-6.47-14.89,5.51-18.8,19.77-19.81,34.27-1.26,18.26-.64,37.27-9.82,53.83-1.03,1.87-1.28,3.71-.98,5.4-.17,4.09,2.3,8.16,7.6,8.16,23.54,0,47.08.28,70.62.88,5.49.14,9.47-4.74,8.43-10.02-3.27-16.7-8.11-32.99-9.97-49.94Z"/>
      <path class="st3" d="M1885.91,670.01c-1.34-12.21-2.58-26.39-11.03-36.11-8.42-9.67-23.66-10.68-35.04-6.47-14.89,5.51-18.8,19.77-19.81,34.27-1.26,18.26-.64,37.27-9.82,53.83-1.03,1.87-1.28,3.71-.98,5.4-.17,4.09,2.3,8.16,7.6,8.16,23.54,0,47.08.28,70.62.88,5.49.14,9.47-4.74,8.43-10.02-3.27-16.7-8.11-32.99-9.97-49.94Z"/>
    </g>
    <g>
      <g>
        <path class="st1" d="M255.77,743.08c0,68.57-41.13,110.32-91.86,110.32s-91.86-41.75-91.86-110.32,41.74-138.01,91.86-138.01,91.86,69.43,91.86,138.01Z"/>
        <ellipse class="st2" cx="128.34" cy="643.71" rx="15.91" ry="10.41" transform="translate(-459.29 351.27) rotate(-52.27)"/>
      </g>
      <g>
        <path class="st1" d="M453.57,743.08c0,68.57-41.13,110.32-91.86,110.32s-91.86-41.75-91.86-110.32,41.74-138.01,91.86-138.01,91.86,69.43,91.86,138.01Z"/>
        <ellipse class="st2" cx="326.14" cy="643.71" rx="15.91" ry="10.41" transform="translate(-382.54 507.7) rotate(-52.27)"/>
      </g>
      <g>
        <path class="st1" d="M651.36,743.08c0,68.57-41.13,110.32-91.86,110.32s-91.86-41.75-91.86-110.32,41.74-138.01,91.86-138.01,91.86,69.43,91.86,138.01Z"/>
        <ellipse class="st2" cx="523.94" cy="643.71" rx="15.91" ry="10.41" transform="translate(-305.79 664.13) rotate(-52.27)"/>
      </g>
      <g>
        <path class="st1" d="M849.16,743.08c0,68.57-41.13,110.32-91.86,110.32s-91.86-41.75-91.86-110.32,41.74-138.01,91.86-138.01,91.86,69.43,91.86,138.01Z"/>
        <ellipse class="st2" cx="721.73" cy="643.71" rx="15.91" ry="10.41" transform="translate(-229.04 820.57) rotate(-52.27)"/>
      </g>
      <g>
        <path class="st1" d="M1046.96,743.08c0,68.57-41.13,110.32-91.86,110.32s-91.86-41.75-91.86-110.32,41.74-138.01,91.86-138.01,91.86,69.43,91.86,138.01Z"/>
        <ellipse class="st2" cx="919.53" cy="643.71" rx="15.91" ry="10.41" transform="translate(-152.3 977) rotate(-52.27)"/>
      </g>
      <g>
        <path class="st1" d="M1244.76,743.08c0,68.57-41.13,110.32-91.86,110.32s-91.86-41.75-91.86-110.32,41.74-138.01,91.86-138.01,91.86,69.43,91.86,138.01Z"/>
        <ellipse class="st2" cx="1117.33" cy="643.71" rx="15.91" ry="10.41" transform="translate(-75.5464 1133.4324) rotate(-52.267)"/>
      </g>
      <g>
        <path class="st1" d="M1442.56,743.08c0,68.57-41.13,110.32-91.86,110.32s-91.86-41.75-91.86-110.32,41.74-138.01,91.86-138.01,91.86,69.43,91.86,138.01Z"/>
        <ellipse class="st2" cx="1315.13" cy="643.71" rx="15.91" ry="10.41" transform="translate(1.2025 1289.865) rotate(-52.267)"/>
      </g>
      <g>
        <path class="st1" d="M1640.35,743.08c0,68.57-41.13,110.32-91.86,110.32s-91.86-41.75-91.86-110.32,41.74-138.01,91.86-138.01,91.86,69.43,91.86,138.01Z"/>
        <ellipse class="st2" cx="1512.92" cy="643.71" rx="15.91" ry="10.41" transform="translate(77.9514 1446.2975) rotate(-52.267)"/>
      </g>
      <g>
        <path class="st1" d="M1838.15,743.08c0,68.57-41.13,110.32-91.86,110.32s-91.86-41.75-91.86-110.32,41.74-138.01,91.86-138.01,91.86,69.43,91.86,138.01Z"/>
        <ellipse class="st2" cx="1710.72" cy="643.71" rx="15.91" ry="10.41" transform="translate(154.7004 1602.73) rotate(-52.267)"/>
      </g>
      <g>
        <path class="st1" d="M2035.95,743.08c0,68.57-41.13,110.32-91.86,110.32s-91.86-41.75-91.86-110.32,41.74-138.01,91.86-138.01,91.86,69.43,91.86,138.01Z"/>
        <ellipse class="st2" cx="1908.52" cy="643.71" rx="15.91" ry="10.41" transform="translate(231.4493 1759.1626) rotate(-52.267)"/>
      </g>
    </g>
  </g>
  <g>
    <g>
      <path class="st3" d="M289.1,783.51c-1.34-12.21-2.58-26.39-11.03-36.11-8.42-9.67-23.66-10.68-35.04-6.47-14.89,5.51-18.8,19.77-19.81,34.27-1.26,18.26-.64,37.27-9.82,53.83-1.03,1.87-1.28,3.71-.98,5.4-.17,4.09,2.3,8.16,7.6,8.16,23.54,0,47.08.28,70.62.88,5.49.14,9.47-4.74,8.43-10.02-3.27-16.7-8.11-32.99-9.97-49.94Z"/>
      <path class="st3" d="M488.7,783.51c-1.34-12.21-2.58-26.39-11.03-36.11-8.42-9.67-23.66-10.68-35.04-6.47-14.89,5.51-18.8,19.77-19.81,34.27-1.26,18.26-.64,37.27-9.82,53.83-1.03,1.87-1.28,3.71-.98,5.4-.17,4.09,2.3,8.16,7.6,8.16,23.54,0,47.08.28,70.62.88,5.49.14,9.47-4.74,8.43-10.02-3.27-16.7-8.11-32.99-9.97-49.94Z"/>
      <path class="st3" d="M688.3,783.51c-1.34-12.21-2.58-26.39-11.03-36.11-8.42-9.67-23.66-10.68-35.04-6.47-14.89,5.51-18.8,19.77-19.81,34.27-1.26,18.26-.64,37.27-9.82,53.83-1.03,1.87-1.28,3.71-.98,5.4-.17,4.09,2.3,8.16,7.6,8.16,23.54,0,47.08.28,70.62.88,5.49.14,9.47-4.74,8.43-10.02-3.27-16.7-8.11-32.99-9.97-49.94Z"/>
      <path class="st3" d="M887.91,783.51c-1.34-12.21-2.58-26.39-11.03-36.11-8.42-9.67-23.66-10.68-35.04-6.47-14.89,5.51-18.8,19.77-19.81,34.27-1.26,18.26-.64,37.27-9.82,53.83-1.03,1.87-1.28,3.71-.98,5.4-.17,4.09,2.3,8.16,7.6,8.16,23.54,0,47.08.28,70.62.88,5.49.14,9.47-4.74,8.43-10.02-3.27-16.7-8.11-32.99-9.97-49.94Z"/>
      <path class="st3" d="M1087.51,783.51c-1.34-12.21-2.58-26.39-11.03-36.11-8.42-9.67-23.66-10.68-35.04-6.47-14.89,5.51-18.8,19.77-19.81,34.27-1.26,18.26-.64,37.27-9.82,53.83-1.03,1.87-1.28,3.71-.98,5.4-.17,4.09,2.3,8.16,7.6,8.16,23.54,0,47.08.28,70.62.88,5.49.14,9.47-4.74,8.43-10.02-3.27-16.7-8.11-32.99-9.97-49.94Z"/>
      <path class="st3" d="M1287.11,783.51c-1.34-12.21-2.58-26.39-11.03-36.11-8.42-9.67-23.66-10.68-35.04-6.47-14.89,5.51-18.8,19.77-19.81,34.27-1.26,18.26-.64,37.27-9.82,53.83-1.03,1.87-1.28,3.71-.98,5.4-.17,4.09,2.3,8.16,7.6,8.16,23.54,0,47.08.28,70.62.88,5.49.14,9.47-4.74,8.43-10.02-3.27-16.7-8.11-32.99-9.97-49.94Z"/>
      <path class="st3" d="M1486.71,783.51c-1.34-12.21-2.58-26.39-11.03-36.11-8.42-9.67-23.66-10.68-35.04-6.47-14.89,5.51-18.8,19.77-19.81,34.27-1.26,18.26-.64,37.27-9.82,53.83-1.03,1.87-1.28,3.71-.98,5.4-.17,4.09,2.3,8.16,7.6,8.16,23.54,0,47.08.28,70.62.88,5.49.14,9.47-4.74,8.43-10.02-3.27-16.7-8.11-32.99-9.97-49.94Z"/>
      <path class="st3" d="M1686.31,783.51c-1.34-12.21-2.58-26.39-11.03-36.11-8.42-9.67-23.66-10.68-35.04-6.47-14.89,5.51-18.8,19.77-19.81,34.27-1.26,18.26-.64,37.27-9.82,53.83-1.03,1.87-1.28,3.71-.98,5.4-.17,4.09,2.3,8.16,7.6,8.16,23.54,0,47.08.28,70.62.88,5.49.14,9.47-4.74,8.43-10.02-3.27-16.7-8.11-32.99-9.97-49.94Z"/>
      <path class="st3" d="M1885.91,783.51c-1.34-12.21-2.58-26.39-11.03-36.11-8.42-9.67-23.66-10.68-35.04-6.47-14.89,5.51-18.8,19.77-19.81,34.27-1.26,18.26-.64,37.27-9.82,53.83-1.03,1.87-1.28,3.71-.98,5.4-.17,4.09,2.3,8.16,7.6,8.16,23.54,0,47.08.28,70.62.88,5.49.14,9.47-4.74,8.43-10.02-3.27-16.7-8.11-32.99-9.97-49.94Z"/>
    </g>
    <g>
      <path class="st0" d="M255.77,856.58c0,68.57-41.13,110.32-91.86,110.32s-91.86-41.75-91.86-110.32,41.74-138.01,91.86-138.01,91.86,69.43,91.86,138.01Z"/>
      <ellipse class="st1" cx="128.34" cy="757.2" rx="15.91" ry="10.41" transform="translate(-549.05 395.31) rotate(-52.27)"/>
      <path class="st0" d="M453.57,856.58c0,68.57-41.13,110.32-91.86,110.32s-91.86-41.75-91.86-110.32,41.74-138.01,91.86-138.01,91.86,69.43,91.86,138.01Z"/>
      <ellipse class="st1" cx="326.14" cy="757.2" rx="15.91" ry="10.41" transform="translate(-472.3 551.74) rotate(-52.27)"/>
      <path class="st0" d="M651.36,856.58c0,68.57-41.13,110.32-91.86,110.32s-91.86-41.75-91.86-110.32,41.74-138.01,91.86-138.01,91.86,69.43,91.86,138.01Z"/>
      <ellipse class="st1" cx="523.94" cy="757.2" rx="15.91" ry="10.41" transform="translate(-395.56 708.17) rotate(-52.27)"/>
      <path class="st0" d="M849.16,856.58c0,68.57-41.13,110.32-91.86,110.32s-91.86-41.75-91.86-110.32,41.74-138.01,91.86-138.01,91.86,69.43,91.86,138.01Z"/>
      <ellipse class="st1" cx="721.73" cy="757.2" rx="15.91" ry="10.41" transform="translate(-318.81 864.61) rotate(-52.27)"/>
      <path class="st0" d="M1046.96,856.58c0,68.57-41.13,110.32-91.86,110.32s-91.86-41.75-91.86-110.32,41.74-138.01,91.86-138.01,91.86,69.43,91.86,138.01Z"/>
      <ellipse class="st1" cx="919.53" cy="757.2" rx="15.91" ry="10.41" transform="translate(-242.0575 1021.039) rotate(-52.267)"/>
      <path class="st0" d="M1244.76,856.58c0,68.57-41.13,110.32-91.86,110.32s-91.86-41.75-91.86-110.32,41.74-138.01,91.86-138.01,91.86,69.43,91.86,138.01Z"/>
      <ellipse class="st1" cx="1117.33" cy="757.2" rx="15.91" ry="10.41" transform="translate(-165.3085 1177.4715) rotate(-52.267)"/>
      <path class="st0" d="M1442.56,856.58c0,68.57-41.13,110.32-91.86,110.32s-91.86-41.75-91.86-110.32,41.74-138.01,91.86-138.01,91.86,69.43,91.86,138.01Z"/>
      <ellipse class="st1" cx="1315.13" cy="757.2" rx="15.91" ry="10.41" transform="translate(-88.5596 1333.904) rotate(-52.267)"/>
      <path class="st0" d="M1640.35,856.58c0,68.57-41.13,110.32-91.86,110.32s-91.86-41.75-91.86-110.32,41.74-138.01,91.86-138.01,91.86,69.43,91.86,138.01Z"/>
      <ellipse class="st1" cx="1512.92" cy="757.2" rx="15.91" ry="10.41" transform="translate(-11.8107 1490.3366) rotate(-52.267)"/>
      <path class="st0" d="M1838.15,856.58c0,68.57-41.13,110.32-91.86,110.32s-91.86-41.75-91.86-110.32,41.74-138.01,91.86-138.01,91.86,69.43,91.86,138.01Z"/>
      <ellipse class="st1" cx="1710.72" cy="757.2" rx="15.91" ry="10.41" transform="translate(64.9382 1646.7691) rotate(-52.267)"/>
      <path class="st0" d="M2035.95,856.58c0,68.57-41.13,110.32-91.86,110.32s-91.86-41.75-91.86-110.32,41.74-138.01,91.86-138.01,91.86,69.43,91.86,138.01Z"/>
      <ellipse class="st1" cx="1908.52" cy="757.2" rx="15.91" ry="10.41" transform="translate(141.6871 1803.2017) rotate(-52.267)"/>
    </g>
  </g>
  <g>
    <g>
      <path class="st3" d="M289.1,897c-1.34-12.21-2.58-26.39-11.03-36.11-8.42-9.67-23.66-10.68-35.04-6.47-14.89,5.51-18.8,19.77-19.81,34.27-1.26,18.26-.64,37.27-9.82,53.83-1.03,1.87-1.28,3.71-.98,5.4-.17,4.09,2.3,8.16,7.6,8.16,23.54,0,47.08.28,70.62.88,5.49.14,9.47-4.74,8.43-10.02-3.27-16.7-8.11-32.99-9.97-49.94Z"/>
      <path class="st3" d="M488.7,897c-1.34-12.21-2.58-26.39-11.03-36.11-8.42-9.67-23.66-10.68-35.04-6.47-14.89,5.51-18.8,19.77-19.81,34.27-1.26,18.26-.64,37.27-9.82,53.83-1.03,1.87-1.28,3.71-.98,5.4-.17,4.09,2.3,8.16,7.6,8.16,23.54,0,47.08.28,70.62.88,5.49.14,9.47-4.74,8.43-10.02-3.27-16.7-8.11-32.99-9.97-49.94Z"/>
      <path class="st3" d="M688.3,897c-1.34-12.21-2.58-26.39-11.03-36.11-8.42-9.67-23.66-10.68-35.04-6.47-14.89,5.51-18.8,19.77-19.81,34.27-1.26,18.26-.64,37.27-9.82,53.83-1.03,1.87-1.28,3.71-.98,5.4-.17,4.09,2.3,8.16,7.6,8.16,23.54,0,47.08.28,70.62.88,5.49.14,9.47-4.74,8.43-10.02-3.27-16.7-8.11-32.99-9.97-49.94Z"/>
      <path class="st3" d="M887.91,897c-1.34-12.21-2.58-26.39-11.03-36.11-8.42-9.67-23.66-10.68-35.04-6.47-14.89,5.51-18.8,19.77-19.81,34.27-1.26,18.26-.64,37.27-9.82,53.83-1.03,1.87-1.28,3.71-.98,5.4-.17,4.09,2.3,8.16,7.6,8.16,23.54,0,47.08.28,70.62.88,5.49.14,9.47-4.74,8.43-10.02-3.27-16.7-8.11-32.99-9.97-49.94Z"/>
      <path class="st3" d="M1087.51,897c-1.34-12.21-2.58-26.39-11.03-36.11-8.42-9.67-23.66-10.68-35.04-6.47-14.89,5.51-18.8,19.77-19.81,34.27-1.26,18.26-.64,37.27-9.82,53.83-1.03,1.87-1.28,3.71-.98,5.4-.17,4.09,2.3,8.16,7.6,8.16,23.54,0,47.08.28,70.62.88,5.49.14,9.47-4.74,8.43-10.02-3.27-16.7-8.11-32.99-9.97-49.94Z"/>
      <path class="st3" d="M1287.11,897c-1.34-12.21-2.58-26.39-11.03-36.11-8.42-9.67-23.66-10.68-35.04-6.47-14.89,5.51-18.8,19.77-19.81,34.27-1.26,18.26-.64,37.27-9.82,53.83-1.03,1.87-1.28,3.71-.98,5.4-.17,4.09,2.3,8.16,7.6,8.16,23.54,0,47.08.28,70.62.88,5.49.14,9.47-4.74,8.43-10.02-3.27-16.7-8.11-32.99-9.97-49.94Z"/>
      <path class="st3" d="M1486.71,897c-1.34-12.21-2.58-26.39-11.03-36.11-8.42-9.67-23.66-10.68-35.04-6.47-14.89,5.51-18.8,19.77-19.81,34.27-1.26,18.26-.64,37.27-9.82,53.83-1.03,1.87-1.28,3.71-.98,5.4-.17,4.09,2.3,8.16,7.6,8.16,23.54,0,47.08.28,70.62.88,5.49.14,9.47-4.74,8.43-10.02-3.27-16.7-8.11-32.99-9.97-49.94Z"/>
      <path class="st3" d="M1686.31,897c-1.34-12.21-2.58-26.39-11.03-36.11-8.42-9.67-23.66-10.68-35.04-6.47-14.89,5.51-18.8,19.77-19.81,34.27-1.26,18.26-.64,37.27-9.82,53.83-1.03,1.87-1.28,3.71-.98,5.4-.17,4.09,2.3,8.16,7.6,8.16,23.54,0,47.08.28,70.62.88,5.49.14,9.47-4.74,8.43-10.02-3.27-16.7-8.11-32.99-9.97-49.94Z"/>
      <path class="st3" d="M1885.91,897c-1.34-12.21-2.58-26.39-11.03-36.11-8.42-9.67-23.66-10.68-35.04-6.47-14.89,5.51-18.8,19.77-19.81,34.27-1.26,18.26-.64,37.27-9.82,53.83-1.03,1.87-1.28,3.71-.98,5.4-.17,4.09,2.3,8.16,7.6,8.16,23.54,0,47.08.28,70.62.88,5.49.14,9.47-4.74,8.43-10.02-3.27-16.7-8.11-32.99-9.97-49.94Z"/>
    </g>
    <g>
      <g>
        <path class="st1" d="M255.77,970.08c0,68.57-41.13,110.32-91.86,110.32s-91.86-41.75-91.86-110.32,41.74-138.01,91.86-138.01,91.86,69.43,91.86,138.01Z"/>
        <ellipse class="st2" cx="128.34" cy="870.7" rx="15.91" ry="10.41" transform="translate(-638.82 439.35) rotate(-52.27)"/>
      </g>
      <g>
        <path class="st1" d="M453.57,970.08c0,68.57-41.13,110.32-91.86,110.32s-91.86-41.75-91.86-110.32,41.74-138.01,91.86-138.01,91.86,69.43,91.86,138.01Z"/>
        <ellipse class="st2" cx="326.14" cy="870.7" rx="15.91" ry="10.41" transform="translate(-562.07 595.78) rotate(-52.27)"/>
      </g>
      <g>
        <path class="st1" d="M651.36,970.08c0,68.57-41.13,110.32-91.86,110.32s-91.86-41.75-91.86-110.32,41.74-138.01,91.86-138.01,91.86,69.43,91.86,138.01Z"/>
        <ellipse class="st2" cx="523.94" cy="870.7" rx="15.91" ry="10.41" transform="translate(-485.32 752.21) rotate(-52.27)"/>
      </g>
      <g>
        <path class="st1" d="M849.16,970.08c0,68.57-41.13,110.32-91.86,110.32s-91.86-41.75-91.86-110.32,41.74-138.01,91.86-138.01,91.86,69.43,91.86,138.01Z"/>
        <ellipse class="st2" cx="721.73" cy="870.7" rx="15.91" ry="10.41" transform="translate(-408.57 908.65) rotate(-52.27)"/>
      </g>
      <g>
        <path class="st1" d="M1046.96,970.08c0,68.57-41.13,110.32-91.86,110.32s-91.86-41.75-91.86-110.32,41.74-138.01,91.86-138.01,91.86,69.43,91.86,138.01Z"/>
        <ellipse class="st2" cx="919.53" cy="870.7" rx="15.91" ry="10.41" transform="translate(-331.8196 1065.078) rotate(-52.267)"/>
      </g>
      <g>
        <path class="st1" d="M1244.76,970.08c0,68.57-41.13,110.32-91.86,110.32s-91.86-41.75-91.86-110.32,41.74-138.01,91.86-138.01,91.86,69.43,91.86,138.01Z"/>
        <ellipse class="st2" cx="1117.33" cy="870.7" rx="15.91" ry="10.41" transform="translate(-255.0707 1221.5106) rotate(-52.267)"/>
      </g>
      <g>
        <path class="st1" d="M1442.56,970.08c0,68.57-41.13,110.32-91.86,110.32s-91.86-41.75-91.86-110.32,41.74-138.01,91.86-138.01,91.86,69.43,91.86,138.01Z"/>
        <ellipse class="st2" cx="1315.13" cy="870.7" rx="15.91" ry="10.41" transform="translate(-178.3218 1377.9431) rotate(-52.267)"/>
      </g>
      <g>
        <path class="st1" d="M1640.35,970.08c0,68.57-41.13,110.32-91.86,110.32s-91.86-41.75-91.86-110.32,41.74-138.01,91.86-138.01,91.86,69.43,91.86,138.01Z"/>
        <ellipse class="st2" cx="1512.92" cy="870.7" rx="15.91" ry="10.41" transform="translate(-101.5729 1534.3757) rotate(-52.267)"/>
      </g>
      <g>
        <path class="st1" d="M1838.15,970.08c0,68.57-41.13,110.32-91.86,110.32s-91.86-41.75-91.86-110.32,41.74-138.01,91.86-138.01,91.86,69.43,91.86,138.01Z"/>
        <ellipse class="st2" cx="1710.72" cy="870.7" rx="15.91" ry="10.41" transform="translate(-24.8239 1690.8082) rotate(-52.267)"/>
      </g>
      <g>
        <path class="st1" d="M2035.95,970.08c0,68.57-41.13,110.32-91.86,110.32s-91.86-41.75-91.86-110.32,41.74-138.01,91.86-138.01,91.86,69.43,91.86,138.01Z"/>
        <ellipse class="st2" cx="1908.52" cy="870.7" rx="15.91" ry="10.41" transform="translate(51.925 1847.2408) rotate(-52.267)"/>
      </g>
    </g>
  </g>
  <g>
    <g>
      <path class="st3" d="M289.1,1010.5c-1.34-12.21-2.58-26.39-11.03-36.11-8.42-9.67-23.66-10.68-35.04-6.47-14.89,5.51-18.8,19.77-19.81,34.27-1.26,18.26-.64,37.27-9.82,53.83-1.03,1.87-1.28,3.71-.98,5.4-.17,4.09,2.3,8.16,7.6,8.16,23.54,0,47.08.28,70.62.88,5.49.14,9.47-4.74,8.43-10.02-3.27-16.7-8.11-32.99-9.97-49.94Z"/>
      <path class="st3" d="M488.7,1010.5c-1.34-12.21-2.58-26.39-11.03-36.11-8.42-9.67-23.66-10.68-35.04-6.47-14.89,5.51-18.8,19.77-19.81,34.27-1.26,18.26-.64,37.27-9.82,53.83-1.03,1.87-1.28,3.71-.98,5.4-.17,4.09,2.3,8.16,7.6,8.16,23.54,0,47.08.28,70.62.88,5.49.14,9.47-4.74,8.43-10.02-3.27-16.7-8.11-32.99-9.97-49.94Z"/>
      <path class="st3" d="M688.3,1010.5c-1.34-12.21-2.58-26.39-11.03-36.11-8.42-9.67-23.66-10.68-35.04-6.47-14.89,5.51-18.8,19.77-19.81,34.27-1.26,18.26-.64,37.27-9.82,53.83-1.03,1.87-1.28,3.71-.98,5.4-.17,4.09,2.3,8.16,7.6,8.16,23.54,0,47.08.28,70.62.88,5.49.14,9.47-4.74,8.43-10.02-3.27-16.7-8.11-32.99-9.97-49.94Z"/>
      <path class="st3" d="M887.91,1010.5c-1.34-12.21-2.58-26.39-11.03-36.11-8.42-9.67-23.66-10.68-35.04-6.47-14.89,5.51-18.8,19.77-19.81,34.27-1.26,18.26-.64,37.27-9.82,53.83-1.03,1.87-1.28,3.71-.98,5.4-.17,4.09,2.3,8.16,7.6,8.16,23.54,0,47.08.28,70.62.88,5.49.14,9.47-4.74,8.43-10.02-3.27-16.7-8.11-32.99-9.97-49.94Z"/>
      <path class="st3" d="M1087.51,1010.5c-1.34-12.21-2.58-26.39-11.03-36.11-8.42-9.67-23.66-10.68-35.04-6.47-14.89,5.51-18.8,19.77-19.81,34.27-1.26,18.26-.64,37.27-9.82,53.83-1.03,1.87-1.28,3.71-.98,5.4-.17,4.09,2.3,8.16,7.6,8.16,23.54,0,47.08.28,70.62.88,5.49.14,9.47-4.74,8.43-10.02-3.27-16.7-8.11-32.99-9.97-49.94Z"/>
      <path class="st3" d="M1287.11,1010.5c-1.34-12.21-2.58-26.39-11.03-36.11-8.42-9.67-23.66-10.68-35.04-6.47-14.89,5.51-18.8,19.77-19.81,34.27-1.26,18.26-.64,37.27-9.82,53.83-1.03,1.87-1.28,3.71-.98,5.4-.17,4.09,2.3,8.16,7.6,8.16,23.54,0,47.08.28,70.62.88,5.49.14,9.47-4.74,8.43-10.02-3.27-16.7-8.11-32.99-9.97-49.94Z"/>
      <path class="st3" d="M1486.71,1010.5c-1.34-12.21-2.58-26.39-11.03-36.11-8.42-9.67-23.66-10.68-35.04-6.47-14.89,5.51-18.8,19.77-19.81,34.27-1.26,18.26-.64,37.27-9.82,53.83-1.03,1.87-1.28,3.71-.98,5.4-.17,4.09,2.3,8.16,7.6,8.16,23.54,0,47.08.28,70.62.88,5.49.14,9.47-4.74,8.43-10.02-3.27-16.7-8.11-32.99-9.97-49.94Z"/>
      <path class="st3" d="M1686.31,1010.5c-1.34-12.21-2.58-26.39-11.03-36.11-8.42-9.67-23.66-10.68-35.04-6.47-14.89,5.51-18.8,19.77-19.81,34.27-1.26,18.26-.64,37.27-9.82,53.83-1.03,1.87-1.28,3.71-.98,5.4-.17,4.09,2.3,8.16,7.6,8.16,23.54,0,47.08.28,70.62.88,5.49.14,9.47-4.74,8.43-10.02-3.27-16.7-8.11-32.99-9.97-49.94Z"/>
      <path class="st3" d="M1885.91,1010.5c-1.34-12.21-2.58-26.39-11.03-36.11-8.42-9.67-23.66-10.68-35.04-6.47-14.89,5.51-18.8,19.77-19.81,34.27-1.26,18.26-.64,37.27-9.82,53.83-1.03,1.87-1.28,3.71-.98,5.4-.17,4.09,2.3,8.16,7.6,8.16,23.54,0,47.08.28,70.62.88,5.49.14,9.47-4.74,8.43-10.02-3.27-16.7-8.11-32.99-9.97-49.94Z"/>
    </g>
    <g>
      <path class="st0" d="M255.77,1083.58c0,68.57-41.13,110.32-91.86,110.32s-91.86-41.75-91.86-110.32,41.74-138.01,91.86-138.01,91.86,69.43,91.86,138.01Z"/>
      <ellipse class="st1" cx="128.34" cy="984.2" rx="15.91" ry="10.41" transform="translate(-728.58 483.39) rotate(-52.27)"/>
      <path class="st0" d="M453.57,1083.58c0,68.57-41.13,110.32-91.86,110.32s-91.86-41.75-91.86-110.32,41.74-138.01,91.86-138.01,91.86,69.43,91.86,138.01Z"/>
      <ellipse class="st1" cx="326.14" cy="984.2" rx="15.91" ry="10.41" transform="translate(-651.83 639.82) rotate(-52.27)"/>
      <path class="st0" d="M651.36,1083.58c0,68.57-41.13,110.32-91.86,110.32s-91.86-41.75-91.86-110.32,41.74-138.01,91.86-138.01,91.86,69.43,91.86,138.01Z"/>
      <ellipse class="st1" cx="523.94" cy="984.2" rx="15.91" ry="10.41" transform="translate(-575.08 796.25) rotate(-52.27)"/>
      <path class="st0" d="M849.16,1083.58c0,68.57-41.13,110.32-91.86,110.32s-91.86-41.75-91.86-110.32,41.74-138.01,91.86-138.01,91.86,69.43,91.86,138.01Z"/>
      <ellipse class="st1" cx="721.73" cy="984.2" rx="15.91" ry="10.41" transform="translate(-498.33 952.68) rotate(-52.27)"/>
      <path class="st0" d="M1046.96,1083.58c0,68.57-41.13,110.32-91.86,110.32s-91.86-41.75-91.86-110.32,41.74-138.01,91.86-138.01,91.86,69.43,91.86,138.01Z"/>
      <ellipse class="st1" cx="919.53" cy="984.2" rx="15.91" ry="10.41" transform="translate(-421.5818 1109.1171) rotate(-52.267)"/>
      <path class="st0" d="M1244.76,1083.58c0,68.57-41.13,110.32-91.86,110.32s-91.86-41.75-91.86-110.32,41.74-138.01,91.86-138.01,91.86,69.43,91.86,138.01Z"/>
      <ellipse class="st1" cx="1117.33" cy="984.2" rx="15.91" ry="10.41" transform="translate(-344.8328 1265.5497) rotate(-52.267)"/>
      <path class="st0" d="M1442.56,1083.58c0,68.57-41.13,110.32-91.86,110.32s-91.86-41.75-91.86-110.32,41.74-138.01,91.86-138.01,91.86,69.43,91.86,138.01Z"/>
      <ellipse class="st1" cx="1315.13" cy="984.2" rx="15.91" ry="10.41" transform="translate(-268.0839 1421.9822) rotate(-52.267)"/>
      <path class="st0" d="M1640.35,1083.58c0,68.57-41.13,110.32-91.86,110.32s-91.86-41.75-91.86-110.32,41.74-138.01,91.86-138.01,91.86,69.43,91.86,138.01Z"/>
      <ellipse class="st1" cx="1512.92" cy="984.2" rx="15.91" ry="10.41" transform="translate(-191.335 1578.4148) rotate(-52.267)"/>
      <path class="st0" d="M1838.15,1083.58c0,68.57-41.13,110.32-91.86,110.32s-91.86-41.75-91.86-110.32,41.74-138.01,91.86-138.01,91.86,69.43,91.86,138.01Z"/>
      <ellipse class="st1" cx="1710.72" cy="984.2" rx="15.91" ry="10.41" transform="translate(-114.5861 1734.8473) rotate(-52.267)"/>
      <path class="st0" d="M2035.95,1083.58c0,68.57-41.13,110.32-91.86,110.32s-91.86-41.75-91.86-110.32,41.74-138.01,91.86-138.01,91.86,69.43,91.86,138.01Z"/>
      <ellipse class="st1" cx="1908.52" cy="984.2" rx="15.91" ry="10.41" transform="translate(-37.8372 1891.2799) rotate(-52.267)"/>
    </g>
  </g>
  <g>
    <g>
      <path class="st3" d="M289.1,1124c-1.34-12.21-2.58-26.39-11.03-36.11-8.42-9.67-23.66-10.68-35.04-6.47-14.89,5.51-18.8,19.77-19.81,34.27-1.26,18.26-.64,37.27-9.82,53.83-1.03,1.87-1.28,3.71-.98,5.4-.17,4.09,2.3,8.16,7.6,8.16,23.54,0,47.08.28,70.62.88,5.49.14,9.47-4.74,8.43-10.02-3.27-16.7-8.11-32.99-9.97-49.94Z"/>
      <path class="st3" d="M488.7,1124c-1.34-12.21-2.58-26.39-11.03-36.11-8.42-9.67-23.66-10.68-35.04-6.47-14.89,5.51-18.8,19.77-19.81,34.27-1.26,18.26-.64,37.27-9.82,53.83-1.03,1.87-1.28,3.71-.98,5.4-.17,4.09,2.3,8.16,7.6,8.16,23.54,0,47.08.28,70.62.88,5.49.14,9.47-4.74,8.43-10.02-3.27-16.7-8.11-32.99-9.97-49.94Z"/>
      <path class="st3" d="M688.3,1124c-1.34-12.21-2.58-26.39-11.03-36.11-8.42-9.67-23.66-10.68-35.04-6.47-14.89,5.51-18.8,19.77-19.81,34.27-1.26,18.26-.64,37.27-9.82,53.83-1.03,1.87-1.28,3.71-.98,5.4-.17,4.09,2.3,8.16,7.6,8.16,23.54,0,47.08.28,70.62.88,5.49.14,9.47-4.74,8.43-10.02-3.27-16.7-8.11-32.99-9.97-49.94Z"/>
      <path class="st3" d="M887.91,1124c-1.34-12.21-2.58-26.39-11.03-36.11-8.42-9.67-23.66-10.68-35.04-6.47-14.89,5.51-18.8,19.77-19.81,34.27-1.26,18.26-.64,37.27-9.82,53.83-1.03,1.87-1.28,3.71-.98,5.4-.17,4.09,2.3,8.16,7.6,8.16,23.54,0,47.08.28,70.62.88,5.49.14,9.47-4.74,8.43-10.02-3.27-16.7-8.11-32.99-9.97-49.94Z"/>
      <path class="st3" d="M1087.51,1124c-1.34-12.21-2.58-26.39-11.03-36.11-8.42-9.67-23.66-10.68-35.04-6.47-14.89,5.51-18.8,19.77-19.81,34.27-1.26,18.26-.64,37.27-9.82,53.83-1.03,1.87-1.28,3.71-.98,5.4-.17,4.09,2.3,8.16,7.6,8.16,23.54,0,47.08.28,70.62.88,5.49.14,9.47-4.74,8.43-10.02-3.27-16.7-8.11-32.99-9.97-49.94Z"/>
      <path class="st3" d="M1287.11,1124c-1.34-12.21-2.58-26.39-11.03-36.11-8.42-9.67-23.66-10.68-35.04-6.47-14.89,5.51-18.8,19.77-19.81,34.27-1.26,18.26-.64,37.27-9.82,53.83-1.03,1.87-1.28,3.71-.98,5.4-.17,4.09,2.3,8.16,7.6,8.16,23.54,0,47.08.28,70.62.88,5.49.14,9.47-4.74,8.43-10.02-3.27-16.7-8.11-32.99-9.97-49.94Z"/>
      <path class="st3" d="M1486.71,1124c-1.34-12.21-2.58-26.39-11.03-36.11-8.42-9.67-23.66-10.68-35.04-6.47-14.89,5.51-18.8,19.77-19.81,34.27-1.26,18.26-.64,37.27-9.82,53.83-1.03,1.87-1.28,3.71-.98,5.4-.17,4.09,2.3,8.16,7.6,8.16,23.54,0,47.08.28,70.62.88,5.49.14,9.47-4.74,8.43-10.02-3.27-16.7-8.11-32.99-9.97-49.94Z"/>
      <path class="st3" d="M1686.31,1124c-1.34-12.21-2.58-26.39-11.03-36.11-8.42-9.67-23.66-10.68-35.04-6.47-14.89,5.51-18.8,19.77-19.81,34.27-1.26,18.26-.64,37.27-9.82,53.83-1.03,1.87-1.28,3.71-.98,5.4-.17,4.09,2.3,8.16,7.6,8.16,23.54,0,47.08.28,70.62.88,5.49.14,9.47-4.74,8.43-10.02-3.27-16.7-8.11-32.99-9.97-49.94Z"/>
      <path class="st3" d="M1885.91,1124c-1.34-12.21-2.58-26.39-11.03-36.11-8.42-9.67-23.66-10.68-35.04-6.47-14.89,5.51-18.8,19.77-19.81,34.27-1.26,18.26-.64,37.27-9.82,53.83-1.03,1.87-1.28,3.71-.98,5.4-.17,4.09,2.3,8.16,7.6,8.16,23.54,0,47.08.28,70.62.88,5.49.14,9.47-4.74,8.43-10.02-3.27-16.7-8.11-32.99-9.97-49.94Z"/>
    </g>
    <g>
      <g>
        <path class="st1" d="M255.77,1197.07c0,68.57-41.13,110.32-91.86,110.32s-91.86-41.75-91.86-110.32,41.74-138.01,91.86-138.01,91.86,69.43,91.86,138.01Z"/>
        <ellipse class="st2" cx="128.34" cy="1097.7" rx="15.91" ry="10.41" transform="translate(-818.34 527.43) rotate(-52.27)"/>
      </g>
      <g>
        <path class="st1" d="M453.57,1197.07c0,68.57-41.13,110.32-91.86,110.32s-91.86-41.75-91.86-110.32,41.74-138.01,91.86-138.01,91.86,69.43,91.86,138.01Z"/>
        <ellipse class="st2" cx="326.14" cy="1097.7" rx="15.91" ry="10.41" transform="translate(-741.59 683.86) rotate(-52.27)"/>
      </g>
      <g>
        <path class="st1" d="M651.36,1197.07c0,68.57-41.13,110.32-91.86,110.32s-91.86-41.75-91.86-110.32,41.74-138.01,91.86-138.01,91.86,69.43,91.86,138.01Z"/>
        <ellipse class="st2" cx="523.94" cy="1097.7" rx="15.91" ry="10.41" transform="translate(-664.84 840.29) rotate(-52.27)"/>
      </g>
      <g>
        <path class="st1" d="M849.16,1197.07c0,68.57-41.13,110.32-91.86,110.32s-91.86-41.75-91.86-110.32,41.74-138.01,91.86-138.01,91.86,69.43,91.86,138.01Z"/>
        <ellipse class="st2" cx="721.73" cy="1097.7" rx="15.91" ry="10.41" transform="translate(-588.09 996.72) rotate(-52.27)"/>
      </g>
      <g>
        <path class="st1" d="M1046.96,1197.07c0,68.57-41.13,110.32-91.86,110.32s-91.86-41.75-91.86-110.32,41.74-138.01,91.86-138.01,91.86,69.43,91.86,138.01Z"/>
        <ellipse class="st2" cx="919.53" cy="1097.7" rx="15.91" ry="10.41" transform="translate(-511.3439 1153.1562) rotate(-52.267)"/>
      </g>
      <g>
        <path class="st1" d="M1244.76,1197.07c0,68.57-41.13,110.32-91.86,110.32s-91.86-41.75-91.86-110.32,41.74-138.01,91.86-138.01,91.86,69.43,91.86,138.01Z"/>
        <ellipse class="st2" cx="1117.33" cy="1097.7" rx="15.91" ry="10.41" transform="translate(-434.595 1309.5888) rotate(-52.267)"/>
      </g>
      <g>
        <path class="st1" d="M1442.56,1197.07c0,68.57-41.13,110.32-91.86,110.32s-91.86-41.75-91.86-110.32,41.74-138.01,91.86-138.01,91.86,69.43,91.86,138.01Z"/>
        <ellipse class="st2" cx="1315.13" cy="1097.7" rx="15.91" ry="10.41" transform="translate(-357.8461 1466.0213) rotate(-52.267)"/>
      </g>
      <g>
        <path class="st1" d="M1640.35,1197.07c0,68.57-41.13,110.32-91.86,110.32s-91.86-41.75-91.86-110.32,41.74-138.01,91.86-138.01,91.86,69.43,91.86,138.01Z"/>
        <ellipse class="st2" cx="1512.92" cy="1097.7" rx="15.91" ry="10.41" transform="translate(-281.0971 1622.4539) rotate(-52.267)"/>
      </g>
      <g>
        <path class="st1" d="M1838.15,1197.07c0,68.57-41.13,110.32-91.86,110.32s-91.86-41.75-91.86-110.32,41.74-138.01,91.86-138.01,91.86,69.43,91.86,138.01Z"/>
        <ellipse class="st2" cx="1710.72" cy="1097.7" rx="15.91" ry="10.41" transform="translate(-204.3482 1778.8864) rotate(-52.267)"/>
      </g>
      <g>
        <path class="st1" d="M2035.95,1197.07c0,68.57-41.13,110.32-91.86,110.32s-91.86-41.75-91.86-110.32,41.74-138.01,91.86-138.01,91.86,69.43,91.86,138.01Z"/>
        <ellipse class="st2" cx="1908.52" cy="1097.7" rx="15.91" ry="10.41" transform="translate(-127.5993 1935.319) rotate(-52.267)"/>
      </g>
    </g>
  </g>
  <path class="st4" d="M1941.93,1173.68c.66,0,1.19.49,1.19,1.09v133.2c0,.6-.53,1.09-1.19,1.09H164.12c-.66,0-1.19-.49-1.19-1.09v-133.2"/>
  <path class="st3" d="M1944.09,1173.68H61.02l8.71,46.71c8.71,46.71,7.58,88.67,94.18,88.67h0c86.6,0,85.47-41.96,94.18-88.67,2-10.72,3.54-18.97,4.72-25.33,1.19,6.36,2.72,14.62,4.72,25.33,8.71,46.71,7.58,88.67,94.18,88.67h0c86.6,0,85.47-41.96,94.18-88.67,2-10.72,3.54-18.97,4.72-25.33,1.19,6.36,2.72,14.62,4.72,25.33,8.71,46.71,7.58,88.67,94.18,88.67h0c86.6,0,85.47-41.96,94.18-88.67,2-10.72,3.54-18.97,4.72-25.33,1.19,6.36,2.72,14.62,4.72,25.33,8.71,46.71,7.58,88.67,94.18,88.67h0c86.6,0,85.47-41.96,94.18-88.67,2-10.72,3.54-18.97,4.72-25.33,1.19,6.36,2.72,14.62,4.72,25.33,8.71,46.71,7.58,88.67,94.18,88.67h0c86.6,0,85.47-41.96,94.18-88.67,2-10.72,3.54-18.97,4.72-25.33,1.19,6.36,2.72,14.62,4.72,25.33,8.71,46.71,7.58,88.67,94.18,88.67h0c86.6,0,85.47-41.96,94.18-88.67,2-10.72,3.54-18.97,4.72-25.33,1.19,6.36,2.72,14.62,4.72,25.33,8.71,46.71,7.58,88.67,94.18,88.67h0c86.6,0,85.47-41.96,94.18-88.67,2-10.72,3.54-18.97,4.72-25.33,1.19,6.36,2.72,14.62,4.72,25.33,8.71,46.71,7.58,88.67,94.18,88.67h0c86.6,0,85.47-41.96,94.18-88.67,2-10.72,3.54-18.97,4.72-25.33,1.19,6.36,2.72,14.62,4.72,25.33,8.71,46.71,7.58,88.67,94.18,88.67h0c86.6,0,85.47-41.96,94.18-88.67,2-10.72,3.54-18.97,4.72-25.33,1.19,6.36,2.72,14.62,4.72,25.33,8.71,46.71,7.58,88.67,94.18,88.67h0c86.6,0,85.47-41.96,94.18-88.67l8.71-46.71h-102.88Z"/>
  <polygon class="st4" points="2037.92 1222.25 2034.31 1243.17 73.8 1243.82 69.73 1220.39 2037.92 1222.25"/>
  <path class="st3" d="M1867.27,1223.75c1.93,0,1.93-3,0-3s-1.93,3,0,3h0Z"/>
  <path class="st3" d="M2057,1113.96c0,32.98-26.74,59.72-59.72,59.72H116.72c-32.98,0-59.72-26.74-59.72-59.72v-498.62H0v498.62c0,31.18,12.14,60.49,34.19,82.54,22.05,22.05,51.36,34.19,82.54,34.19h1880.55c31.18,0,60.49-12.14,82.54-34.19,22.05-22.05,34.19-51.36,34.19-82.54v-498.62h-57v498.62Z"/>
</svg>