<?xml version="1.0" encoding="UTF-8"?>
<svg id="_레이어_1" data-name="레이어_1" xmlns="http://www.w3.org/2000/svg" version="1.1" viewBox="0 0 2039.15 250">
  <!-- Generator: Adobe Illustrator 30.4.0, SVG Export Plug-In . SVG Version: 2.1.4 Build 226)  -->
  <defs>
    <style>
      .st0 {
        fill: #f0b888;
      }

      .st1 {
        fill: #f9ceae;
      }

      .st2 {
        fill: #f1e4db;
      }

      .st3 {
        fill: #e7d1c5;
      }
    </style>
  </defs>
  <g>
    <path class="st0" d="M218.34,138.01c0,68.57-41.13,110.32-91.86,110.32s-91.86-41.75-91.86-110.32S76.36,0,126.48,0s91.86,69.43,91.86,138.01Z"/>
    <ellipse class="st1" cx="90.92" cy="38.63" rx="15.91" ry="10.41" transform="translate(4.72 86.89) rotate(-52.27)"/>
  </g>
  <g>
    <path class="st0" d="M416.14,138.01c0,68.57-41.13,110.32-91.86,110.32s-91.86-41.75-91.86-110.32S274.16,0,324.28,0s91.86,69.43,91.86,138.01Z"/>
    <ellipse class="st1" cx="288.71" cy="38.63" rx="15.91" ry="10.41" transform="translate(81.47 243.33) rotate(-52.27)"/>
  </g>
  <g>
    <path class="st0" d="M613.94,138.01c0,68.57-41.13,110.32-91.86,110.32s-91.86-41.75-91.86-110.32S471.96,0,522.08,0s91.86,69.43,91.86,138.01Z"/>
    <ellipse class="st1" cx="486.51" cy="38.63" rx="15.91" ry="10.41" transform="translate(158.22 399.76) rotate(-52.27)"/>
  </g>
  <g>
    <path class="st0" d="M811.74,138.01c0,68.57-41.13,110.32-91.86,110.32s-91.86-41.75-91.86-110.32S669.75,0,719.88,0s91.86,69.43,91.86,138.01Z"/>
    <ellipse class="st1" cx="684.31" cy="38.63" rx="15.91" ry="10.41" transform="translate(234.97 556.19) rotate(-52.27)"/>
  </g>
  <g>
    <path class="st0" d="M1009.54,138.01c0,68.57-41.13,110.32-91.86,110.32s-91.86-41.75-91.86-110.32S867.55,0,917.67,0s91.86,69.43,91.86,138.01Z"/>
    <ellipse class="st1" cx="882.11" cy="38.63" rx="15.91" ry="10.41" transform="translate(311.72 712.62) rotate(-52.27)"/>
  </g>
  <g>
    <path class="st0" d="M1207.33,138.01c0,68.57-41.13,110.32-91.86,110.32s-91.86-41.75-91.86-110.32S1065.35,0,1115.47,0s91.86,69.43,91.86,138.01Z"/>
    <ellipse class="st1" cx="1079.91" cy="38.63" rx="15.91" ry="10.41" transform="translate(388.47 869.06) rotate(-52.27)"/>
  </g>
  <g>
    <path class="st0" d="M1405.13,138.01c0,68.57-41.13,110.32-91.86,110.32s-91.86-41.75-91.86-110.32S1263.15,0,1313.27,0s91.86,69.43,91.86,138.01Z"/>
    <ellipse class="st1" cx="1277.7" cy="38.63" rx="15.91" ry="10.41" transform="translate(465.2182 1025.4879) rotate(-52.267)"/>
  </g>
  <g>
    <path class="st0" d="M1602.93,138.01c0,68.57-41.13,110.32-91.86,110.32s-91.86-41.75-91.86-110.32S1460.95,0,1511.07,0s91.86,69.43,91.86,138.01Z"/>
    <ellipse class="st1" cx="1475.5" cy="38.63" rx="15.91" ry="10.41" transform="translate(541.9671 1181.9204) rotate(-52.267)"/>
  </g>
  <g>
    <path class="st0" d="M1800.73,138.01c0,68.57-41.13,110.32-91.86,110.32s-91.86-41.75-91.86-110.32S1658.74,0,1708.86,0s91.86,69.43,91.86,138.01Z"/>
    <ellipse class="st1" cx="1673.3" cy="38.63" rx="15.91" ry="10.41" transform="translate(618.716 1338.353) rotate(-52.267)"/>
  </g>
  <g>
    <path class="st0" d="M1998.52,138.01c0,68.57-41.13,110.32-91.86,110.32s-91.86-41.75-91.86-110.32S1856.54,0,1906.66,0s91.86,69.43,91.86,138.01Z"/>
    <ellipse class="st1" cx="1871.1" cy="38.63" rx="15.91" ry="10.41" transform="translate(695.4649 1494.7855) rotate(-52.267)"/>
  </g>
  <path class="st3" d="M1904.5,114.62c.66,0,1.19.49,1.19,1.09v133.2c0,.6-.53,1.09-1.19,1.09H126.7c-.66,0-1.19-.49-1.19-1.09V115.71"/>
  <path class="st2" d="M2034.05,124.81H5.1c-2.82,0-5.1-2.28-5.1-5.1h0c0-2.82,2.28-5.1,5.1-5.1h2028.95c2.82,0,5.1,2.28,5.1,5.1h0c0,2.82-2.28,5.1-5.1,5.1Z"/>
  <path class="st2" d="M126.48,114.62H23.6l8.71,46.71c8.71,46.71,7.58,88.67,94.18,88.67h0c86.6,0,85.47-41.96,94.18-88.67l8.71-46.71h-102.88Z"/>
  <path class="st2" d="M324.28,114.62h-102.88l8.71,46.71c8.71,46.71,7.58,88.67,94.18,88.67h0c86.6,0,85.47-41.96,94.18-88.67l8.71-46.71h-102.88Z"/>
  <path class="st2" d="M522.08,114.62h-102.88l8.71,46.71c8.71,46.71,7.58,88.67,94.18,88.67h0c86.6,0,85.47-41.96,94.18-88.67l8.71-46.71h-102.88Z"/>
  <path class="st2" d="M719.88,114.62h-102.88l8.71,46.71c8.71,46.71,7.58,88.67,94.18,88.67h0c86.6,0,85.47-41.96,94.18-88.67l8.71-46.71h-102.88Z"/>
  <path class="st2" d="M917.67,114.62h-102.88l8.71,46.71c8.71,46.71,7.58,88.67,94.18,88.67h0c86.6,0,85.47-41.96,94.18-88.67l8.71-46.71h-102.88Z"/>
  <path class="st2" d="M1115.47,114.62h-102.88l8.71,46.71c8.71,46.71,7.58,88.67,94.18,88.67h0c86.6,0,85.47-41.96,94.18-88.67l8.71-46.71h-102.88Z"/>
  <path class="st2" d="M1313.27,114.62h-102.88l8.71,46.71c8.71,46.71,7.58,88.67,94.18,88.67h0c86.6,0,85.47-41.96,94.18-88.67l8.71-46.71h-102.88Z"/>
  <path class="st2" d="M1511.07,114.62h-102.88l8.71,46.71c8.71,46.71,7.58,88.67,94.18,88.67h0c86.6,0,85.47-41.96,94.18-88.67l8.71-46.71h-102.88Z"/>
  <path class="st2" d="M1708.86,114.62h-102.88l8.71,46.71c8.71,46.71,7.58,88.67,94.18,88.67h0c86.6,0,85.47-41.96,94.18-88.67l8.71-46.71h-102.88Z"/>
  <path class="st2" d="M1906.66,114.62h-102.88l8.71,46.71c8.71,46.71,7.58,88.67,94.18,88.67h0c86.6,0,85.47-41.96,94.18-88.67l8.71-46.71h-102.88Z"/>
  <polygon class="st3" points="2007.65 124.81 2005.75 135.01 27.4 135.01 25.5 124.81 2007.65 124.81"/>
  <path class="st2" d="M1829.85,164.68c1.93,0,1.93-3,0-3s-1.93,3,0,3h0Z"/>
</svg>