<?xml version="1.0" encoding="UTF-8"?>
<svg id="_레이어_1" data-name="레이어_1" xmlns="http://www.w3.org/2000/svg" version="1.1" viewBox="0 0 184.96 250">
  <!-- Generator: Adobe Illustrator 30.4.0, SVG Export Plug-In . SVG Version: 2.1.4 Build 226)  -->
  <defs>
    <style>
      .st0 {
        fill: #9e9f9f;
      }

      .st1 {
        fill: #fff;
      }
    </style>
  </defs>
  <path class="st1" d="M184.96,138.93c0,69.04-41.4,111.07-92.48,111.07S0,207.97,0,138.93,42.02,0,92.48,0s92.48,69.9,92.48,138.93Z"/>
  <path class="st0" d="M77.12,2.23c-.14,0-.28.02-.42.06,0,0,0,0,0,0,0,0,0,0,0,0-.02,0-.04.01-.06.02,0,0-.01,0-.02,0,0,0-.01,0-.02,0-.01,0-.02,0-.04.01,0,0-.02,0-.02,0,0,0-.02,0-.03,0,0,0-.02,0-.02,0-.2.06-.41.12-.61.18,0,0,0,0,0,0-.01,0-.02,0-.03.01,0,0,0,0,0,0-.05.01-.09.03-.14.04,0,0,0,0,0,0-.01,0-.02,0-.03,0,0,0,0,0,0,0-.01,0-.02,0-.03,0,0,0,0,0,0,0-.02,0-.05.01-.07.02,0,0,0,0,0,0-.01,0-.02,0-.03.01,0,0,0,0,0,0-.01,0-.02,0-.03,0,0,0,0,0,0,0,0,0-.02,0-.03,0,0,0,0,0,0,0,0,0-.02,0-.03,0h0s-.02,0-.03.01c0,0,0,0,0,0-.01,0-.02,0-.03,0,0,0,0,0-.01,0,0,0-.02,0-.02,0,0,0,0,0-.01,0,0,0-.02,0-.02,0,0,0,0,0-.01,0,0,0-.02,0-.02,0,0,0,0,0-.01,0,0,0-.02,0-.03,0,0,0,0,0-.01,0,0,0-.02,0-.03,0,0,0,0,0-.01,0,0,0-.01,0-.02,0,0,0-.01,0-.02,0,0,0-.01,0-.02,0,0,0-.01,0-.02,0,0,0-.01,0-.02,0,0,0,0,0-.01,0,0,0-.01,0-.02,0,0,0,0,0-.01,0-.01,0-.02,0-.03,0,0,0-.01,0-.02,0,0,0-.01,0-.02,0,0,0-.01,0-.02,0,0,0-.01,0-.02,0,0,0-.01,0-.02,0,0,0-.01,0-.02,0,0,0-.01,0-.02,0,0,0-.01,0-.02,0,0,0-.01,0-.02,0-.01,0-.02,0-.03,0,0,0,0,0-.01,0,0,0-.01,0-.02,0,0,0-.01,0-.02,0,0,0-.01,0-.02,0,0,0-.01,0-.02,0,0,0,0,0-.01,0s-.01,0-.02,0c0,0,0,0-.02,0,0,0-.01,0-.02,0,0,0,0,0-.02,0-.01,0-.02,0-.03.01,0,0-.01,0-.01,0,0,0-.01,0-.02,0,0,0,0,0-.02,0,0,0-.01,0-.02,0,0,0,0,0-.01,0,0,0-.01,0-.02,0,0,0,0,0-.01,0,0,0-.01,0-.02,0,0,0-.01,0-.01,0,0,0-.02,0-.03,0,0,0-.01,0-.02,0,0,0-.01,0-.02,0,0,0-.01,0-.02,0,0,0-.01,0-.02,0,0,0,0,0-.02,0,0,0-.01,0-.02,0,0,0-.01,0-.02,0,0,0-.01,0-.02,0,0,0-.01,0-.01,0-.02,0-.04.02-.07.02,0,0-.01,0-.01,0,0,0-.01,0-.02,0,0,0,0,0-.01,0,0,0-.01,0-.02,0,0,0,0,0-.02,0,0,0-.01,0-.02,0s-.01,0-.02,0c0,0-.01,0-.02,0,0,0-.01,0-.02,0,0,0-.02,0-.03.01,0,0-.01,0-.01,0,0,0-.01,0-.02,0,0,0,0,0-.01,0,0,0-.01,0-.02,0,0,0,0,0-.01,0,0,0-.01,0-.02,0,0,0-.01,0-.01,0,0,0-.01,0-.02,0,0,0-.01,0-.02,0,0,0-.02,0-.03,0,0,0-.01,0-.02,0,0,0-.01,0-.02,0,0,0-.01,0-.02,0,0,0-.01,0-.02,0,0,0,0,0-.02,0,0,0-.01,0-.02,0,0,0-.01,0-.02,0,0,0-.01,0-.02,0,0,0-.01,0-.02,0,0,0-.02,0-.02,0,0,0-.01,0-.02,0,0,0,0,0-.01,0,0,0-.01,0-.02,0,0,0,0,0-.01,0,0,0-.01,0-.02,0,0,0,0,0-.01,0,0,0-.01,0-.02,0,0,0,0,0-.01,0,0,0-.01,0-.02,0,0,0,0,0-.01,0-.01,0-.02,0-.03.01,0,0,0,0,0,0,0,0-.01,0-.02,0,0,0,0,0-.01,0,0,0-.01,0-.02,0,0,0,0,0-.01,0,0,0-.01,0-.02,0,0,0,0,0-.01,0,0,0-.02,0-.02,0,0,0,0,0-.01,0-.01,0-.02,0-.03.01,0,0,0,0,0,0-.01,0-.02,0-.03.01,0,0,0,0-.01,0,0,0-.01,0-.02,0,0,0,0,0-.01,0,0,0-.02,0-.02,0,0,0,0,0-.01,0,0,0-.02,0-.02,0,0,0,0,0-.01,0-.01,0-.02,0-.03.01,0,0,0,0,0,0-.01,0-.02,0-.03.01,0,0,0,0,0,0-.01,0-.02,0-.03.01,0,0,0,0,0,0,0,0-.02,0-.02,0,0,0,0,0,0,0,0,0-.02,0-.02,0,0,0,0,0,0,0-.01,0-.02,0-.03.01,0,0,0,0,0,0-.02,0-.04.02-.07.02,0,0,0,0,0,0-.01,0-.01,0-.03,0,0,0,0,0,0,0,0,0-.02,0-.03,0,0,0,0,0,0,0-.01,0-.02,0-.03.01,0,0,0,0,0,0-.02,0-.05.02-.07.03,0,0,0,0,0,0-.01,0-.02,0-.03.01,0,0,0,0,0,0-.01,0-.02,0-.03.01,0,0,0,0,0,0-.01,0-.02,0-.03.01,0,0,0,0,0,0-.03.01-.07.03-.1.04,0,0,0,0,0,0-.01,0-.02,0-.03.01,0,0,0,0,0,0-.01,0-.02,0-.03.01,0,0,0,0,0,0-.03.01-.07.03-.1.04,0,0,0,0,0,0-.01,0-.02,0-.03.01,0,0,0,0,0,0-.01,0-.02,0-.03.01,0,0,0,0,0,0-.05.02-.09.03-.14.05,0,0,0,0,0,0-.01,0-.02,0-.03.01,0,0,0,0,0,0-.12.04-.23.09-.35.13,0,0,0,0,0,0-.56.21-1.11.44-1.66.67,0,0,0,0,0,0-.05.02-.09.04-.14.06,0,0,0,0,0,0-.01,0-.02,0-.03.01,0,0,0,0,0,0-.01,0-.02,0-.03.01,0,0,0,0,0,0-.03.01-.07.03-.1.04,0,0,0,0,0,0-.01,0-.02,0-.03.01,0,0,0,0,0,0-.01,0-.01,0-.03.01,0,0,0,0,0,0,0,0-.02,0-.03.01,0,0,0,0,0,0-.02,0-.04.02-.06.03,0,0,0,0,0,0,0,0-.02,0-.02,0,0,0,0,0-.01,0,0,0-.01,0-.02,0,0,0,0,0-.01,0,0,0-.01,0-.02,0,0,0,0,0-.01,0,0,0-.01,0-.02,0,0,0,0,0,0,0-.01,0-.02,0-.03.01,0,0,0,0-.01,0,0,0-.01,0-.02,0,0,0,0,0-.01,0,0,0-.01,0-.02,0,0,0-.01,0-.02,0,0,0,0,0-.02,0,0,0-.01,0-.02,0,0,0,0,0-.02,0,0,0-.01,0-.02,0,0,0,0,0-.01,0-.01,0-.02.01-.04.02,0,0,0,0-.01,0,0,0-.01,0-.02,0,0,0,0,0-.01,0,0,0-.01,0-.02,0,0,0,0,0-.01,0,0,0-.01,0-.02,0,0,0,0,0,0,0,0,0-.01,0-.02,0h0s-.06.02-.08.04c0,0,0,0,0,0,0,0-.02,0-.02.01h0s-.02,0-.03.01c0,0,0,0,0,0,0,0-.02,0-.03.01-.76.33-1.1,1.22-.77,1.98.25.56.8.9,1.37.9.2,0,.41-.04.6-.13,2.36-1.04,4.76-1.92,7.15-2.62,0,0,.02,0,.03,0,0,0,.02,0,.02,0h.05s.02-.02.02-.02c0,0,.02,0,.03,0h.05c.8-.25,1.25-1.08,1.02-1.88-.19-.65-.79-1.08-1.44-1.08h0ZM62.62,8.54c-.26,0-.52.07-.75.2,0,0,0,0,0,0h0s-.03.02-.05.03c0,0-.01,0-.02.01,0,0-.02,0-.02.01-.01,0-.03.02-.04.03,0,0,0,0,0,0,0,0-.01,0-.02.01,0,0-.01,0-.02,0-1.61.94-3.2,1.96-4.77,3.04h0s-.06.04-.1.07c0,0,0,0,0,0-.01,0-.02.01-.03.02,0,0,0,0,0,0-.01,0-.02.01-.03.02,0,0,0,0,0,0-.01,0-.02.01-.03.02,0,0,0,0,0,0-.01,0-.02.01-.03.02,0,0,0,0,0,0-.01,0-.02.01-.03.02,0,0,0,0,0,0-.01,0-.02.01-.03.02,0,0,0,0,0,0-.01,0-.02.01-.03.02,0,0,0,0,0,0-.01,0-.02.01-.03.02,0,0,0,0,0,0,0,0-.02.01-.02.02,0,0,0,0,0,0,0,0-.01,0-.02.02,0,0,0,0,0,0-.01,0-.02.01-.03.02,0,0,0,0,0,0,0,0-.02.01-.02.01,0,0,0,0-.01,0,0,0-.01,0-.02.01,0,0,0,0-.01,0,0,0-.01,0-.02.01,0,0,0,0-.01,0-.01,0-.02.01-.03.02,0,0,0,0-.01,0,0,0-.01,0-.02.01,0,0-.01,0-.02.01,0,0,0,0-.01,0,0,0-.01,0-.02.01,0,0,0,0-.01,0-.02.01-.04.03-.06.04,0,0,0,0-.01,0,0,0-.01,0-.02.01,0,0,0,0,0,0,0,0-.01,0-.02.01,0,0,0,0,0,0-.02.02-.04.03-.07.05,0,0,0,0,0,0,0,0-.01,0-.02.01,0,0,0,0,0,0-.34.24-.68.49-1.02.74-.67.49-.82,1.43-.33,2.1.29.4.75.62,1.21.62.31,0,.62-.09.88-.29,2.11-1.54,4.27-2.96,6.43-4.23,0,0,.02,0,.02-.01,0,0,.02,0,.02-.01l.05-.03s.01,0,.02-.01c0,0,.02,0,.02-.01l.05-.03c.72-.42.96-1.34.54-2.05-.28-.48-.78-.74-1.3-.74h0ZM49.74,17.88c-.35,0-.7.12-.98.37-.02.02-.03.03-.05.05,0,0-.01,0-.02.01,0,0-.01,0-.02.01,0,0-.02.02-.03.02,0,0-.01.01-.02.02,0,0-.01.01-.02.02,0,0-.01.01-.02.02-1.67,1.46-3.3,3-4.9,4.62h0s-.06.06-.09.09h0s-.01.01-.02.02h0s-.04.04-.06.06c0,0,0,0,0,0,0,0-.01.01-.02.02,0,0,0,0,0,0,0,0-.01.01-.02.02h0s-.02.03-.04.04c0,0,0,0,0,0,0,0-.01.01-.02.02,0,0,0,0,0,0-.02.02-.04.04-.06.06,0,0,0,0-.01.01,0,0,0,0-.01.01,0,0,0,0-.01.01,0,0,0,0-.01.01,0,0-.01.01-.01.01,0,0-.01.01-.02.02,0,0-.01.01-.01.02,0,0,0,0-.01.01,0,0,0,0-.01.01,0,0,0,0-.01.01,0,0-.01.01-.02.02,0,0,0,0-.01.01,0,0-.01.01-.02.02,0,0,0,0-.01.01,0,0-.01.01-.02.02,0,0,0,0,0,0,0,.01-.01.01-.02.02,0,0,0,0,0,0,0,.01-.02.02-.03.03,0,0,0,0,0,0,0,0-.01.01-.02.02,0,0,0,0,0,0,0,0-.02.02-.02.03,0,0,0,0,0,0,0,.01-.02.02-.03.03,0,0,0,0,0,0,0,0-.02.02-.02.02,0,0,0,0,0,0,0,.01-.01.01-.02.02,0,0,0,0,0,0,0,.01-.02.02-.03.03,0,0,0,0,0,0,0,.01-.02.02-.03.03,0,0,0,0,0,0-.02.02-.04.04-.05.05-.58.59-.56,1.54.03,2.12.29.28.67.42,1.05.42s.78-.15,1.08-.45c1.83-1.89,3.72-3.69,5.62-5.36,0,0,.01-.01.02-.02,0,0,.01-.01.02-.02l.04-.04s.01-.01.02-.02c0,0,.01-.01.02-.02l.04-.04c.62-.55.69-1.49.14-2.12-.3-.34-.71-.51-1.13-.51h0ZM38.57,29.31c-.42,0-.85.18-1.14.53-.01.02-.03.03-.04.05,0,0-.01.01-.02.02,0,0-.01.01-.02.02,0,.01-.02.02-.03.03,0,0,0,.01-.01.02,0,0,0,.01-.01.02,0,0,0,.01-.01.02-.41.48-.8.96-1.21,1.46,0,0,0,0,0,0-.03.03-.05.06-.08.09h0s-.02.02-.02.04c0,0,0,0,0,0-.01.02-.03.04-.04.05,0,0,0,0,0,.01,0,0-.01.02-.02.03,0,0,0,.01-.01.02,0,.01-.02.02-.03.04,0,0-.01.02-.02.02,0,0,0,.01-.02.02,0,0-.01.01-.02.02,0,0,0,.01-.02.02-.01.01-.02.03-.03.04,0,0,0,0-.01.02,0,0-.01.02-.02.03,0,0,0,.01-.01.02-.01.01-.02.03-.03.04h0s-.02.03-.03.05c0,0,0,0,0,.01-.01.01-.02.03-.03.04,0,0,0,0,0,0-.01.01-.02.03-.04.04,0,0,0,0,0,0-.01.01-.02.03-.03.04,0,0,0,0,0,0-.01.02-.02.03-.04.05,0,0,0,0,0,0-.01.01-.02.03-.04.04,0,0,0,0,0,0-.02.03-.05.06-.07.09,0,0,0,0,0,0-1.02,1.28-2.03,2.59-3.02,3.93-.49.67-.35,1.61.32,2.1.27.2.58.29.89.29.46,0,.91-.21,1.21-.61,1.56-2.12,3.19-4.18,4.83-6.13,0,0,.01-.01.02-.02,0,0,.01-.01.02-.02l.03-.04s.01-.01.02-.02c0,0,.01-.01.02-.02l.03-.04c.53-.63.45-1.58-.18-2.11-.28-.24-.62-.35-.97-.35h0ZM29.04,42.19c-.49,0-.97.24-1.25.67,0,0-.01.02-.02.03,0,0,0,.01-.01.02,0,0,0,0-.01.02,0,0,0,.01-.01.02,0,0-.01.02-.02.02-.01.02-.02.03-.03.05,0,0,0,.01-.01.02,0,0,0,.01-.01.02-.7,1.07-1.38,2.16-2.06,3.26h0s-.04.07-.06.1c0,0,0,0,0,0,0,.01-.02.03-.03.04h0s-.02.04-.03.06c0,0,0,0,0,0,0,.02-.02.03-.03.05,0,0,0,0,0,0,0,.01-.02.03-.03.04,0,0,0,0,0,0-.01.02-.02.03-.03.05,0,0,0,0,0,0,0,.01-.02.03-.02.04,0,0,0,0,0,.02,0,.01-.02.03-.02.04,0,0,0,0,0,.01,0,.01-.02.03-.03.04,0,0,0,.01-.01.02,0,0-.01.02-.02.03,0,0,0,.01-.01.02,0,.01-.01.02-.02.04,0,0-.01.02-.01.02,0,.01-.01.02-.02.03,0,0,0,.01-.01.02,0,0,0,.02-.01.02,0,0,0,.01-.01.02,0,.01-.01.02-.02.04,0,0-.01.02-.02.03,0,0-.01.02-.01.02,0,0-.01.02-.02.03,0,0,0,.01-.01.02-.02.03-.04.06-.06.09,0,0,0,.01-.01.02,0,0-.01.02-.02.03,0,0,0,0,0,.01-.01.02-.02.04-.04.06,0,0,0,0,0,0,0,0-.01.02-.02.03,0,0,0,0,0,.02,0,0-.01.02-.02.03,0,0,0,0,0,0-.02.03-.03.05-.04.07h0s-.01.03-.02.04c0,0,0,0,0,.01-.02.04-.05.08-.07.11h0s-.01.02-.02.04c0,0,0,0,0,0-.42.7-.82,1.39-1.23,2.1-.41.72-.16,1.63.55,2.04.24.14.49.2.75.2.52,0,1.02-.27,1.3-.75,1.31-2.28,2.69-4.53,4.09-6.69,0,0,0-.01.01-.02,0,0,.01-.02.02-.02l.03-.05s0-.02.01-.02c0,0,0-.01.01-.02l.03-.05c.45-.69.26-1.62-.44-2.08-.25-.16-.54-.24-.82-.24h0ZM21,56.09c-.54,0-1.07.3-1.33.81,0,.02-.02.04-.03.06,0,0,0,0,0,0,0,0,0,.02-.01.02,0,0,0,.02-.01.02,0,.01-.01.03-.02.04,0,0,0,.01,0,.01,0,0,0,.01,0,.02,0,0,0,.01-.01.02-.48.95-.96,1.9-1.43,2.87,0,0,0,0,0,0-.02.04-.04.08-.06.12,0,0,0,0,0,0,0,.01-.01.02-.02.03,0,0,0,.01,0,.02,0,.01,0,.02-.01.03,0,0,0,0,0,.01,0,.02-.02.04-.03.06,0,0,0,.01,0,.02,0,.01,0,.01-.01.02,0,0,0,.02-.01.03,0,0,0,.02-.01.02,0,.01-.01.02-.02.03,0,0,0,.01,0,.02,0,.02-.02.03-.02.05,0,0,0,.01,0,.02,0,.01-.01.02-.02.04,0,0,0,0,0,.02,0,.01-.01.03-.02.04,0,0,0,0,0,.01,0,.02-.02.03-.02.05,0,0,0,0,0,0,0,.01-.01.03-.02.04,0,0,0,0,0,.01,0,.01-.01.03-.02.04h0s-.03.08-.05.12h0c-.55,1.15-1.09,2.31-1.61,3.47-.34.76,0,1.64.75,1.98.2.09.41.13.62.13.57,0,1.12-.33,1.37-.88,1.08-2.4,2.22-4.78,3.4-7.08,0,0,0-.02.01-.02,0,0,0-.02.01-.02l.02-.05s0-.02.01-.02c0,0,0-.02.01-.02l.02-.05c.38-.74.08-1.64-.65-2.02-.22-.11-.45-.16-.68-.16h0ZM14.38,70.73c-.6,0-1.16.36-1.39.95,0,.02-.01.03-.02.05h0s0,.02,0,.03c0,0,0,.02-.01.03,0,0,0,0,0,.01,0,.02-.01.03-.02.05,0,0,0,.01,0,.02,0,0,0,.02,0,.02-.98,2.47-1.9,4.97-2.78,7.51-.27.78.15,1.63.93,1.9.16.06.33.08.49.08.62,0,1.2-.39,1.42-1.01.86-2.48,1.77-4.96,2.73-7.38,0,0,0-.02.01-.03,0,0,0-.02,0-.02l.02-.05s0-.02,0-.03c0,0,0-.02.01-.02l.02-.05c.31-.77-.07-1.64-.84-1.95-.18-.07-.37-.11-.55-.11h0ZM9.11,85.93c-.64,0-1.24.42-1.43,1.07,0,0,0,.01,0,.02,0,.01,0,.02,0,.03,0,0,0,0,0,.01,0,0,0,.02,0,.02,0,0,0,.02,0,.03,0,0,0,0,0,0,0,.02-.01.04-.02.06,0,0,0,.01,0,.02,0,0,0,.01,0,.02-.12.41-.24.82-.36,1.23,0,0,0,0,0,0,0,.02,0,.03-.01.05,0,0,0,0,0,0-.01.04-.03.09-.04.13,0,0,0,0,0,.01,0,.01,0,.03-.01.04,0,0,0,.01,0,.02,0,.01,0,.02-.01.04,0,0,0,0,0,.01,0,.02-.01.04-.02.06,0,0,0,.02,0,.02,0,.01,0,.02,0,.03,0,0,0,.02,0,.03,0,0,0,.02,0,.03,0,0,0,.02,0,.03,0,.01,0,.01,0,.03,0,.01,0,.02-.01.04,0,0,0,.02,0,.03,0,.01,0,.03-.01.04,0,0,0,.02,0,.02,0,.01,0,.02,0,.03,0,0,0,.02,0,.02,0,.01,0,.02-.01.04,0,0,0,.01,0,.02-.01.04-.02.07-.03.11,0,0,0,0,0,.01,0,.01,0,.03-.01.04,0,0,0,0,0,.02,0,.02,0,.03-.01.05h0s-.02.08-.03.12c0,0,0,0,0,0,0,.02,0,.03-.01.05,0,0,0,0,0,0-.02.06-.03.12-.05.17,0,0,0,0,0,0,0,.02,0,.03-.01.05,0,0,0,0,0,0-.02.06-.03.12-.05.17,0,0,0,0,0,0,0,.02,0,.03-.01.05,0,0,0,0,0,.01-.02.06-.03.12-.05.17,0,0,0,0,0,0,0,.02,0,.04-.01.05,0,0,0,0,0,0-.02.06-.03.12-.05.17,0,0,0,0,0,0,0,.02,0,.03-.01.05,0,0,0,0,0,0-.01.04-.02.08-.03.12h0s0,.04-.01.06c0,0,0,0,0,.01,0,.01,0,.03-.01.05,0,0,0,.01,0,.01,0,.02,0,.04-.01.05h0s-.01.04-.02.06c0,0,0,0,0,.01,0,.01,0,.03-.01.04,0,0,0,0,0,.02,0,.01,0,.03-.01.04,0,0,0,.01,0,.02,0,.02,0,.03-.01.05h0s-.01.04-.02.06c0,0,0,.01,0,.02,0,.01,0,.03-.01.04,0,0,0,.01,0,.02,0,.01,0,.02,0,.04,0,0,0,.01,0,.02,0,.02,0,.03-.01.05h0s0,.04-.01.06c0,0,0,.02,0,.02,0,.01,0,.02,0,.03,0,0,0,.02,0,.03,0,0,0,.02,0,.03,0,.01,0,.02,0,.03,0,0,0,.02,0,.03,0,.02,0,.04-.01.05,0,0,0,.01,0,.02,0,.01,0,.02,0,.03,0,0,0,.01,0,.02,0,0,0,.03,0,.03,0,0,0,.01,0,.02-.01.04-.02.09-.04.13,0,0,0,0,0,0,0,.01,0,.03-.01.04,0,0,0,0,0,.01,0,.02,0,.03-.01.04,0,0,0,0,0,0-.02.06-.03.12-.05.19,0,0,0,0,0,0-.24.92-.48,1.84-.71,2.76-.2.8.29,1.61,1.09,1.81.12.03.24.05.37.05.67,0,1.28-.45,1.45-1.14.63-2.54,1.33-5.09,2.07-7.59,0,0,0-.02,0-.03,0,0,0-.02,0-.03l.02-.05s0-.02,0-.03c0,0,0-.02,0-.03l.02-.05c.24-.79-.22-1.63-1.01-1.87-.14-.04-.29-.06-.43-.06h0ZM5.2,101.53c-.7,0-1.32.49-1.47,1.19,0,0,0,.02,0,.03,0,0,0,0,0,.01,0,0,0,.02,0,.03,0,0,0,.01,0,.02,0,0,0,.01,0,.02,0,0,0,.02,0,.03,0,.01,0,.02,0,.03,0,0,0,.02,0,.03,0,0,0,.02,0,.03-.07.35-.14.69-.21,1.04,0,0,0,0,0,0,0,.02,0,.04-.01.05,0,0,0,0,0,0,0,.02,0,.04-.01.05,0,0,0,0,0,0,0,.02,0,.04-.01.06,0,0,0,.01,0,.02,0,.01,0,.02,0,.04,0,0,0,.02,0,.03,0,0,0,.02,0,.03,0,.01,0,.02,0,.03,0,0,0,.01,0,.02-.01.06-.02.12-.04.18,0,0,0,0,0,0-.41,2.1-.78,4.2-1.12,6.31-.13.82.43,1.58,1.25,1.71.08.01.16.02.24.02.72,0,1.36-.53,1.48-1.26.41-2.58.88-5.18,1.41-7.74,0,0,0-.02,0-.03,0,0,0-.02,0-.03v-.05s.01-.02.02-.03c0,0,0-.02,0-.03v-.05c.18-.81-.35-1.6-1.16-1.77-.1-.02-.2-.03-.3-.03h0ZM2.66,117.41c-.75,0-1.4.56-1.49,1.33,0,0,0,0,0,0,0,.02,0,.03,0,.05,0,0,0,.02,0,.03,0,0,0,.02,0,.03,0,0,0,.01,0,.02,0,.01,0,.03,0,.04,0,0,0,.01,0,.02,0,0,0,.01,0,.02-.11,1-.22,2.01-.32,3.01,0,0,0,0,0,0,0,.07-.01.13-.02.2,0,0,0,0,0,0,0,.02,0,.03,0,.05,0,0,0,0,0,0,0,.08-.02.16-.02.25,0,0,0,0,0,0,0,.08-.02.16-.02.25,0,0,0,0,0,0,0,.02,0,.03,0,.05,0,0,0,0,0,0,0,.07-.01.13-.02.2,0,0,0,0,0,0-.12,1.32-.23,2.64-.32,3.96-.05.82.57,1.54,1.39,1.59.04,0,.07,0,.1,0,.78,0,1.44-.61,1.49-1.4.18-2.59.42-5.23.72-7.83,0,0,0-.02,0-.03,0,0,0-.02,0-.03v-.05s0-.02,0-.03c0,0,0-.02,0-.03v-.05c.1-.82-.49-1.57-1.31-1.66-.06,0-.12,0-.17,0h0ZM1.55,133.45c-.81,0-1.48.64-1.5,1.46,0,.02,0,.05,0,.07,0,0,0,.01,0,.02,0,0,0,.01,0,.02,0,0,0,.01,0,.02,0,.01,0,.02,0,.03h0s0,.03,0,.04c0,0,0,.02,0,.02-.02.75-.03,1.49-.04,2.23H0s0,.03,0,.05H0c0,.09,0,.17,0,.25,0,0,0,0,0,0,0,.01,0,.03,0,.04,0,0,0,0,0,.01,0,.02,0,.02,0,.04,0,0,0,0,0,.01,0,.01,0,.03,0,.04,0,0,0,0,0,0,0,.05,0,.09,0,.14,0,0,0,0,0,0,0,.01,0,.03,0,.04,0,0,0,.01,0,.02,0,.01,0,.02,0,.04,0,0,0,.01,0,.02,0,0,0,.02,0,.03,0,0,0,.02,0,.02,0,.01,0,.02,0,.03,0,0,0,.01,0,.02,0,.03,0,.04,0,.07,0,0,0,.01,0,.02,0,0,0,.02,0,.03,0,0,0,.02,0,.03,0,.01,0,.01,0,.03,0,0,0,.02,0,.03,0,0,0,.02,0,.03,0,0,0,.02,0,.03,0,0,0,.02,0,.03,0,.01,0,.02,0,.03,0,0,0,.01,0,.02,0,.01,0,.03,0,.04,0,0,0,.01,0,.02,0,.02,0,.04,0,.05,0,0,0,.01,0,.02,0,.01,0,.02,0,.03,0,0,0,.02,0,.02,0,.01,0,.02,0,.03,0,0,0,.01,0,.02,0,.01,0,.02,0,.04v.02s0,.02,0,.04v.07H0v.08s0,.03,0,.04c0,0,0,.02,0,.02,0,.02,0,.03,0,.05H0s0,.05,0,.07c0,0,0,.01,0,.02,0,.01,0,.03,0,.04,0,0,0,.01,0,.02v.04s0,0,0,.02c0,.02,0,.04,0,.06,0,0,0,.01,0,.02,0,.01,0,.02,0,.04,0,0,0,.02,0,.03,0,.01,0,.02,0,.03,0,0,0,.02,0,.02,0,.02,0,.04,0,.05,0,0,0,.02,0,.03,0,.01,0,.02,0,.03,0,0,0,.02,0,.03,0,.01,0,.02,0,.03,0,.01,0,.02,0,.03,0,.01,0,.02,0,.04,0,.01,0,.03,0,.05,0,0,0,.02,0,.03,0,.01,0,.02,0,.03,0,0,0,.02,0,.02,0,.01,0,.02,0,.03,0,0,0,.01,0,.02,0,.03,0,.05,0,.07,0,0,0,0,0,.01,0,.01,0,.02,0,.04,0,0,0,.01,0,.02,0,.01,0,.02,0,.04,0,0,0,.01,0,.02,0,.04,0,.09,0,.13,0,0,0,0,0,.01,0,.02,0,.02,0,.04,0,0,0,0,0,.02,0,.05,0,.09,0,.14,0,0,0,0,0,0,0,.02,0,.03,0,.04,0,0,0,0,0,.01,0,.05,0,.1,0,.14H0s0,.03,0,.05c0,0,0,0,0,0,0,.07,0,.13,0,.19,0,0,0,0,0,0,0,.07,0,.13,0,.19,0,0,0,0,0,0,0,.07,0,.13,0,.19,0,0,0,0,0,0,0,.02,0,.03,0,.04,0,0,0,0,0,0,0,.05,0,.09,0,.14,0,0,0,0,0,0,0,.02,0,.03,0,.04,0,0,0,0,0,.01,0,.01,0,.03,0,.04,0,0,0,0,0,0,0,.03,0,.05,0,.08,0,0,0,.01,0,.02,0,.01,0,.02,0,.03,0,0,0,.02,0,.03,0,.01,0,.02,0,.03,0,.01,0,.02,0,.03,0,.01,0,.03,0,.04,0,.01,0,.03,0,.04,0,0,0,.01,0,.02,0,.01,0,.03,0,.04,0,0,0,.01,0,.02,0,.02,0,.03,0,.05,0,0,0,0,0,.01,0,.02,0,.04,0,.06h0s0,.04,0,.06h0c0,.31.01.61.02.92.02.82.69,1.46,1.5,1.46.01,0,.03,0,.04,0,.83-.02,1.48-.71,1.46-1.54-.03-1.36-.05-2.75-.05-4.13,0-1.23.01-2.49.04-3.73,0,0,0-.02,0-.03,0,0,0-.02,0-.03v-.05s0-.02,0-.03c0,0,0-.02,0-.03v-.05c.02-.83-.64-1.52-1.46-1.53-.01,0-.02,0-.04,0h0ZM1.94,149.52s-.07,0-.11,0c-.83.06-1.45.78-1.38,1.61,0,.01,0,.02,0,.03,0,0,0,.02,0,.03,0,0,0,.01,0,.02,0,0,0,.01,0,.02,0,0,0,.02,0,.03,0,0,0,.02,0,.03,0,0,0,.02,0,.03,0,0,0,.02,0,.03.03.38.06.76.09,1.14h0s0,.04,0,.06c0,0,0,0,0,0,0,.04,0,.08.01.12,0,0,0,0,0,.01,0,.02,0,.03,0,.05,0,0,0,0,0,.02,0,.02,0,.03,0,.05,0,0,0,0,0,.01,0,.02,0,.04,0,.05,0,0,0,.01,0,.02,0,.01,0,.02,0,.03,0,0,0,.02,0,.03,0,0,0,.02,0,.03,0,.01,0,.02,0,.03,0,0,0,.01,0,.02,0,.02,0,.04,0,.06,0,0,0,.01,0,.02,0,.02,0,.02,0,.04,0,0,0,0,0,.01,0,.06.01.12.02.18h0c.18,2.02.4,4.02.65,5.98.1.75.74,1.3,1.49,1.3.06,0,.13,0,.19-.01.82-.11,1.4-.86,1.3-1.68-.33-2.56-.6-5.18-.8-7.8,0,0,0-.02,0-.03,0,0,0-.02,0-.03v-.05s0-.02,0-.03c0,0,0-.02,0-.03v-.05c-.06-.79-.72-1.39-1.5-1.39h0ZM3.99,165.44c-.09,0-.18,0-.28.03-.81.15-1.35.93-1.2,1.75,0,.02,0,.03,0,.05h0s0,.02,0,.03c0,0,0,.02,0,.03,0,0,0,0,0,0,0,.02,0,.04.01.06,0,0,0,.02,0,.02,0,0,0,.02,0,.03.37,1.97.78,3.92,1.23,5.83,0,0,0,0,0,0,0,.04.02.08.03.12h0s.02.08.03.12h0s0,.04.01.06c0,0,0,0,0,.01,0,.04.02.07.03.11,0,0,0,0,0,.02,0,.01,0,.03,0,.04,0,0,0,0,0,.01,0,.02,0,.03.01.05,0,0,0,.01,0,.02,0,.01,0,.02,0,.03,0,0,0,.01,0,.02,0,.01,0,.03,0,.04,0,.01,0,.02,0,.03,0,.01,0,.02,0,.03,0,0,0,.02,0,.02,0,0,0,.02,0,.03,0,0,0,.02,0,.02,0,.02,0,.03.01.05,0,.01,0,.01,0,.03,0,0,0,.02,0,.03,0,.01,0,.02,0,.03,0,0,0,.02,0,.02,0,.02,0,.03.01.05,0,0,0,.01,0,.02,0,.01,0,.02,0,.03,0,0,0,.01,0,.02,0,.04.02.07.03.11,0,0,0,0,0,.01,0,.01,0,.02,0,.03,0,0,0,0,0,.01,0,.02.01.05.02.07,0,0,0,0,0,0,0,.01,0,.02,0,.04,0,0,0,0,0,.01,0,.04.02.08.03.12,0,0,0,0,0,0,.01.06.03.11.04.17,0,0,0,0,0,0,.03.11.06.22.08.34.17.68.78,1.13,1.45,1.13.12,0,.24-.01.37-.05.8-.2,1.29-1.02,1.09-1.82-.62-2.49-1.19-5.06-1.67-7.64,0,0,0-.02,0-.03,0,0,0-.02,0-.03v-.05s-.01-.02-.02-.03c0,0,0-.02,0-.03v-.05c-.14-.72-.77-1.23-1.48-1.23h0ZM7.88,180.98c-.15,0-.3.02-.46.07-.79.25-1.22,1.09-.98,1.88,0,.01,0,.01,0,.02,0,0,0,.01,0,.02,0,0,0,.01,0,.02,0,0,0,.02,0,.02,0,0,0,.02,0,.03,0,.01,0,.03.01.04,0,0,0,.01,0,.02,0,0,0,.01,0,.02,0,0,0,.02,0,.03.83,2.58,1.73,5.09,2.7,7.53.23.59.8.95,1.39.95.18,0,.37-.03.55-.11.77-.31,1.15-1.18.84-1.95-.95-2.38-1.83-4.85-2.63-7.34,0,0,0-.02,0-.03,0,0,0-.02,0-.03l-.02-.05s0-.02,0-.03c0,0,0-.02,0-.03l-.02-.05c-.2-.64-.79-1.04-1.43-1.04h0ZM13.78,195.85c-.22,0-.44.05-.65.15-.75.36-1.06,1.25-.7,2,0,0,0,.02.01.03,0,0,0,.02.01.02h0s0,.02.01.03c0,0,0,.01,0,.02,0,.02.02.04.03.06,0,0,0,.01.01.02,0,0,0,.01,0,.02,1.18,2.44,2.44,4.79,3.76,7.07.28.47.78.74,1.29.74.26,0,.52-.07.75-.2.72-.42.96-1.34.54-2.05-1.29-2.21-2.51-4.52-3.65-6.86,0,0,0-.02-.01-.02,0,0,0-.02-.01-.02l-.02-.05s0-.02-.01-.02c0,0,0-.02-.01-.02l-.02-.05c-.26-.54-.79-.85-1.35-.85h0ZM21.8,209.65c-.3,0-.59.09-.85.27-.68.47-.85,1.41-.38,2.09,0,0,0,0,0,0,.01.02.02.03.03.05,0,0,0,.01.01.02,0,0,0,.01.01.02,0,0,.01.02.02.03,0,0,.01.02.02.02,0,0,.01.02.02.02,0,0,.01.02.02.02.16.22.31.45.47.67h0s.05.07.07.1h0s.02.03.03.05c0,0,0,0,0,0,.02.03.05.06.07.1,0,0,0,0,0,0,.01.02.02.03.03.05,0,0,0,0,0,0,.01.02.02.03.03.05h0s.02.03.03.05c0,0,0,0,0,0,.01.02.02.03.03.04,0,0,0,0,0,0,.01.01.02.03.03.04,0,0,0,0,0,0,.01.01.02.03.03.04,0,0,0,0,0,.01.01.01.02.03.03.04,0,0,0,0,0,0,0,.01.02.03.03.04,0,0,0,0,0,0,.01.01.02.03.03.04,0,0,0,0,0,.01.01.01.02.03.03.04,0,0,0,0,0,.01,0,.01.02.03.03.04,0,0,0,0,0,0,.01.01.02.03.03.04,0,0,0,0,0,.01.01.01.02.03.03.04,0,0,0,0,0,0,0,.01.02.02.03.04,0,0,0,0,0,.01,0,.01.02.03.03.04,0,0,0,0,0,.01.01.01.02.03.03.04,0,0,0,0,0,0,0,.01.02.02.03.04,0,0,0,0,0,.01.01.01.02.03.03.04,0,0,0,0,0,.01.01.01.02.03.03.04,0,0,0,0,0,0,0,.01.02.03.03.04,0,0,0,0,0,.01.01.01.02.03.03.04,0,0,0,0,0,.01.01.01.02.03.03.04h0s.02.03.03.05c0,0,0,0,0,0,.01.01.02.03.03.04,0,0,0,0,0,0,.01.01.02.03.03.04h0s.02.03.03.05c0,0,0,0,0,0,.01.01.02.03.03.04,0,0,0,0,0,0,.01.02.02.03.03.05,0,0,0,0,0,0,.01.02.02.03.03.05,0,0,0,0,0,0,.01.02.02.03.03.05h0s.05.07.07.1h0s.05.07.07.1h0s.02.03.04.05h0c.04.05.07.1.11.15h0c.71.95,1.44,1.88,2.19,2.79,0,0,0,0,0,0,.01.02.02.03.04.05h0s.02.03.03.05c0,0,0,0,0,0,.01.01.02.03.03.04,0,0,0,0,0,.01.01.01.02.03.03.04,0,0,0,0,0,0,0,.01.02.02.03.03,0,0,0,0,0,0,.01.01.02.03.03.04,0,0,0,.01.01.01,0,.01.02.02.03.03,0,0,.01.01.02.02,0,0,.01.02.02.02,0,0,.01.01.01.02,0,.01.02.02.03.03,0,0,.01.01.02.02,0,0,0,.01.01.02,0,.01.02.02.03.04,0,0,0,0,0,.01.02.03.04.05.07.08,0,0,0,0,0,0,.04.04.07.08.1.13.3.36.72.54,1.15.54.34,0,.68-.11.96-.35.64-.53.72-1.47.2-2.11-1.63-1.96-3.21-4.04-4.69-6.16,0,0-.01-.01-.02-.02,0,0,0-.01-.02-.02l-.03-.04s-.01-.01-.02-.02c0,0,0-.01-.02-.02l-.03-.04c-.29-.42-.76-.64-1.23-.64h0ZM31.98,221.92c-.38,0-.76.14-1.06.43-.59.58-.59,1.53-.01,2.12,0,0,0,0,0,0,.01.01.02.02.03.03,0,0,.01.01.02.02,0,0,.01.01.02.02.02.02.03.03.04.04,0,0,.01.01.02.02,0,0,.01.01.02.02.49.49.98.98,1.48,1.45h0s.09.09.13.13h0s.03.03.04.04h0s.06.06.09.09h0s.03.03.04.04c0,0,0,0,0,0,.01.01.03.03.04.04h0s.03.03.04.04c0,0,0,0,0,0,.01.01.03.03.04.04,0,0,0,0,0,0,.01.01.03.03.04.04,0,0,0,0,0,0,.01.01.03.03.04.04h0s.03.03.04.04c0,0,0,0,0,0,.01.01.03.02.04.04,0,0,0,0,0,0,.01.01.03.02.04.04,0,0,0,0,0,0,.01.01.02.02.03.03,0,0,0,0,0,0,.01.01.02.02.04.03,0,0,0,0,.01.01.01.01.02.02.04.03,0,0,0,0,.01.01.01,0,.02.02.03.03,0,0,0,0,.01.01.01.01.02.02.03.03,0,0,0,0,.01.01.01.01.02.02.03.03,0,0,0,0,.01.01.01.01.02.02.03.03,0,0,0,0,.01.01,0,0,.02.02.03.02,0,0,.01.01.02.01.01,0,.02.02.03.03,0,0,.01,0,.02.01.01.01.02.02.03.03,0,0,0,0,.02.02,0,0,.02.01.02.02,0,0,.01.01.02.02,0,0,.01.01.02.02,0,0,.01.01.02.02,0,0,.02.02.03.03,0,0,.01.01.02.02,0,0,.01.01.02.02.01.01.02.02.03.03,0,0,0,0,.01.01.01.01.03.02.04.04,0,0,0,0,0,0,0,0,.02.01.02.02,0,0,0,0,0,0,.01.01.03.03.04.04,0,0,0,0,0,0,.01.01.03.03.04.04,0,0,0,0,.01,0,.02.02.05.05.08.07,0,0,0,0,0,0,.02.02.03.03.05.04,0,0,0,0,0,0,.9.82,1.82,1.62,2.75,2.4.28.23.62.35.96.35.43,0,.85-.18,1.15-.54.53-.63.45-1.58-.19-2.11-1.96-1.64-3.87-3.4-5.69-5.23,0,0-.01-.01-.02-.02,0,0-.01-.01-.02-.02l-.04-.04s-.01-.01-.02-.02c0,0-.01-.01-.02-.02l-.04-.04c-.29-.3-.68-.44-1.07-.44h0ZM44.17,232.16c-.48,0-.94.23-1.24.65-.47.68-.3,1.61.37,2.08,0,0,.02.01.03.02,0,0,0,0,0,0,0,0,.02.01.03.02,0,0,.01,0,.02.01,0,0,.01,0,.02.01.01.01.03.02.05.03,0,0,.01,0,.02.01,0,0,.01,0,.02.01,1.01.7,2.04,1.37,3.07,2.02,0,0,0,0,0,0,.01,0,.02.01.03.02,0,0,0,0,0,0,.01,0,.02.01.03.02,0,0,0,0,0,0,.01,0,.02.01.03.02,0,0,0,0,0,0,.02.01.04.03.06.04h0s.02.01.03.02c0,0,0,0,0,0,.01,0,.01,0,.02.02,0,0,0,0,0,0,0,0,.02.01.02.01,0,0,0,0,0,0,0,0,.02.01.02.01,0,0,0,0,0,0,0,0,.02.01.02.01,0,0,0,0,0,0,0,0,.02.01.02.02,0,0,0,0,0,0,.01,0,.02.01.03.02,0,0,0,0,.01,0,0,0,0,0,.02.01,0,0,0,0,.01,0,0,0,0,0,.01,0,0,0,0,0,.01,0,0,0,0,0,.01,0,0,0,0,0,.01,0,0,0,0,0,.01,0,0,0,.01,0,.02,0,0,0,.01,0,.01,0,0,0,.01,0,.02,0,0,0,0,0,0,0,.02.01.04.03.07.04,0,0,0,0,0,0,0,0,.01,0,.02.01,0,0,0,0,0,0,0,0,.01,0,.02.01,0,0,0,0,0,0,0,0,.01,0,.02.01,0,0,0,0,0,0,0,0,.01,0,.02.01,0,0,0,0,0,0,.99.61,2,1.19,3.01,1.76.23.13.48.19.73.19.53,0,1.04-.28,1.31-.77.4-.72.14-1.64-.58-2.04-2.23-1.24-4.44-2.61-6.55-4.07,0,0-.01-.01-.02-.02,0,0-.01-.01-.02-.01l-.04-.03s-.02-.01-.02-.02c0,0-.01,0-.02-.01l-.04-.03c-.26-.18-.56-.27-.85-.27h0ZM58.06,239.91c-.58,0-1.13.34-1.38.9-.33.76.01,1.64.77,1.98,0,0,0,0,0,0,.02,0,.03.01.05.02,0,0,.01,0,.02,0,0,0,.01,0,.02,0,.02,0,.04.02.06.03,0,0,.01,0,.02,0,0,0,.01,0,.02,0,2.45,1.06,4.94,2.01,7.48,2.84.15.05.31.07.46.07.63,0,1.22-.4,1.43-1.03.26-.79-.17-1.63-.96-1.89-2.44-.8-4.86-1.72-7.21-2.74,0,0-.02,0-.02-.01,0,0-.02,0-.02-.01l-.05-.02s-.02,0-.03-.01c0,0-.02,0-.02-.01l-.05-.02c-.2-.09-.4-.13-.6-.13h0ZM73.17,244.88c-.69,0-1.31.47-1.46,1.17-.18.81.32,1.61,1.13,1.79,0,0,.01,0,.02,0,0,0,0,0,.01,0,0,0,.02,0,.02,0,0,0,.02,0,.03,0,0,0,.02,0,.03,0,0,0,0,0,0,0,0,0,0,0,0,0,.02,0,.03,0,.05.01,0,0,.01,0,.02,0,0,0,.02,0,.03,0,.51.11,1.03.22,1.55.33,0,0,0,0,0,0,0,0,.01,0,.02,0,0,0,0,0,.01,0,0,0,.01,0,.02,0,0,0,0,0,.01,0,0,0,.01,0,.02,0,0,0,0,0,.02,0,0,0,.01,0,.02,0,.01,0,.02,0,.03,0,0,0,0,0,0,0,.01,0,.02,0,.03,0,0,0,0,0,0,0,0,0,.02,0,.03,0,0,0,0,0,.01,0,0,0,.02,0,.02,0h0s.02,0,.03,0c0,0,0,0,0,0,.01,0,.02,0,.03,0,0,0,0,0,0,0,1.24.25,2.49.47,3.74.66,0,0,0,0,0,0,.06,0,.12.02.18.03,0,0,0,0,0,0,0,0,.02,0,.03,0,0,0,0,0,.01,0,0,0,.02,0,.02,0,0,0,0,0,0,0,0,0,.02,0,.02,0,0,0,0,0,.01,0,0,0,.02,0,.03,0,0,0,0,0,.01,0,0,0,.02,0,.03,0,0,0,.01,0,.02,0,0,0,.01,0,.01,0,0,0,.01,0,.02,0,0,0,0,0,.01,0,0,0,.02,0,.02,0,0,0,0,0,0,0,0,0,.02,0,.03,0,0,0,0,0,0,0,.59.09,1.18.17,1.77.25.06,0,.13.01.19.01.74,0,1.39-.55,1.49-1.31.11-.82-.47-1.57-1.3-1.68-2.56-.33-5.11-.78-7.61-1.33,0,0-.02,0-.03,0,0,0-.02,0-.03,0h-.05s-.02-.02-.03-.02c0,0-.02,0-.03,0h-.05c-.11-.04-.22-.05-.33-.05h0ZM97.05,246.89s-.05,0-.08,0c-1.48.07-2.99.11-4.49.11-1.08,0-2.17-.02-3.25-.06,0,0-.02,0-.03,0,0,0-.02,0-.03,0h-.05s-.02,0-.03,0c0,0-.02,0-.03,0h-.05s-.04,0-.06,0c-.8,0-1.47.63-1.5,1.44-.03.83.61,1.52,1.44,1.56.02,0,.04,0,.05,0,0,0,.02,0,.03,0,0,0,.01,0,.02,0,0,0,.02,0,.03,0,0,0,.01,0,.02,0,0,0,.01,0,.02,0,0,0,.02,0,.02,0,0,0,.02,0,.03,0,.84.03,1.67.05,2.51.06h0s.07,0,.1,0h0s.03,0,.05,0h0s.07,0,.1,0h0s.07,0,.1,0c0,0,0,0,0,0,.01,0,.03,0,.04,0,0,0,0,0,0,0,.02,0,.03,0,.05,0h0s.03,0,.04,0h.01s.03,0,.05,0h0s.03,0,.05,0h.01s.03,0,.04,0h0s.03,0,.05,0h0s.03,0,.04,0h.13s0,0,.01,0h.04s.01,0,.02,0h.01s.01,0,.02,0c0,0,.01,0,.02,0h.02s.01,0,.02,0c0,0,.01,0,.02,0,0,0,.01,0,.02,0,0,0,.01,0,.02,0,0,0,.01,0,.02,0,0,0,.01,0,.02,0,0,0,.01,0,.02,0,0,0,.01,0,.02,0,0,0,.01,0,.02,0,0,0,.01,0,.02,0,0,0,.01,0,.02,0,0,0,.01,0,.02,0,0,0,.01,0,.02,0,0,0,.01,0,.02,0,0,0,.01,0,.02,0,0,0,.01,0,.01,0,0,0,.02,0,.02,0,0,0,.01,0,.01,0,0,0,.01,0,.02,0,0,0,0,0,.01,0,0,0,.02,0,.02,0,0,0,0,0,.01,0,0,0,.02,0,.02,0,0,0,0,0,.01,0,0,0,.02,0,.02,0,0,0,0,0,.01,0,0,0,.02,0,.02,0,0,0,0,0,.01,0,0,0,.02,0,.03,0,0,0,0,0,.01,0,0,0,.02,0,.03,0,0,0,0,0,0,0,0,0,.02,0,.03,0,0,0,0,0,0,0,0,0,.02,0,.03,0,0,0,0,0,0,0,0,0,.02,0,.03,0,0,0,0,0,0,0,.01,0,.02,0,.03,0,0,0,0,0,0,0,.01,0,.02,0,.03,0,0,0,0,0,0,0,.01,0,.02,0,.03,0h0c1.21-.01,2.42-.05,3.62-.11.83-.04,1.46-.75,1.42-1.57-.04-.8-.7-1.42-1.5-1.42h0ZM112.81,244.64c-.12,0-.23.01-.35.04-2.48.59-5.04,1.08-7.58,1.44,0,0-.02,0-.03,0,0,0-.02,0-.03,0h-.05s-.02.01-.03.01c0,0-.02,0-.03,0h-.05c-.82.12-1.39.88-1.28,1.7.11.75.75,1.29,1.48,1.29.07,0,.14,0,.2-.01,0,0,.02,0,.03,0,0,0,.01,0,.02,0,0,0,.01,0,.02,0,0,0,.01,0,.02,0,0,0,.02,0,.03,0,.01,0,.03,0,.04,0h.01s.02,0,.03,0c0,0,.02,0,.02,0,.56-.08,1.11-.16,1.66-.25,0,0,0,0,0,0,.01,0,.02,0,.03,0,0,0,0,0,0,0,.01,0,.02,0,.03,0,0,0,0,0,0,0,.01,0,.02,0,.03,0,0,0,0,0,0,0,.01,0,.02,0,.03,0,0,0,0,0,0,0,.01,0,.02,0,.03,0,0,0,0,0,0,0,0,0,.02,0,.03,0,0,0,0,0,.01,0,0,0,.02,0,.02,0,0,0,0,0,.01,0,0,0,.02,0,.02,0,0,0,0,0,.01,0,0,0,.02,0,.02,0,0,0,0,0,.01,0,0,0,.02,0,.03,0,0,0,0,0,0,0,.01,0,.02,0,.03,0,0,0,0,0,.01,0,0,0,.01,0,.02,0,0,0,0,0,.01,0,0,0,.01,0,.02,0h.02s0,0,.01,0c0,0,.01,0,.02,0,0,0,0,0,.01,0,0,0,.01,0,.02,0,0,0,.01,0,.01,0,0,0,.01,0,.02,0,0,0,0,0,.01,0,.03,0,.05,0,.08-.01,0,0,0,0,0,0,0,0,.02,0,.02,0,0,0,0,0,0,0,0,0,.02,0,.02,0h0s.02,0,.03,0c0,0,0,0,0,0,.06-.01.12-.02.18-.03h0c1.77-.31,3.52-.67,5.25-1.08.81-.19,1.3-1,1.11-1.81-.16-.69-.78-1.15-1.46-1.15h0ZM127.86,239.49c-.21,0-.42.04-.62.13-2.33,1.06-4.74,2.02-7.17,2.85,0,0-.02,0-.03,0,0,0-.02,0-.02,0l-.05.02s-.02,0-.02,0c0,0-.02,0-.03,0l-.05.02c-.78.27-1.2,1.12-.94,1.9.21.62.8,1.02,1.42,1.02.16,0,.32-.03.48-.08,0,0,0,0,0,0,.02,0,.03-.01.05-.02,0,0,.01,0,.02,0,0,0,.02,0,.03,0,0,0,.01,0,.02,0,.01,0,.02,0,.04-.01,0,0,.02,0,.02,0,0,0,.01,0,.02,0,.31-.11.62-.21.93-.32,0,0,0,0,0,0,.01,0,.02,0,.03-.01,0,0,0,0,0,0,0,0,.02,0,.03,0,0,0,0,0,0,0,0,0,.02,0,.02,0,0,0,0,0,0,0,0,0,.02,0,.02,0,0,0,0,0,0,0,0,0,.01,0,.02,0,0,0,0,0,.01,0,.01,0,.02,0,.03-.01,0,0,0,0,.01,0,0,0,.01,0,.02,0,0,0,.01,0,.02,0,0,0,.01,0,.02,0,0,0,.01,0,.02,0,0,0,0,0,.01,0,0,0,.01,0,.02,0,0,0,0,0,.01,0,0,0,.01,0,.02,0,0,0,0,0,.01,0,0,0,.01,0,.02,0h0s.05-.02.08-.03h0s.02,0,.02,0c0,0,0,0,0,0,0,0,.02,0,.02,0,0,0,0,0,0,0,0,0,.02,0,.02,0h0c2.02-.74,4-1.55,5.95-2.43.75-.34,1.09-1.23.75-1.99-.25-.55-.8-.88-1.37-.88h0ZM141.65,231.55c-.3,0-.6.09-.87.28-2.09,1.49-4.28,2.89-6.49,4.17,0,0-.01,0-.02.01,0,0-.02,0-.02.01l-.05.03s-.02,0-.02.01c0,0-.02,0-.02.01l-.05.03c-.72.41-.97,1.33-.55,2.05.28.48.78.75,1.3.75.25,0,.51-.06.74-.2.02-.01.04-.02.06-.03,0,0,.01,0,.02-.01,0,0,.02,0,.02-.01,0,0,0,0,.01,0,0,0,.01,0,.02,0,0,0,.01,0,.02-.01,0,0,.02,0,.02-.01,0,0,.02,0,.02-.01,1.73-1,3.42-2.06,5.08-3.18,0,0,0,0,0,0,0,0,.02-.01.02-.02h0s.02-.01.03-.02h0c.05-.04.1-.07.15-.1,0,0,0,0,0,0,0,0,.02-.01.02-.02h0s.02-.01.02-.02h0c.05-.04.1-.07.15-.11h0s.02-.01.03-.02h0c.08-.05.15-.11.23-.16h0c.05-.04.1-.07.15-.11,0,0,0,0,0,0,.27-.19.55-.38.82-.58.68-.48.83-1.42.35-2.09-.29-.41-.75-.63-1.22-.63h0ZM153.71,221.16c-.39,0-.78.15-1.08.46-1.79,1.86-3.68,3.64-5.61,5.31,0,0-.01.01-.02.02,0,0-.01.01-.02.02l-.04.03s-.01.01-.02.02c0,0-.01.01-.02.02l-.04.03c-.63.54-.7,1.49-.16,2.12.3.35.72.52,1.14.52.35,0,.69-.12.98-.36,0,0,0,0,0,0l.03-.02s.01-.01.02-.01c0,0,.01,0,.02-.01,0,0,.01-.01.02-.02.01,0,.02-.02.03-.03h0s0,0,.01,0c0,0,.01-.01.02-.02,0,0,.01,0,.02-.01.4-.35.8-.7,1.19-1.05,0,0,0,0,0,0,1.11-1,2.2-2.02,3.27-3.08h0s.09-.08.13-.13c0,0,0,0,0,0,.01-.01.03-.03.04-.04,0,0,0,0,0,0,.03-.03.05-.05.07-.07,0,0,0,0,0,0,.01-.01.03-.03.04-.04,0,0,0,0,.01-.01.01-.01.02-.02.03-.03,0,0,.01-.01.02-.02,0,0,.01-.01.02-.02l.03-.03s.01-.01.02-.02c0,0,.01-.01.02-.02,0,0,.02-.02.03-.03,0,0,.02-.02.02-.02,0,0,0,0,.02-.02.01-.01.02-.02.03-.03,0,0,0,0,.02-.02,0-.01.02-.02.03-.03,0,0,0,0,.01-.01,0,0,.02-.02.03-.03,0,0,0,0,.01-.01.01-.01.02-.02.03-.03,0,0,0,0,.01-.01.01-.01.02-.02.04-.04,0,0,0,0,0,0,.01-.01.02-.03.04-.04,0,0,0,0,0,0,.01-.01.03-.03.04-.04,0,0,0,0,0,0,.01-.01.03-.03.04-.04h0c.16-.17.32-.33.48-.5.58-.6.56-1.55-.04-2.12-.29-.28-.67-.42-1.04-.42h0ZM163.75,208.78c-.48,0-.95.23-1.24.66-1.46,2.15-3.01,4.24-4.61,6.23,0,0-.01.01-.02.02,0,0-.01.01-.02.02l-.03.04s-.01.01-.02.02c0,0-.01.01-.02.02l-.03.04c-.52.64-.42,1.59.22,2.11.28.23.61.34.94.34.43,0,.87-.19,1.16-.55.01-.02.03-.04.04-.05,0,0,0-.01.01-.02,0,0,.01-.01.02-.02,0,0,0,0,.01-.01,0-.01.02-.02.03-.04,0,0,0-.01.01-.02,0,0,.01-.01.02-.02,1.66-2.05,3.24-4.2,4.76-6.43.47-.69.29-1.62-.4-2.08-.26-.18-.55-.26-.84-.26h0ZM171.64,194.89c-.56,0-1.1.32-1.36.86-1.11,2.36-2.31,4.68-3.57,6.91,0,0,0,.02-.01.02,0,0,0,.02-.01.02l-.03.05s0,.02-.01.02c0,0,0,.02-.01.02l-.03.05c-.41.72-.16,1.64.56,2.05.23.13.49.2.74.2.52,0,1.03-.27,1.31-.76,0,0,.01-.02.02-.03,0,0,0-.02.01-.02,0,0,0-.01.01-.02,0,0,0-.01.01-.02,0-.02.02-.04.03-.05,0,0,0-.01.01-.02,0,0,0-.01.01-.02.1-.17.19-.34.29-.51,0,0,0,0,0,0,.02-.03.03-.06.05-.1,0,0,0,0,0-.01,0-.02.02-.04.03-.05,0,0,0,0,0-.01,0-.01,0-.02.02-.03,0,0,0,0,0-.01,0-.02.02-.03.03-.05,0,0,0-.01,0-.02,0,0,0-.02.01-.03,0,0,0-.01.01-.02,0-.01.01-.03.02-.04,0,0,0-.01.01-.02,0,0,0-.01.01-.02,0-.01.01-.03.02-.04,0,0,0-.01.01-.02,0,0,0-.02.01-.03,0,0,0-.02.01-.03,0-.01.01-.02.02-.03,0,0,0-.01.01-.02,0-.01.01-.02.02-.03,0,0,0-.02.01-.02,0-.01.01-.02.02-.03,0,0,0-.01.01-.02,0-.01.02-.03.02-.04,0,0,0,0,0-.02,0-.01.01-.02.02-.03,0,0,0-.01,0-.02,0-.01.02-.03.02-.04,0,0,0-.01,0-.01,0-.01.01-.03.02-.04,0,0,0,0,0-.01,0-.02.02-.03.03-.05,0,0,0,0,0-.01,0-.01.02-.03.02-.04,0,0,0,0,0,0,0-.01.02-.03.02-.04,0,0,0,0,0-.01,0-.02.02-.03.03-.05,0,0,0,0,0,0,0-.01.02-.03.02-.04,0,0,0,0,0,0,0-.02.02-.03.03-.05,0,0,0,0,0,0,0-.02.02-.03.02-.05h0s.02-.04.03-.05c0,0,0,0,0,0,.02-.03.04-.07.06-.1h0s.04-.07.06-.11c0,0,0,0,0,0,0-.02.02-.04.03-.05h0s.02-.04.03-.05h0s.02-.04.03-.06h0s.04-.07.06-.11h0s.04-.07.06-.11c0,0,0,0,0,0,.03-.05.06-.11.09-.16h0s.04-.07.06-.11h0c.29-.55.58-1.11.86-1.67h0c.45-.9.89-1.8,1.33-2.72.35-.75.03-1.64-.72-2-.21-.1-.42-.14-.64-.14h0ZM177.4,179.97c-.64,0-1.23.41-1.43,1.06-.77,2.5-1.63,4.98-2.55,7.37,0,0,0,.02,0,.03,0,0,0,.02,0,.02l-.02.05s0,.02,0,.03c0,0,0,.02,0,.02l-.02.05c-.3.77.09,1.64.86,1.94.18.07.36.1.54.1.6,0,1.16-.36,1.4-.95,0-.02.02-.04.02-.06,0,0,0-.01,0-.02,0,0,0-.02,0-.02,0-.02,0-.02.02-.04,0,0,0,0,0-.01,0,0,0-.02,0-.03,0,0,0-.02,0-.03.12-.31.23-.61.35-.92h0s.03-.08.04-.12h0s.01-.04.02-.06h0s.01-.04.02-.05c0,0,0,0,0,0,.01-.04.03-.07.04-.11,0,0,0,0,0,0,0-.02.01-.04.02-.05,0,0,0,0,0,0,0-.02.01-.03.02-.05,0,0,0,0,0-.01,0-.02.01-.03.02-.05h0s.01-.04.02-.05c0,0,0,0,0-.01,0-.02.01-.03.02-.05,0,0,0,0,0,0,0-.01.01-.03.02-.04,0,0,0-.01,0-.02,0-.01.01-.03.02-.04,0,0,0,0,0-.01,0-.01.01-.03.02-.04,0,0,0-.01,0-.02,0-.01,0-.02.01-.04,0,0,0-.01,0-.02,0-.01,0-.03.01-.04,0,0,0-.02,0-.02,0,0,0-.02.01-.03,0,0,0-.02.01-.03,0-.01,0-.02.01-.03,0,0,0-.02,0-.02,0,0,0-.02.01-.03,0,0,0-.02.01-.03,0-.01,0-.02.01-.03,0,0,0-.02,0-.03,0,0,0-.02,0-.02,0,0,0-.01,0-.02,0-.01.01-.03.02-.04,0,0,0-.02.01-.03,0,0,0-.01,0-.02.01-.03.02-.07.04-.1,0,0,0,0,0-.01.01-.03.02-.07.04-.1,0,0,0-.01,0-.02.01-.03.03-.07.04-.11,0,0,0,0,0-.01.01-.04.03-.07.04-.11,0,0,0,0,0-.01.01-.04.03-.07.04-.11,0,0,0,0,0,0,.01-.04.03-.07.04-.11,0,0,0,0,0,0,.35-.98.68-1.97,1.01-2.96,0,0,0,0,0,0,.01-.04.03-.08.04-.12,0,0,0,0,0,0,0-.01,0-.03.01-.04,0,0,0,0,0,0,0-.03.02-.05.02-.07,0,0,0,0,0,0,0-.01,0-.02.01-.04,0,0,0,0,0,0,0-.02.02-.05.02-.07,0,0,0,0,0,0,0-.01,0-.02.01-.03,0,0,0-.01,0-.02,0-.02.01-.04.02-.06,0,0,0-.01,0-.02,0-.01,0-.02,0-.03,0,0,0-.01,0-.02,0-.02.01-.03.02-.05,0,0,0-.02,0-.02,0-.01,0-.02,0-.03,0,0,0-.02,0-.02,0-.01,0-.02.01-.04,0-.01,0-.02.01-.04,0-.01,0-.01,0-.02,0-.01,0-.02,0-.03,0,0,0-.01,0-.02,0-.02,0-.03.01-.05,0,0,0-.01,0-.02,0-.01,0-.02.01-.03,0,0,0-.01,0-.02,0-.02.01-.03.02-.05,0,0,0,0,0-.02,0-.01,0-.03.01-.04,0,0,0-.01,0-.01,0-.02.01-.03.02-.05,0,0,0,0,0-.01,0-.01,0-.03.01-.04,0,0,0-.01,0-.01,0-.02.01-.04.02-.05h0s.01-.04.02-.06c0,0,0,0,0,0,.01-.04.02-.08.04-.11,0,0,0,0,0,0,.01-.04.02-.08.04-.12h0s.02-.08.04-.12c.24-.79-.2-1.63-.99-1.88-.15-.05-.3-.07-.44-.07h0ZM181.16,164.39c-.71,0-1.35.51-1.48,1.24-.46,2.58-1,5.16-1.6,7.66,0,0,0,.02,0,.03,0,0,0,.02,0,.03v.05s-.02.02-.02.03c0,0,0,.02,0,.03v.05c-.21.81.29,1.62,1.09,1.81.12.03.24.04.35.04.68,0,1.29-.46,1.46-1.14,0,0,0-.01,0-.01,0,0,0-.02,0-.02,0,0,0-.01,0-.02,0,0,0-.02,0-.03,0,0,0-.01,0-.02,0-.03.01-.04.02-.07,0,0,0-.01,0-.02,0,0,0-.02,0-.03h0c.02-.1.05-.2.07-.3h0s.02-.08.03-.12h0s0-.04.01-.06c0,0,0,0,0,0,0-.04.02-.08.03-.11,0,0,0,0,0,0,0-.02,0-.03.01-.05h0s0-.04.01-.06h0s0-.04.01-.06c0,0,0,0,0-.01,0-.04.02-.07.03-.11,0,0,0,0,0-.01,0-.01,0-.03,0-.04,0,0,0,0,0-.02,0-.02,0-.03.01-.05,0,0,0,0,0-.02,0-.01,0-.03,0-.04,0,0,0-.01,0-.02,0-.01,0-.03.01-.04,0,0,0,0,0,0,0-.02,0-.03.01-.05,0,0,0-.02,0-.02,0-.01,0-.02,0-.04,0,0,0-.01,0-.02,0-.02,0-.03.01-.05,0,0,0-.01,0-.02,0-.01,0-.02,0-.03,0,0,0-.02,0-.02,0,0,0-.02,0-.03,0-.01,0-.03,0-.04,0,0,0-.02,0-.03,0-.01,0-.02,0-.03,0,0,0-.02,0-.02,0-.01,0-.02,0-.03,0,0,0-.02,0-.02,0-.02,0-.04.01-.05,0,0,0-.01,0-.02,0-.01,0-.02,0-.03,0,0,0-.01,0-.02,0-.04.02-.08.03-.11,0,0,0-.01,0-.01,0-.04.02-.08.03-.12,0,0,0,0,0,0,0-.01,0-.03,0-.04,0,0,0,0,0,0,.43-1.91.82-3.85,1.17-5.82.14-.81-.4-1.59-1.21-1.73-.09-.02-.18-.02-.26-.02h0ZM183.09,148.46c-.78,0-1.44.61-1.5,1.4-.18,2.62-.42,5.25-.73,7.81,0,0,0,.02,0,.03,0,0,0,.02,0,.03v.05s0,.02,0,.03c0,0,0,.02,0,.03v.05c-.11.82.48,1.57,1.3,1.67.06,0,.12.01.18.01.75,0,1.39-.56,1.49-1.31,0,0,0-.01,0-.02v-.04s0-.02,0-.03c0,0,0-.02,0-.03,0,0,0,0,0-.01,0-.01,0-.03,0-.04,0,0,0-.02,0-.03,0,0,0-.02,0-.03.02-.2.05-.41.07-.61h0c0-.06.01-.12.02-.18,0,0,0,0,0,0,0-.02,0-.03,0-.05,0,0,0,0,0-.01,0-.02,0-.04,0-.06,0,0,0,0,0,0,0-.02,0-.03,0-.05,0,0,0-.01,0-.02,0-.01,0-.02,0-.04,0,0,0-.02,0-.02,0-.01,0-.03,0-.04,0,0,0-.02,0-.02,0-.01,0-.03,0-.04,0,0,0-.02,0-.02,0,0,0-.02,0-.03,0,0,0-.02,0-.03,0,0,0-.02,0-.03,0-.01,0-.03,0-.04,0-.01,0-.02,0-.03,0-.01,0-.02,0-.03,0,0,0-.02,0-.02,0,0,0-.02,0-.03,0,0,0-.01,0-.02,0-.04,0-.08.01-.12,0,0,0-.01,0-.02,0-.01,0-.02,0-.04,0,0,0-.01,0-.02,0-.04,0-.08.01-.12,0,0,0,0,0-.01,0-.02,0-.02,0-.04,0,0,0,0,0-.01,0-.06.01-.12.02-.18,0,0,0,0,0,0,0-.06.01-.12.02-.18,0,0,0,0,0,0,0-.02,0-.03,0-.04,0,0,0,0,0,0,0-.05,0-.09.01-.13,0,0,0,0,0,0,0-.02,0-.03,0-.04,0,0,0,0,0,0,0-.05,0-.09.01-.14,0,0,0,0,0,0,0-.02,0-.03,0-.04,0,0,0,0,0,0,0-.05,0-.09.01-.14h0s0-.03,0-.04c0,0,0,0,0,0,0-.06.01-.12.02-.18,0,0,0,0,0,0,0-.02,0-.02,0-.04,0,0,0,0,0,0,0-.04,0-.09.01-.13,0,0,0,0,0-.01,0-.02,0-.02,0-.04,0,0,0,0,0-.01,0-.04,0-.08.01-.12,0,0,0-.01,0-.02,0-.01,0-.02,0-.03,0,0,0-.01,0-.02,0-.01,0-.02,0-.03,0,0,0,0,0-.01,0-.02,0-.05,0-.07,0,0,0-.01,0-.02,0-.01,0-.02,0-.03,0,0,0-.02,0-.02,0-.01,0-.02,0-.03,0,0,0-.01,0-.02,0-.02,0-.04,0-.06,0,0,0-.02,0-.02,0-.01,0-.02,0-.03,0,0,0-.02,0-.03,0,0,0-.02,0-.03,0,0,0-.02,0-.03,0-.01,0-.03,0-.04,0-.01,0-.02,0-.03,0-.01,0-.02,0-.03,0,0,0-.02,0-.03,0,0,0-.02,0-.03,0-.01,0-.02,0-.03,0,0,0-.01,0-.02,0-.02,0-.03,0-.05,0,0,0-.01,0-.02,0-.01,0-.02,0-.04,0,0,0-.01,0-.02,0-.01,0-.02,0-.04,0,0,0-.01,0-.02,0-.02,0-.04,0-.05,0,0,0-.01,0-.02,0-.01,0-.03,0-.04,0,0,0-.01,0-.02,0-.01,0-.02,0-.04,0,0,0-.02,0-.02,0-.02,0-.04,0-.05h0s0-.04,0-.06c0,0,0-.01,0-.01,0-.01,0-.03,0-.04,0,0,0-.01,0-.01,0-.02,0-.04,0-.05h0s0-.04,0-.06c0,0,0,0,0,0,0-.02,0-.03,0-.05,0,0,0,0,0-.01,0-.02,0-.04,0-.05,0,0,0,0,0,0,0-.02,0-.04,0-.06h0s0-.04,0-.06h0s0-.05,0-.06h0s0-.09.01-.13c0,0,0,0,0,0,0-.02,0-.04,0-.06h0s0-.08.01-.13h0s0-.04,0-.06c0,0,0,0,0,0,0-.04,0-.08.01-.12h0s0-.04,0-.06h0c0-.06.01-.13.02-.19h0c0-.06.01-.13.01-.19h0c0-.06,0-.13.01-.19,0,0,0,0,0,0,0-.02,0-.04,0-.06h0s0-.08,0-.13h0s0-.04,0-.06c0,0,0,0,0,0,0-.06,0-.12.01-.18h0s0-.05,0-.06h0s0-.04,0-.07h0s0-.04,0-.06c0,0,0,0,0-.01,0-.02,0-.03,0-.05,0,0,0,0,0-.01,0-.02,0-.04,0-.06,0,0,0,0,0-.01,0-.02,0-.03,0-.05,0,0,0-.01,0-.02,0-.01,0-.03,0-.04,0,0,0-.01,0-.02,0-.02,0-.04,0-.05h0s0-.04,0-.06c0,0,0-.02,0-.02,0-.01,0-.02,0-.03,0,0,0-.02,0-.02,0-.01,0-.02,0-.03,0-.02,0-.03,0-.05,0,0,0-.02,0-.03,0-.01,0-.02,0-.03,0,0,0-.01,0-.02,0-.01,0-.02,0-.04,0,0,0,0,0-.01,0-.04,0-.09,0-.13,0,0,0,0,0-.01,0-.02,0-.03,0-.04,0,0,0,0,0,0,0-.1.01-.19.02-.29.05-.83-.57-1.54-1.4-1.59-.03,0-.07,0-.1,0h0ZM183.38,132.39s-.03,0-.05,0c-.83.02-1.48.72-1.45,1.54.05,1.66.07,3.35.07,5,0,.96,0,1.91-.02,2.86,0,0,0,.02,0,.03,0,0,0,.02,0,.03v.05s0,.02,0,.03c0,0,0,.02,0,.03v.05c-.02.83.64,1.51,1.47,1.53,0,0,.02,0,.03,0,.82,0,1.48-.65,1.5-1.47,0,0,0-.01,0-.02,0-.01,0-.02,0-.03,0,0,0,0,0,0,0,0,0-.02,0-.03,0,0,0-.01,0-.02,0-.02,0-.05,0-.07,0,0,0-.01,0-.02,0,0,0-.02,0-.03,0-.03,0-.06,0-.08,0,0,0,0,0,0,0,0,0-.02,0-.02,0-.01,0-.02,0-.03h0s0-.04,0-.05c0,0,0,0,0,0,.01-.77.02-1.54.02-2.31h0s0-.03,0-.05h0s0-.03,0-.05h0s0-.04,0-.05c0,0,0,0,0-.01,0,0,0-.02,0-.03,0,0,0-.01,0-.02,0,0,0-.02,0-.03,0,0,0-.01,0-.02v-.03s0-.01,0-.02v-.05s0-.03,0-.05h0s0-.05,0-.07v-.02s0-.05,0-.07h0s0-.05,0-.07c0,0,0-.01,0-.01,0-.02,0-.05,0-.07,0,0,0-.01,0-.01,0-.02,0-.04,0-.06,0,0,0,0,0,0,0-.02,0-.05,0-.07,0,0,0-.01,0-.02,0-.02,0-.05,0-.07h0s0-.05,0-.07c0,0,0-.01,0-.02,0-.02,0-.05,0-.07,0,0,0,0,0,0,0-.02,0-.04,0-.06,0,0,0-.01,0-.01,0-.02,0-.05,0-.07,0,0,0-.01,0-.01,0-.02,0-.04,0-.06,0,0,0,0,0-.01,0-.02,0-.05,0-.07,0,0,0-.01,0-.02,0-.02,0-.05,0-.07h0s0-.05,0-.07c0,0,0-.01,0-.02,0-.02,0-.05,0-.07,0,0,0-.01,0-.02,0-.02,0-.04,0-.06,0,0,0-.01,0-.02,0-.02,0-.04,0-.07,0,0,0-.01,0-.02,0-.02,0-.04,0-.06,0,0,0,0,0-.01,0-.02,0-.05,0-.07,0,0,0,0,0-.02,0-.02,0-.04,0-.07h0s0-.05,0-.07c0,0,0-.01,0-.02,0-.02,0-.04,0-.07,0,0,0,0,0-.02,0-.02,0-.04,0-.05,0,0,0-.02,0-.02,0-.02,0-.04,0-.07,0,0,0-.01,0-.02,0-.02,0-.04,0-.06,0,0,0-.01,0-.01,0-.02,0-.04,0-.07,0,0,0-.01,0-.02,0-.02,0-.04,0-.06,0,0,0,0,0-.02,0-.02,0-.04,0-.06,0,0,0-.01,0-.02,0-.02,0-.04,0-.06,0,0,0,0,0-.02,0-.02,0-.04,0-.05,0,0,0-.01,0-.02,0-.02,0-.04,0-.06,0,0,0-.02,0-.02,0-.02,0-.03,0-.05,0,0,0-.01,0-.02,0-.02,0-.04,0-.06,0,0,0-.02,0-.02,0-.02,0-.04,0-.06,0,0,0-.01,0-.02,0-.02,0-.04,0-.06,0,0,0-.02,0-.02,0-.02,0-.04,0-.06,0,0,0-.01,0-.02,0-.02,0-.03,0-.05,0,0,0-.02,0-.03,0-.02,0-.04,0-.06v-.03s0-.03,0-.05c0,0,0-.01,0-.02,0-.02,0-.04,0-.06,0,0,0-.02,0-.03,0-.02,0-.03,0-.05,0,0,0-.02,0-.03,0-.02,0-.03,0-.05,0,0,0-.02,0-.03,0-.02,0-.04,0-.06,0,0,0-.02,0-.03,0-.01,0-.03,0-.04,0-.01,0-.02,0-.03,0-.02,0-.04,0-.06,0-.01,0-.02,0-.03,0-.01,0-.02,0-.04,0-.01,0-.03,0-.04,0-.01,0-.03,0-.04,0-.01,0-.02,0-.04,0-.01,0-.02,0-.03,0-.02,0-.04,0-.05,0-.01,0-.02,0-.03,0-.01,0-.02,0-.04,0-.01,0-.03,0-.04,0-.02,0-.03,0-.04,0-.01,0-.02,0-.03,0-.01,0-.02,0-.04,0-.02,0-.03,0-.05,0-.01,0-.03,0-.04,0,0,0-.02,0-.03,0-.03,0-.04,0-.07,0,0,0-.01,0-.02,0-.02,0-.02,0-.04,0,0,0-.01,0-.02,0-.03,0-.05,0-.07,0,0,0-.01,0-.02,0-.02,0-.03,0-.04h0s0-.07,0-.09c0,0,0-.01,0-.02,0-.05,0-.09,0-.14,0,0,0-.01,0-.02,0-.03,0-.06,0-.09,0,0,0,0,0,0,0-.02,0-.03,0-.05,0,0,0,0,0,0,0-.03,0-.06,0-.09,0,0,0,0,0,0,0-.01,0-.02,0-.03-.03-.81-.69-1.45-1.5-1.45h0ZM182.17,116.36c-.06,0-.12,0-.18.01-.82.1-1.41.85-1.31,1.67.31,2.6.58,5.24.77,7.83,0,0,0,.02,0,.03,0,0,0,.02,0,.03v.05s0,.02,0,.03c0,0,0,.02,0,.03v.05c.06.79.72,1.39,1.5,1.39.04,0,.08,0,.11,0,.82-.06,1.44-.78,1.38-1.6,0-.02,0-.03,0-.05h0s0-.03,0-.04c0,0,0-.02,0-.03,0-.02,0-.04,0-.05,0,0,0-.02,0-.03,0,0,0-.02,0-.03-.04-.54-.08-1.08-.13-1.62h0s0-.04,0-.06h0s0-.04,0-.06c0,0,0,0,0,0,0-.04,0-.08-.01-.12h0s0-.04,0-.06c0,0,0-.01,0-.02,0-.01,0-.03,0-.04,0,0,0-.02,0-.02,0-.01,0-.03,0-.04,0,0,0,0,0-.01,0-.02,0-.04,0-.06,0,0,0-.01,0-.02,0-.01,0-.02,0-.04,0,0,0-.02,0-.02,0-.01,0-.02,0-.03,0,0,0-.02,0-.03,0-.01,0-.02,0-.03,0,0,0-.02,0-.03,0-.01,0-.03,0-.04,0-.01,0-.03,0-.04,0,0,0-.02,0-.03,0-.01,0-.02,0-.03,0,0,0-.02,0-.03,0,0,0-.02,0-.03,0,0,0-.02,0-.02,0-.01,0-.02,0-.03,0-.01,0-.02,0-.03,0-.02,0-.03,0-.05,0-.01,0-.02,0-.03,0-.01,0-.02,0-.03,0,0,0-.02,0-.03,0,0,0-.02,0-.03,0,0,0-.02,0-.03,0-.01,0-.02,0-.03,0-.01,0-.02,0-.03,0-.02,0-.03,0-.04,0-.01,0-.02,0-.03,0-.01,0-.02,0-.03,0,0,0-.02,0-.03,0,0,0-.02,0-.03,0,0,0-.02,0-.03,0,0,0-.02,0-.03,0-.01,0-.02,0-.03,0-.01,0-.02,0-.03,0-.01,0-.03,0-.04,0,0,0-.02,0-.03,0-.01,0-.02,0-.03,0,0,0-.02,0-.03,0-.01,0-.02,0-.03,0,0,0-.02,0-.03,0-.01,0-.02,0-.03,0,0,0-.02,0-.02,0-.02,0-.04,0-.05,0,0,0-.01,0-.02,0-.01,0-.02,0-.04,0,0,0-.02,0-.02,0-.01,0-.02,0-.03,0,0,0-.02,0-.02,0-.01,0-.03,0-.04,0,0,0-.01,0-.02,0-.02,0-.04,0-.06,0,0,0,0,0,0,0-.02,0-.03,0-.05,0,0,0-.02,0-.02,0-.01,0-.02,0-.04,0,0,0-.01,0-.02,0-.01,0-.03,0-.04,0,0,0-.01,0-.02,0-.04,0-.08-.01-.12,0,0,0-.01,0-.01,0-.02,0-.03,0-.05,0,0,0,0,0-.01,0-.02,0-.03,0-.05,0,0,0,0,0,0,0-.04,0-.08-.01-.12h0s0-.04,0-.06h0c-.12-1.22-.26-2.45-.41-3.66-.09-.76-.74-1.32-1.49-1.32h0ZM179.54,100.49c-.1,0-.21.01-.31.03-.81.17-1.33.97-1.16,1.78.54,2.56,1.03,5.16,1.46,7.73,0,0,0,.02,0,.03,0,0,0,.02,0,.03v.05s.01.02.01.03c0,0,0,.02,0,.03v.05c.13.73.77,1.26,1.49,1.26.08,0,.16,0,.25-.02.82-.14,1.37-.91,1.23-1.72h0s0-.04,0-.05c0,0,0-.02,0-.03,0,0,0-.02,0-.03,0-.02,0-.04,0-.05,0,0,0-.02,0-.03,0,0,0-.02,0-.03-.13-.78-.27-1.56-.41-2.34h0s0-.04-.01-.06h0s-.01-.08-.02-.12c0,0,0,0,0-.01,0-.02,0-.03,0-.05,0,0,0,0,0-.02,0-.01,0-.03,0-.04,0,0,0-.01,0-.02,0-.02,0-.03,0-.05,0,0,0,0,0-.02,0-.02,0-.03,0-.05,0,0,0-.02,0-.02,0-.01,0-.02,0-.03,0,0,0-.02,0-.03,0,0,0-.02,0-.02,0-.01,0-.02,0-.03,0,0,0,0,0-.01,0-.05-.02-.09-.02-.13,0,0,0,0,0,0,0-.02,0-.03,0-.04,0,0,0,0,0,0-.23-1.24-.47-2.46-.72-3.69,0,0,0,0,0,0,0-.01,0-.03,0-.04,0,0,0,0,0-.01,0-.01,0-.02,0-.04,0,0,0-.01,0-.02,0-.01,0-.02,0-.03,0-.01,0-.02,0-.03,0-.01,0-.02,0-.04,0-.01,0-.03,0-.04,0,0,0-.01,0-.02,0-.01,0-.03,0-.04,0,0,0,0,0-.02,0-.02,0-.03-.01-.05h0c-.05-.23-.09-.45-.14-.67-.15-.71-.77-1.19-1.47-1.19h0ZM175.54,84.91c-.14,0-.29.02-.44.07-.79.24-1.24,1.08-1,1.87.76,2.5,1.47,5.04,2.12,7.58,0,0,0,.02,0,.03,0,0,0,.02,0,.03v.05s.02.02.02.03c0,0,0,.02,0,.03v.05c.19.68.8,1.13,1.47,1.13.12,0,.25-.02.37-.05.8-.21,1.29-1.02,1.08-1.83,0,0,0,0,0,0,0,0,0-.01,0-.02,0,0,0,0,0-.01,0,0,0-.01,0-.02,0,0,0-.01,0-.02,0,0,0-.02,0-.03v-.03s-.01-.01-.01-.02c0,0,0-.02,0-.02,0,0,0-.02,0-.03-.15-.59-.3-1.17-.46-1.76h0s0-.04-.01-.05c0,0,0,0,0-.02,0-.01,0-.03-.01-.04,0,0,0-.01,0-.02,0-.01,0-.03-.01-.04,0-.01,0-.02,0-.03,0-.01,0-.02,0-.03,0-.01,0-.02,0-.03,0,0,0-.02,0-.02,0,0,0-.03,0-.03,0,0,0-.01,0-.02,0-.01,0-.02,0-.04,0,0,0,0,0,0-.01-.04-.03-.09-.04-.14,0,0,0,0,0,0-.49-1.82-1.01-3.63-1.56-5.43-.2-.64-.79-1.06-1.43-1.06h0ZM170.19,69.75c-.19,0-.38.04-.56.11-.77.31-1.14,1.18-.83,1.95.97,2.41,1.91,4.88,2.78,7.36,0,0,0,.02,0,.02,0,0,0,.02,0,.03l.02.05s0,.02,0,.03c0,0,0,.02,0,.03l.02.05c.22.62.8,1,1.42,1,.17,0,.33-.03.5-.09.78-.27,1.19-1.13.92-1.91,0,0,0,0,0-.01,0-.02-.01-.03-.02-.05,0,0,0-.01,0-.02,0,0,0-.01,0-.02,0-.02-.01-.04-.02-.06,0,0,0-.01,0-.02,0,0,0-.02,0-.03-.89-2.53-1.84-5.02-2.83-7.48-.24-.58-.8-.94-1.39-.94h0ZM163.47,55.14c-.23,0-.47.05-.69.17-.74.38-1.02,1.29-.64,2.02,1.19,2.29,2.35,4.67,3.45,7.06,0,0,0,.02.01.02,0,0,0,.02.01.02l.02.05s0,.02.01.02c0,0,0,.02.01.02l.02.05c.25.55.8.88,1.36.88.21,0,.42-.04.62-.14.75-.34,1.08-1.23.74-1.98,0-.01-.01-.03-.02-.04,0,0,0-.01,0-.02,0,0,0-.02-.01-.02,0,0,0-.02-.01-.03,0,0,0-.01,0-.02,0-.01-.01-.02-.02-.03,0,0,0-.02-.01-.02,0,0,0-.02-.01-.02,0-.01,0-.01-.01-.02,0,0,0,0,0-.01,0-.01-.01-.02-.02-.04,0,0,0,0,0,0-.01-.03-.02-.05-.03-.08,0,0,0,0,0,0,0-.01-.01-.02-.02-.04,0,0,0,0,0,0,0-.01-.01-.02-.02-.04,0,0,0,0,0,0-.02-.04-.04-.08-.06-.12,0,0,0,0,0,0,0-.01-.01-.02-.02-.04,0,0,0,0,0,0-.02-.04-.04-.08-.06-.12,0,0,0,0,0,0,0-.01-.01-.03-.02-.04,0,0,0,0,0,0-.02-.04-.04-.08-.06-.13h0s-.01-.03-.02-.04c0,0,0,0,0,0-1.02-2.18-2.07-4.32-3.17-6.43-.27-.51-.79-.8-1.33-.8h0ZM155.34,41.3c-.28,0-.57.08-.83.25-.69.46-.88,1.39-.42,2.08,1.42,2.14,2.82,4.38,4.15,6.65,0,0,0,.02.01.02,0,0,0,.02.01.02l.03.05s0,.02.01.02c0,0,0,.02.01.02l.03.05c.28.48.78.74,1.3.74.26,0,.52-.07.76-.21.71-.42.95-1.33.54-2.05-.01-.02-.02-.03-.03-.05h0s0-.02-.01-.03c0,0,0-.02-.01-.02,0,0,0,0,0,0,0-.01-.01-.02-.02-.04,0,0,0,0,0,0,0,0,0-.02-.01-.02,0,0,0-.02-.01-.02-.85-1.45-1.72-2.88-2.61-4.28,0,0,0,0,0,0-.02-.03-.04-.07-.07-.1,0,0,0,0,0,0-.03-.05-.07-.1-.1-.16h0c-.03-.05-.07-.1-.1-.15,0,0,0,0,0,0-.02-.03-.04-.07-.06-.1,0,0,0,0,0,0-.01-.02-.02-.03-.03-.05,0,0,0,0,0,0-.02-.03-.04-.07-.06-.1,0,0,0,0,0,0,0-.01-.02-.03-.03-.04h0s-.02-.04-.03-.06c0,0,0,0,0,0,0-.01-.02-.03-.03-.04,0,0,0,0,0-.01,0-.02-.02-.03-.03-.05,0,0,0,0,0,0-.01-.02-.02-.03-.03-.05,0,0,0,0,0,0,0-.01-.02-.03-.03-.04,0,0,0,0,0-.01-.02-.03-.04-.06-.06-.09,0,0,0,0,0-.01,0-.01-.02-.02-.02-.04,0,0,0,0,0-.01-.01-.02-.02-.03-.03-.05,0,0,0,0,0,0,0-.01-.02-.03-.03-.04,0,0,0-.01-.01-.02,0-.01-.01-.02-.02-.03,0,0,0,0,0-.01,0-.01-.02-.03-.03-.04,0,0,0,0,0-.01,0-.01-.01-.02-.02-.03,0,0,0-.01-.01-.02,0-.01-.01-.02-.02-.03,0,0,0,0,0-.01,0-.01-.02-.03-.03-.04,0,0,0-.01,0-.02,0-.01-.01-.02-.02-.03,0,0,0-.01-.01-.02,0-.01-.01-.02-.02-.03,0,0-.01-.02-.02-.02,0,0-.01-.02-.02-.03,0,0-.01-.02-.02-.02,0,0-.01-.02-.02-.02,0,0,0-.01-.01-.02,0-.01-.02-.03-.03-.04,0,0,0-.01-.01-.02,0,0-.01-.02-.02-.03,0,0-.01-.02-.01-.02,0,0,0-.01-.01-.02,0-.01-.01-.02-.02-.03,0,0-.01-.02-.02-.03s0-.01-.02-.02c0,0,0-.01-.01-.02,0,0-.01-.02-.02-.03,0,0,0-.01-.01-.02-.01-.02-.02-.03-.03-.05,0,0,0,0,0-.01,0,0-.01-.02-.02-.03,0,0,0-.01-.01-.02,0,0-.01-.02-.02-.03,0,0,0,0,0-.01-.01-.02-.03-.04-.04-.06,0,0,0,0,0,0,0-.01-.01-.02-.02-.03,0,0,0,0,0,0-.02-.03-.05-.07-.07-.1,0,0,0,0,0,0,0-.01-.01-.02-.02-.03,0,0,0,0,0,0-.02-.03-.04-.05-.06-.08-.29-.43-.76-.67-1.25-.67h0ZM145.7,28.51c-.35,0-.69.12-.98.36-.63.54-.7,1.49-.16,2.12,1.66,1.93,3.31,3.98,4.89,6.08,0,0,.01.01.02.02,0,0,.01.01.02.02l.03.04s.01.01.02.02c0,0,.01.01.02.02l.03.04c.29.39.74.6,1.2.6.31,0,.63-.1.9-.3.66-.5.8-1.43.3-2.1-.01-.02-.03-.04-.04-.05,0,0,0-.01-.01-.02,0,0,0-.01-.01-.02-.01-.01-.02-.03-.03-.04,0,0,0,0,0,0,0,0-.01-.01-.02-.02,0,0,0-.01-.01-.02-.6-.8-1.21-1.59-1.83-2.37,0,0,0,0,0,0-.02-.03-.05-.06-.07-.09,0,0,0,0,0-.01,0,0-.02-.02-.02-.03,0,0,0,0,0-.01-.01-.02-.02-.03-.04-.05,0,0,0-.01-.01-.02,0,0-.01-.02-.02-.02,0,0,0-.01-.01-.02,0-.01-.02-.02-.03-.03,0,0-.01-.02-.02-.02,0,0-.01-.01-.02-.02,0,0-.01-.02-.02-.02,0,0,0-.01-.01-.02,0-.01-.02-.02-.03-.04,0,0,0-.01-.02-.02,0,0-.01-.02-.02-.02,0,0,0-.01-.01-.02-.01-.01-.02-.03-.03-.04,0,0,0,0-.01-.01,0,0-.02-.02-.02-.03,0,0,0,0-.01-.02-.01-.01-.02-.03-.03-.04h0s-.02-.03-.03-.05c0,0,0,0,0-.01,0-.01-.02-.02-.03-.04,0,0,0,0,0,0-.01-.01-.02-.03-.04-.04,0,0,0,0,0,0-.01-.01-.02-.03-.03-.04,0,0,0,0,0,0-.01-.02-.02-.03-.04-.05h0s-.02-.03-.04-.05c0,0,0,0,0,0-.02-.03-.05-.06-.07-.09h0s-.05-.07-.08-.1h0c-.55-.68-1.1-1.35-1.66-2.01h0s-.05-.06-.08-.09c0,0,0,0,0,0-.01-.01-.02-.03-.04-.04h0s-.03-.03-.04-.05h0s-.02-.03-.03-.04c0,0,0,0,0,0-.01-.01-.02-.03-.04-.04,0,0,0,0,0,0-.01-.01-.02-.02-.03-.04,0,0,0,0-.01-.01,0-.01-.02-.02-.03-.03,0,0,0,0-.01-.01-.01-.01-.02-.02-.03-.04,0,0,0,0-.01-.02,0,0-.02-.02-.02-.03,0,0,0,0-.01-.01-.01-.01-.02-.02-.03-.04,0,0,0-.01-.02-.02,0,0-.01-.01-.02-.02,0,0-.01-.01-.02-.02,0,0,0-.01-.01-.02-.01-.01-.02-.03-.04-.04,0,0,0,0-.01-.01,0,0-.02-.02-.02-.03,0,0,0,0,0,0-.02-.02-.04-.05-.06-.07-.3-.34-.72-.52-1.14-.52h0ZM134.43,17.19c-.42,0-.84.18-1.14.52-.54.63-.47,1.58.16,2.11,1.92,1.64,3.83,3.42,5.68,5.28,0,0,.01.01.02.02,0,0,.01.01.02.02l.04.04s.01.01.02.02c0,0,.01.01.02.02l.04.04c.29.3.68.44,1.07.44s.76-.14,1.06-.43c.59-.58.59-1.53.01-2.12,0,0,0,0,0,0,0,0-.01-.01-.02-.02,0,0-.01-.01-.02-.02,0,0,0,0-.01-.01,0,0-.01-.01-.02-.02,0,0-.01-.01-.02-.02,0,0-.02-.02-.02-.02,0,0-.01-.01-.02-.02,0,0-.01-.01-.02-.02-.01-.01-.03-.03-.04-.04h0c-.31-.31-.61-.61-.92-.91h0c-.07-.07-.13-.13-.2-.2,0,0,0,0,0,0-.02-.02-.04-.04-.06-.06,0,0,0,0,0,0,0,0-.01-.01-.02-.02,0,0,0,0,0,0-.02-.02-.04-.04-.06-.06,0,0,0,0,0,0,0,0-.01-.01-.02-.02,0,0,0,0,0,0-.02-.02-.04-.04-.06-.06,0,0,0,0,0,0,0,0-.01-.01-.02-.02,0,0,0,0,0,0-.02-.02-.04-.04-.06-.06,0,0,0,0,0,0,0,0-.01-.01-.02-.02,0,0,0,0,0,0-.02-.02-.04-.04-.06-.06,0,0,0,0,0,0,0,0-.01-.01-.02-.02,0,0,0,0,0,0,0,0-.01-.01-.02-.02h0s-.03-.03-.04-.04h0s-.01-.01-.02-.02c0,0,0,0,0,0,0,0-.01-.01-.02-.02,0,0,0,0,0,0,0,0-.02-.02-.03-.03,0,0,0,0-.01-.01,0,0,0,0-.01-.01,0,0,0,0-.01-.01,0,0-.01,0-.02-.01,0,0,0,0,0,0-.01-.01-.02-.02-.03-.03,0,0,0,0,0,0,0,0-.01-.01-.02-.02,0,0,0,0-.01-.01,0,0-.01,0-.02-.01,0,0,0,0-.01,0,0,0-.02-.02-.02-.02,0,0-.01-.01-.01-.01,0,0,0,0-.01-.01,0,0,0,0-.01-.01,0,0,0,0-.01-.01,0,0,0,0-.01-.01,0,0,0,0-.01-.01,0,0-.02-.01-.02-.02,0,0,0,0-.01-.01,0,0,0,0-.01-.01,0,0,0,0-.01-.01,0,0,0,0-.01-.01,0,0,0,0-.01-.01-.01,0-.01-.01-.02-.02,0,0,0,0,0,0,0,0-.01-.01-.02-.02,0,0,0,0-.01-.01,0,0-.01-.01-.02-.02,0,0,0,0,0,0-.01,0-.02-.01-.03-.02,0,0,0,0,0,0,0,0-.01-.01-.02-.02,0,0,0,0-.01-.01,0,0-.01-.01-.02-.01,0,0,0,0-.01-.01-.01,0-.02-.01-.03-.02,0,0,0,0,0,0,0,0-.01-.01-.02-.02,0,0,0,0,0,0,0,0-.01-.01-.02-.02,0,0,0,0,0,0-.01,0-.01-.01-.02-.02,0,0,0,0,0,0,0,0-.01-.01-.02-.02,0,0,0,0,0,0,0,0-.02-.01-.02-.02,0,0,0,0,0,0-.02-.02-.03-.03-.05-.05,0,0,0,0,0,0,0,0-.02-.01-.02-.02,0,0,0,0,0,0-.01,0-.02-.02-.03-.02,0,0,0,0,0,0-.01,0-.02-.02-.03-.03,0,0,0,0,0,0,0,0-.02-.02-.02-.02,0,0,0,0,0,0-.01,0-.02-.02-.03-.02,0,0,0,0,0,0-.01,0-.02-.02-.03-.03,0,0,0,0,0,0-.01,0-.01-.01-.02-.02,0,0,0,0,0,0-.01,0-.01-.01-.02-.02,0,0,0,0,0,0-.01,0-.02-.02-.03-.03,0,0,0,0,0,0-.01,0-.02-.02-.03-.02,0,0,0,0,0,0-.03-.03-.06-.05-.09-.08,0,0,0,0,0,0-.03-.03-.06-.05-.09-.08,0,0,0,0,0,0-.01,0-.02-.02-.03-.02,0,0,0,0,0,0-.03-.03-.06-.05-.09-.08,0,0,0,0,0,0-.9-.83-1.8-1.63-2.72-2.42-.28-.24-.63-.36-.97-.36h0ZM121.43,8.02c-.52,0-1.03.27-1.31.76-.41.72-.15,1.64.57,2.04,2.18,1.23,4.36,2.61,6.49,4.12,0,0,.01.01.02.01,0,0,.01.01.02.02l.04.03s.01.01.02.02c0,0,.01.01.02.02l.04.03c.26.19.57.28.87.28.47,0,.93-.22,1.22-.63.48-.67.32-1.61-.35-2.09-.02-.01-.04-.03-.05-.04,0,0-.01,0-.02-.01,0,0-.01,0-.02-.01-.02-.01-.04-.03-.05-.04,0,0-.01-.01-.02-.02,0,0-.01-.01-.02-.02-1.03-.73-2.08-1.43-3.13-2.11,0,0,0,0,0,0,0,0-.02-.01-.02-.02h0s-.07-.04-.1-.07c0,0,0,0,0,0,0,0-.01,0-.02-.01,0,0,0,0,0,0,0,0-.01,0-.02-.01,0,0,0,0,0,0-.02-.01-.04-.03-.07-.04,0,0,0,0-.01,0,0,0-.01,0-.02-.01,0,0,0,0-.01,0,0,0-.01,0-.02-.01,0,0,0,0-.01,0-.02-.01-.04-.03-.06-.04,0,0-.01,0-.01,0,0,0-.01,0-.02,0,0,0,0,0-.01,0,0,0-.01,0-.02-.01,0,0-.01,0-.01,0,0,0-.01,0-.02-.01,0,0-.01,0-.02-.01,0,0-.02-.01-.03-.02,0,0-.01,0-.02,0,0,0,0,0-.01,0,0,0,0,0-.01,0,0,0-.01,0-.02,0,0,0-.01,0-.02,0,0,0,0,0-.01,0-.01,0-.02-.01-.03-.02,0,0,0,0-.01,0,0,0-.01,0-.02-.01,0,0,0,0-.01,0,0,0,0,0-.02,0,0,0-.01,0-.02,0,0,0-.01,0-.02-.01,0,0,0,0-.01,0-.01,0-.02-.01-.03-.02,0,0,0,0,0,0,0,0-.01,0-.02-.01,0,0,0,0-.01,0,0,0-.01,0-.02-.01,0,0,0,0-.01,0,0,0-.02-.01-.02-.01,0,0,0,0,0,0-.01,0-.02-.01-.03-.02,0,0,0,0,0,0-.01,0-.02,0-.03-.02,0,0,0,0,0,0,0,0-.02,0-.02-.01,0,0,0,0-.01,0,0,0-.02-.01-.02-.01,0,0,0,0,0,0-.02-.01-.04-.03-.06-.04h0s-.02-.01-.02-.02c0,0,0,0,0,0,0,0-.02-.01-.02-.01,0,0,0,0,0,0-.02-.01-.04-.02-.06-.04,0,0,0,0,0,0,0,0-.02-.01-.02-.01,0,0,0,0-.01,0,0,0-.02,0-.02-.01,0,0,0,0,0,0-.02-.01-.04-.03-.06-.04,0,0,0,0,0,0-.01,0-.02,0-.03-.02,0,0,0,0,0,0-.01,0-.01,0-.03-.02,0,0,0,0,0,0-.02-.01-.04-.03-.06-.04,0,0,0,0,0,0-.01,0-.02-.01-.03-.02,0,0,0,0,0,0-.01,0-.02,0-.03-.02,0,0,0,0,0,0-.03-.02-.06-.04-.09-.06,0,0,0,0,0,0,0,0-.02-.01-.02-.02,0,0,0,0,0,0-.02-.01-.04-.02-.06-.04,0,0,0,0,0,0-.01,0-.02,0-.03-.02,0,0,0,0,0,0,0,0-.02-.01-.02-.01,0,0,0,0,0,0-.01,0-.02-.01-.03-.02,0,0,0,0,0,0-.02-.01-.04-.02-.06-.04,0,0,0,0,0,0-.01,0-.02,0-.03-.02,0,0,0,0,0,0-.01,0-.02-.01-.03-.02,0,0,0,0,0,0-.02-.01-.04-.02-.06-.04,0,0,0,0,0,0,0,0-.02,0-.02-.01,0,0,0,0,0,0-.01,0-.02,0-.03-.02,0,0,0,0,0,0-.02-.01-.04-.02-.06-.04,0,0,0,0,0,0,0,0-.02,0-.02-.01,0,0,0,0-.01,0,0,0-.02-.01-.02-.01,0,0,0,0,0,0-.01,0-.02-.01-.03-.02,0,0,0,0,0,0-.01,0-.02,0-.03-.02,0,0,0,0-.01,0,0,0-.02,0-.02-.01,0,0,0,0,0,0,0,0-.02,0-.02-.01,0,0,0,0,0,0-.02-.01-.04-.02-.06-.04,0,0,0,0-.01,0,0,0-.02,0-.02-.01,0,0,0,0-.01,0,0,0-.01,0-.02-.01,0,0,0,0-.01,0,0,0-.01,0-.02-.01,0,0,0,0-.01,0,0,0-.01,0-.02-.01,0,0,0,0-.01,0,0,0,0,0-.01,0,0,0-.01,0-.02,0,0,0,0,0-.02,0,0,0-.01,0-.02,0,0,0-.01,0-.01,0-.01,0-.02-.01-.03-.02,0,0,0,0-.01,0,0,0-.01,0-.02-.01,0,0,0,0-.01,0,0,0-.01,0-.02-.01,0,0,0,0-.01,0,0,0-.01,0-.02-.01,0,0,0,0-.01,0-.02-.01-.05-.03-.07-.04,0,0,0,0,0,0,0,0-.02,0-.02-.01h0s-.07-.04-.1-.06c0,0,0,0,0,0,0,0-.02,0-.03-.01h0c-.21-.12-.41-.24-.62-.35-.23-.13-.49-.19-.74-.19h0ZM106.84,1.95c-.66,0-1.26.44-1.45,1.11-.22.8.25,1.62,1.05,1.84,2.4.65,4.82,1.49,7.19,2.47,0,0,.02,0,.02,0,0,0,.02,0,.02.01l.05.02s.02,0,.02,0c0,0,.02,0,.02.01l.05.02c.19.08.39.12.58.12.59,0,1.14-.35,1.38-.92.32-.76-.04-1.64-.8-1.96,0,0,0,0,0,0,0,0,0,0-.01,0,0,0,0,0,0,0-.01,0-.02,0-.03-.01,0,0-.02,0-.02,0,0,0-.02,0-.02-.01,0,0,0,0,0,0-.02,0-.03-.01-.04-.02,0,0-.02,0-.02,0,0,0-.02,0-.02-.01-.6-.25-1.2-.49-1.81-.72h0s-.02,0-.03-.01h0s-.1-.04-.15-.06c0,0,0,0,0,0,0,0-.02,0-.03-.01h0c-.06-.02-.12-.04-.17-.07h0s-.02,0-.03-.01c0,0,0,0,0,0-.05-.02-.1-.04-.14-.05h0s-.02,0-.03-.01h0s-.1-.04-.14-.05h0s-.02,0-.03-.01h0s-.02,0-.03-.01c0,0,0,0,0,0-.05-.02-.1-.04-.14-.05h0s-.02,0-.03-.01c0,0,0,0,0,0,0,0-.02,0-.03,0h0s-.08-.03-.11-.04c0,0,0,0,0,0,0,0-.02,0-.03,0h0s-.02,0-.03-.01h0s-.08-.03-.12-.04h0s-.02,0-.03-.01h0s-.02,0-.03-.01c0,0,0,0,0,0-.05-.02-.1-.03-.14-.05h0s-.02,0-.03-.01h0s-.1-.03-.14-.05c0,0,0,0,0,0,0,0-.02,0-.03,0h0s-.02,0-.03-.01c0,0,0,0,0,0-.05-.02-.1-.03-.14-.05h0s-.02,0-.03-.01c0,0,0,0,0,0,0,0-.02,0-.03,0h0s-.08-.03-.12-.04c0,0,0,0,0,0,0,0-.02,0-.03,0h0s-.02,0-.03-.01c0,0,0,0,0,0-.04-.01-.07-.03-.11-.04,0,0,0,0,0,0,0,0-.02,0-.03,0h0s-.02,0-.03-.01c0,0,0,0,0,0-.04-.01-.07-.02-.11-.04,0,0,0,0,0,0,0,0-.02,0-.02,0,0,0,0,0,0,0,0,0-.02,0-.03,0h0s-.02,0-.03-.01h0s-.08-.03-.11-.04c0,0,0,0,0,0,0,0-.02,0-.02,0h0s-.02,0-.02-.01c0,0,0,0,0,0-.04-.01-.07-.02-.11-.04,0,0,0,0,0,0,0,0-.02,0-.02,0,0,0,0,0,0,0,0,0-.01,0-.02,0,0,0,0,0,0,0,0,0-.01,0-.02,0,0,0,0,0,0,0-.03,0-.05-.02-.08-.02,0,0,0,0,0,0,0,0-.01,0-.02,0,0,0,0,0,0,0,0,0-.01,0-.02,0,0,0,0,0,0,0,0,0-.02,0-.02,0,0,0,0,0,0,0-.03,0-.05-.02-.08-.03h0s-.01,0-.02,0c0,0,0,0-.01,0,0,0-.01,0-.02,0,0,0,0,0-.01,0,0,0-.01,0-.02,0,0,0-.01,0-.01,0,0,0-.01,0-.02,0,0,0,0,0-.01,0-.01,0-.02,0-.04-.01,0,0,0,0-.01,0,0,0-.01,0-.02,0,0,0-.01,0-.02,0,0,0,0,0-.02,0,0,0-.01,0-.02,0h-.02s-.01,0-.02-.01c0,0-.01,0-.02,0,0,0-.01,0-.02,0,0,0,0,0-.01,0-.01,0-.02,0-.03-.01,0,0,0,0,0,0,0,0-.02,0-.03,0,0,0,0,0-.01,0,0,0-.02,0-.02,0,0,0,0,0-.01,0,0,0-.02,0-.02,0,0,0,0,0-.01,0,0,0-.02,0-.02,0,0,0,0,0,0,0-.02,0-.04-.01-.07-.02,0,0,0,0,0,0,0,0-.02,0-.03,0,0,0,0,0,0,0,0,0-.02,0-.03,0,0,0,0,0,0,0-.01,0-.02,0-.03,0,0,0,0,0,0,0-.04-.01-.07-.02-.1-.03,0,0,0,0,0,0-.01,0-.02,0-.03,0,0,0,0,0,0,0-.01,0-.02,0-.03,0,0,0,0,0,0,0-.05-.01-.09-.03-.14-.04,0,0,0,0,0,0-.54-.16-1.07-.31-1.61-.46-.13-.03-.26-.05-.39-.05h0ZM92.48,0h-.03s0,0-.01,0h-.02s0,0-.01,0c0,0-.01,0-.02,0,0,0,0,0-.01,0,0,0-.02,0-.02,0,0,0,0,0-.01,0,0,0-.01,0-.02,0,0,0,0,0-.01,0-.01,0-.02,0-.03,0,0,0,0,0,0,0,0,0-.02,0-.03,0,0,0,0,0-.01,0,0,0-.02,0-.02,0,0,0,0,0-.01,0,0,0-.02,0-.02,0,0,0,0,0-.01,0,0,0-.02,0-.02,0,0,0,0,0-.01,0-.01,0-.02,0-.03,0,0,0,0,0,0,0-.01,0-.02,0-.04,0,0,0,0,0,0,0,0,0-.02,0-.03,0,0,0,0,0,0,0,0,0-.02,0-.03,0,0,0,0,0-.01,0,0,0-.02,0-.02,0,0,0,0,0-.01,0,0,0-.02,0-.02,0,0,0,0,0-.01,0-.02,0-.05,0-.07,0,0,0,0,0,0,0,0,0-.02,0-.03,0,0,0,0,0,0,0,0,0-.02,0-.03,0,0,0,0,0-.01,0,0,0-.02,0-.03,0,0,0,0,0,0,0-.01,0-.02,0-.03,0,0,0,0,0,0,0-.02,0-.05,0-.07,0,0,0,0,0,0,0,0,0-.02,0-.03,0h0s-.02,0-.03,0h0s-.02,0-.03,0c0,0,0,0,0,0-.04,0-.07,0-.11,0,0,0,0,0,0,0,0,0-.02,0-.03,0,0,0,0,0,0,0,0,0-.02,0-.03,0,0,0,0,0-.01,0,0,0-.02,0-.03,0,0,0,0,0,0,0-.04,0-.07,0-.11,0,0,0,0,0,0,0-.01,0-.02,0-.03,0,0,0,0,0,0,0-.01,0-.02,0-.03,0,0,0,0,0,0,0-.05,0-.09,0-.14,0,0,0,0,0,0,0-.01,0-.02,0-.03,0,0,0,0,0,0,0-.01,0-.02,0-.03,0,0,0,0,0,0,0-.05,0-.1,0-.14,0,0,0,0,0,0,0-.01,0-.02,0-.03,0,0,0,0,0,0,0-.01,0-.02,0-.04,0,0,0,0,0,0,0-.05,0-.1,0-.15,0h0c-.07,0-.15,0-.22,0,0,0,0,0,0,0-1.94.08-3.86.26-5.77.54-.82.12-1.38.88-1.26,1.7.11.75.75,1.28,1.48,1.28.07,0,.15,0,.22-.02,2.5-.37,5.04-.55,7.54-.55h0c2.1,0,4.23.13,6.33.39,0,0,.02,0,.03,0,0,0,.02,0,.03,0h.05s.02,0,.03,0c0,0,.02,0,.03,0h.05c.06.01.13.02.19.02.74,0,1.39-.55,1.49-1.31.1-.82-.48-1.57-1.3-1.68-.01,0-.02,0-.03,0-.01,0-.02,0-.03,0,0,0-.01,0-.02,0,0,0-.02,0-.03,0,0,0-.02,0-.03,0-.01,0-.02,0-.03,0,0,0-.01,0-.02,0,0,0-.02,0-.03,0-.75-.09-1.51-.17-2.26-.23h0s-.05,0-.08,0c0,0,0,0,0,0,0,0-.02,0-.02,0h0s-.05,0-.07,0c0,0,0,0,0,0-.02,0-.04,0-.07,0,0,0,0,0,0,0,0,0-.01,0-.02,0,0,0,0,0,0,0-.01,0-.03,0-.04,0,0,0,0,0,0,0,0,0-.01,0-.02,0,0,0,0,0-.01,0,0,0-.01,0-.02,0,0,0,0,0,0,0-.01,0-.02,0-.04,0,0,0,0,0-.01,0,0,0-.01,0-.02,0,0,0-.01,0-.01,0,0,0-.02,0-.03,0,0,0-.01,0-.02,0,0,0-.01,0-.02,0,0,0-.01,0-.02,0,0,0-.01,0-.02,0,0,0-.02,0-.03,0,0,0,0,0-.01,0,0,0-.01,0-.02,0,0,0,0,0-.01,0,0,0-.02,0-.02,0,0,0,0,0-.01,0,0,0-.02,0-.03,0,0,0,0,0-.01,0,0,0-.01,0-.02,0,0,0,0,0-.01,0-.01,0-.02,0-.03,0,0,0,0,0,0,0,0,0-.02,0-.02,0,0,0,0,0-.01,0,0,0-.02,0-.03,0,0,0,0,0,0,0,0,0-.02,0-.03,0,0,0,0,0-.01,0,0,0-.02,0-.02,0,0,0,0,0-.01,0-.01,0-.02,0-.03,0,0,0,0,0,0,0,0,0-.02,0-.03,0,0,0,0,0,0,0-.01,0-.02,0-.03,0,0,0,0,0,0,0-.01,0-.02,0-.03,0,0,0,0,0,0,0-.01,0-.02,0-.03,0,0,0,0,0,0,0-.01,0-.02,0-.03,0,0,0,0,0,0,0,0,0-.02,0-.03,0,0,0,0,0,0,0-.02,0-.04,0-.07,0,0,0,0,0,0,0-.01,0-.02,0-.03,0,0,0,0,0,0,0-.01,0-.02,0-.03,0,0,0,0,0,0,0-.01,0-.02,0-.03,0,0,0,0,0,0,0-.02,0-.04,0-.07,0,0,0,0,0,0,0-.01,0-.02,0-.03,0,0,0,0,0,0,0-.01,0-.02,0-.03,0,0,0,0,0,0,0-.01,0-.02,0-.03,0,0,0,0,0,0,0-.02,0-.04,0-.07,0,0,0,0,0,0,0-.01,0-.02,0-.03,0,0,0,0,0,0,0-.01,0-.02,0-.04,0,0,0,0,0,0,0-.01,0-.02,0-.03,0,0,0,0,0,0,0-.02,0-.04,0-.07,0,0,0,0,0,0,0-.01,0-.02,0-.03,0,0,0,0,0,0,0-.01,0-.02,0-.04,0,0,0,0,0,0,0-.01,0-.02,0-.03,0,0,0,0,0,0,0-.02,0-.04,0-.07,0,0,0,0,0,0,0-.02,0-.05,0-.07,0,0,0,0,0,0,0-.01,0-.02,0-.03,0,0,0,0,0,0,0-.02,0-.05,0-.07,0,0,0,0,0,0,0-.01,0-.02,0-.03,0,0,0,0,0,0,0-.01,0-.02,0-.04,0,0,0,0,0,0,0-.01,0-.02,0-.03,0,0,0,0,0,0,0-.02,0-.04,0-.07,0,0,0,0,0,0,0-.02,0-.04,0-.07,0,0,0,0,0,0,0-.01,0-.02,0-.03,0,0,0,0,0,0,0-.02,0-.05,0-.07,0,0,0,0,0,0,0-.02,0-.05,0-.07,0,0,0,0,0,0,0-.01,0-.02,0-.03,0,0,0,0,0,0,0-.02,0-.05,0-.07,0,0,0,0,0,0,0-.02,0-.05,0-.07,0,0,0,0,0,0,0-.01,0-.02,0-.03,0,0,0,0,0,0,0-.02,0-.05,0-.07,0,0,0,0,0,0,0-.02,0-.04,0-.07,0,0,0,0,0,0,0-.01,0-.02,0-.03,0,0,0,0,0,0,0-.02,0-.04,0-.07,0,0,0,0,0,0,0-.02,0-.04,0-.07,0,0,0,0,0,0,0-.01,0-.02,0-.03,0,0,0,0,0,0,0-.01,0-.02,0-.03,0,0,0,0,0,0,0-.01,0-.02,0-.03,0,0,0,0,0,0,0-.01,0-.02,0-.03,0h0s-.02,0-.03,0c0,0,0,0,0,0-.01,0-.02,0-.03,0,0,0,0,0,0,0-.01,0-.02,0-.03,0,0,0,0,0,0,0-.01,0-.02,0-.03,0,0,0,0,0,0,0-.02,0-.04,0-.07,0,0,0,0,0,0,0-.01,0-.02,0-.03,0,0,0,0,0,0,0-.01,0-.02,0-.03,0,0,0,0,0,0,0-.01,0-.02,0-.03,0,0,0,0,0,0,0-.02,0-.04,0-.07,0,0,0,0,0,0,0-.01,0-.02,0-.03,0,0,0,0,0,0,0-.01,0-.02,0-.03,0,0,0,0,0,0,0,0,0-.02,0-.03,0,0,0,0,0,0,0-.01,0-.02,0-.03,0h0s-.02,0-.03,0c0,0,0,0,0,0-.01,0-.02,0-.03,0,0,0,0,0,0,0-.01,0-.02,0-.03,0,0,0,0,0,0,0-.01,0-.02,0-.03,0,0,0,0,0,0,0-.01,0-.02,0-.03,0h0s-.02,0-.03,0c0,0,0,0,0,0,0,0-.02,0-.03,0,0,0,0,0,0,0-.01,0-.02,0-.03,0,0,0,0,0,0,0,0,0-.02,0-.03,0,0,0,0,0,0,0-.01,0-.02,0-.03,0h0s-.02,0-.03,0c0,0,0,0,0,0,0,0-.02,0-.03,0h0s-.02,0-.03,0c0,0,0,0,0,0h-.03s0,0,0,0h-.03Z"/>
</svg>