<?xml version="1.0" encoding="UTF-8"?>
<svg id="_레이어_1" xmlns="http://www.w3.org/2000/svg" version="1.1" viewBox="0 0 184.96 250">
  <!-- Generator: Adobe Illustrator 30.3.0, SVG Export Plug-In . SVG Version: 2.1.3 Build 182)  -->
  <defs>
    <style>
      .st0 {
        fill: #fff;
      }

      .st1 {
        fill: #9e9f9f;
      }
    </style>
  </defs>
  <path class="st0" d="M184.96,138.93c0,69.04-41.4,111.07-92.48,111.07S0,207.97,0,138.93,42.02,0,92.48,0s92.48,69.9,92.48,138.93Z"/>
  <path class="st1" d="M75.263,3.061c-.152,0-.306.023-.459.072-3.135,1.025-6.215,2.312-9.235,3.841-.733.376-1.025,1.275-.652,2.011.264.522.791.822,1.339.822.228,0,.459-.052.676-.162,2.895-1.466,5.854-2.697,8.797-3.66.787-.257,1.216-1.104.959-1.891-.207-.632-.794-1.034-1.425-1.034h0Z"/>
  <path class="st1" d="M59.471,10.723c-.278,0-.558.077-.809.238-2.745,1.783-5.433,3.77-8.046,5.939-.634.529-.721,1.472-.193,2.108.297.357.724.542,1.155.542.337,0,.677-.113.956-.346,2.531-2.1,5.14-4.026,7.755-5.724.694-.451.892-1.38.441-2.074-.287-.442-.768-.683-1.259-.683h0Z"/>
  <path class="st1" d="M45.731,21.826c-.378,0-.756.142-1.048.427-.002.002.002-.002,0,0-.006.006-.012.012-.019.018-.002.002-.008.007-.01.01-.006.006-.012.012-.018.017-.002.002-.008.008-.011.01-.006.006-.012.012-.018.018-.002.002-.007.007-.01.009-.006.006-.012.012-.018.018-.005.005-.006.005-.01.01-.006.006-.012.012-.018.018-.005.005-.005.005-.01.01-.006.006-.011.011-.017.017-.005.005-.006.006-.011.011-.006.006-.012.012-.018.017-.002.002-.007.007-.009.009-.006.006-.012.012-.019.018-.002.002-.006.006-.009.009-.007.007-.014.013-.02.02l-.002.002c-.044.043-.087.086-.131.129l-.005.005c-.007.007-.014.013-.02.02-.002.002-.006.006-.009.009-.006.006-.011.011-.017.017-.005.005-.008.008-.013.013-.005.005-.01.01-.015.015-.005.005-.007.007-.012.012-.006.006-.011.011-.017.017-.005.005-.006.006-.011.011-.006.006-.011.011-.017.017-.002.002-.008.008-.011.011-.006.006-.011.011-.017.017-.002.002-.009.009-.011.011-.006.006-.012.012-.018.018-.002.002-.005.005-.008.007-.007.007-.014.014-.021.021l-.004.004c-.023.023-.046.045-.069.068-.005.005-.006.006-.011.01-.007.007-.013.013-.019.019-.002.002-.006.006-.008.008-.006.006-.013.012-.019.019-.002.002-.007.007-.01.01-.006.006-.011.011-.017.017-.002.002-.009.009-.012.012-.006.006-.011.011-.017.017-.005.005-.006.006-.011.011-.006.006-.012.012-.018.018t-.01.01c-.006.006-.012.012-.018.018l-.011.011c-.005.005-.011.011-.016.016-.005.005-.008.008-.013.013-.005.005-.011.011-.016.016-.002.002-.009.009-.011.011-.006.006-.012.012-.017.018-.002.002-.006.006-.008.008-.032.032-.064.064-.096.096-.002.002-.005.005-.007.007-.007.007-.013.013-.02.02-.002.002-.006.006-.008.008-.006.006-.012.012-.018.018-.002.002-.009.009-.011.011-.006.006-.011.011-.016.017-.002.002-.009.009-.011.011-.006.006-.011.011-.017.017-.005.005-.006.006-.011.011-.006.006-.012.012-.018.018-.005.005-.005.005-.01.01-.006.006-.012.012-.018.018-.005.005-.007.007-.011.012-.006.006-.011.011-.017.017-.002.002-.009.009-.011.011-.006.006-.012.012-.017.018-.002.002-.008.008-.01.011-.006.006-.012.012-.018.018-.002.002-.005.005-.008.008-.007.007-.014.014-.021.021-.002.002,0,0-.002.002-.025.025-.049.05-.074.075-.002.002-.004.004-.006.006-.006.006-.013.013-.019.02-.002.003-.006.007-.009.009-.006.006-.012.013-.019.019-.002.002-.007.007-.009.01-.006.006-.012.012-.018.018-.002.002-.008.008-.01.011-.006.006-.011.012-.017.018-.005.005-.006.006-.011.011-.006.006-.011.011-.017.017-.005.005-.006.006-.011.011-.006.006-.012.013-.018.019-.002.003-.006.006-.008.008-.006.007-.013.013-.019.02-.002.003-.006.006-.008.009-.006.007-.013.013-.02.02-.002.002-.005.005-.007.008-.007.007-.014.014-.02.021l-.006.006c-.031.032-.063.064-.094.096-.005.005-.006.006-.011.011-.006.006-.013.013-.019.02-.002.003-.005.006-.008.008-.006.007-.013.013-.019.02-.002.003-.007.007-.009.009-.006.006-.012.012-.018.018-.002.003-.008.008-.01.01-.006.006-.012.012-.018.018-.005.005-.006.006-.011.011-.006.006-.012.012-.018.018-.002.003-.007.007-.009.01-.006.006-.012.013-.018.019-.002.003-.008.008-.01.01-.006.006-.012.012-.018.018-.002.003-.008.008-.011.011-.006.006-.011.012-.017.017-.002.003-.01.01-.012.013-.005.005-.01.011-.016.016-.005.005-.005.005-.009.01-.022.023-.044.046-.067.069-.002.003-.004.004-.007.007-.006.006-.012.013-.019.019-.002.003-.007.007-.009.01-.006.006-.012.012-.017.018-.002.003-.008.009-.011.011-.005.006-.011.011-.016.017-.002.003-.01.01-.012.013-.005.005-.01.01-.015.015-.005.005-.008.009-.013.014-.005.005-.01.011-.016.016-.005.005-.007.007-.012.012-.005.006-.011.012-.017.017-.005.005-.006.006-.01.011-.006.006-.012.012-.018.019-.002.003-.007.008-.01.01-.006.006-.012.012-.018.018-.002.003-.008.008-.01.011-.006.006-.012.013-.018.019-.002.003-.006.006-.008.008-.006.007-.013.013-.019.02-.005.005-.004.004-.009.009-.013.013-.025.026-.038.039-.002.003-.006.006-.008.008-.007.007-.014.014-.021.022-.002.003-.004.004-.006.006-.006.007-.013.013-.019.02-.002.003-.007.007-.009.01-.006.006-.012.012-.018.019-.002.003-.007.007-.009.01-.006.006-.012.012-.017.018-.002.003-.009.009-.012.012-.005.005-.01.01-.015.016-.005.005-.008.008-.013.013-.005.005-.011.011-.016.017-.005.005-.007.008-.012.013-.005.005-.011.011-.016.016-.005.005-.007.007-.012.013-.005.006-.011.011-.016.017-.002.003-.009.01-.012.012-.005.006-.011.012-.016.017-.002.003-.008.008-.01.011-.006.006-.012.013-.018.019-.002.003-.006.006-.009.009-.006.007-.013.013-.019.02-.002.003,0,0-.002.002-.026.027-.051.054-.077.081l-.002.002c-.007.007-.014.015-.021.022-.002.003-.004.005-.007.007-.006.007-.012.013-.019.02-.002.003-.007.007-.009.01-.006.006-.012.013-.018.019-.002.003-.008.008-.01.01-.006.006-.012.012-.017.018-.005.005-.005.006-.01.011-.006.006-.012.013-.018.019-.005.005-.005.005-.01.01-.006.006-.012.013-.018.019-.002.003-.007.007-.009.01-.006.007-.013.014-.019.02-.002.003-.005.005-.007.007-.007.007-.013.014-.02.021-.002.003-.006.006-.008.009-.006.007-.013.014-.02.021-.002.003-.005.005-.007.008-.007.007-.013.014-.02.021-.002.003,0,0-.003.003-.025.026-.05.053-.075.079l-.003.004c-.007.007-.014.014-.02.022-.002.003-.005.005-.008.008-.007.008-.014.015-.022.023-.002.003-.002.002-.005.005-.007.008-.014.015-.021.023-.002.003-.004.005-.007.007-.007.007-.013.014-.02.021-.002.003-.005.005-.007.008-.006.007-.013.013-.019.02-.005.005-.005.005-.01.011-.006.006-.012.013-.018.019-.002.003-.006.006-.008.009-.006.007-.013.014-.019.021-.002.003-.006.006-.008.008-.007.007-.013.014-.019.021-.002.003-.005.006-.008.008-.007.007-.013.014-.02.021-.002.003,0,0-.003.003-.033.035-.065.07-.098.105-.002.003-.005.005-.007.008-.007.007-.014.015-.02.022-.002.003-.004.004-.006.007-.007.007-.014.015-.021.022-.002.003-.004.004-.006.007-.007.008-.015.016-.022.023-.002.003-.003.003-.005.005-.007.008-.014.015-.021.023l-.006.006c-.008.008-.015.016-.023.025l-.002.002c-.008.009-.016.017-.024.026-.002.003,0,0-.002.003-.07.075-.14.151-.21.227h-.001c-.009.011-.017.02-.026.029-.002.003.001-.002,0,0-.008.009-.016.017-.024.026-.002.003-.002.002-.005.005-.007.008-.015.016-.023.024l-.004.004c-.008.008-.016.017-.023.025-.002.003,0,0-.003.003-.008.009-.016.018-.024.026h-.001c-.07.078-.141.154-.211.231h0c-.008.009-.016.018-.025.027-.002.003,0,0-.003.003-.008.009-.017.018-.025.027h-.001c-.008.01-.016.019-.025.028l-.003.003c-.008.009-.017.018-.025.027-.002.003.002-.002,0,0-.009.01-.017.019-.026.029h0c-.846.927-1.682,1.874-2.507,2.84-.538.629-.464,1.576.166,2.114.282.241.629.36.973.36.423,0,.844-.178,1.14-.525,2.146-2.511,4.378-4.902,6.634-7.108.592-.579.603-1.528.024-2.12-.294-.301-.683-.451-1.072-.451h0Z"/>
  <path class="st1" d="M34.072,35.2c-.456,0-.906.207-1.201.6-.8,1.067-1.588,2.152-2.364,3.255-.002.003-.002.003-.004.006-.007.009-.013.019-.02.028v.002c-.03.04-.058.08-.086.12-.002.003-.003.004-.005.007-.005.007-.01.015-.015.022-.002.003-.007.01-.009.013-.005.006-.009.013-.014.02-.004.006-.006.008-.01.015-.004.006-.009.012-.013.019-.004.006-.008.012-.013.018-.004.005-.007.011-.011.016-.004.006-.009.013-.014.019-.003.005-.007.01-.01.015-.009.012-.015.021-.024.034h0c-.009.012-.016.023-.025.036-.002.002-.003.005-.005.007-.006.009-.013.019-.02.028-.002.003-.004.006-.006.009-.006.009-.012.017-.018.026-.002.003-.004.006-.007.01-.006.009-.013.018-.019.027-.002.002-.003.004-.004.006-.006.009-.014.02-.02.029-.002.003-.004.005-.005.008-.034.049-.066.095-.1.144,0,0,0,0,0,.001-.742,1.068-1.472,2.151-2.192,3.251,0,0,0,0,0,.001-.008.013-.014.021-.022.034-.002.002-.003.005-.005.007-.008.013-.011.017-.019.029-.002.003-.003.005-.005.008-.006.009-.012.019-.019.029-.002.003-.004.006-.006.009-.006.009-.012.018-.018.027-.002.003-.004.006-.006.009-.006.01-.011.018-.018.027-.005.008-.01.016-.015.023-.006.01-.007.011-.013.02-.004.006-.008.012-.011.018-.004.006-.007.011-.011.017-.004.007-.009.013-.013.02-.004.006-.006.01-.01.016-.005.007-.009.014-.014.021-.002.003-.006.009-.008.012-.005.008-.01.016-.015.024-.002.003-.005.008-.007.011-.005.008-.011.017-.016.025l-.002.003c-.136.209-.271.419-.406.629-.447.697-.245,1.624.451,2.072.251.161.531.238.809.238.493,0,.976-.243,1.263-.689,1.784-2.778,3.659-5.48,5.571-8.032.497-.662.362-1.602-.3-2.099-.27-.202-.585-.3-.898-.3h0Z"/>
  <path class="st1" d="M24.343,50.093c-.52,0-1.026.271-1.303.755-.031.054-.064.113-.095.167-.002.004-.004.008-.007.012-.011.02-.027.048-.039.068l-.004.008c-.008.013-.013.022-.02.036-.004.006-.007.013-.011.019-.01.017-.02.035-.029.052-.005.008-.009.017-.014.025-.006.01-.011.02-.017.03-.008.015-.017.03-.025.045-.004.007-.01.018-.014.025-.008.014-.016.028-.024.042-.006.01-.01.017-.015.027-.007.013-.015.026-.022.039-.004.007-.007.013-.011.02-.01.017-.02.035-.03.053-.004.007-.006.011-.01.018-.01.019-.021.037-.031.055-.002.003-.003.006-.005.009-.01.017-.02.035-.029.052-.002.003-.005.009-.007.012-.011.019-.022.039-.032.058-.002.003-.005.009-.007.012-.011.02-.023.04-.034.061-.002.003,0-.001-.001.002-.012.021-.023.042-.035.063l-.003.005c-.012.021-.023.042-.035.063-.002.003-.002.004-.004.007-.856,1.531-1.691,3.085-2.505,4.661-.002.003,0,0-.002.003-.012.022-.023.045-.035.067l-.002.004c-.023.044-.045.087-.068.131-.002.003-.004.007-.005.011-.01.02-.021.04-.031.06-.002.003-.005.009-.007.013-.01.019-.02.039-.03.058-.002.003,0,.001-.002.005-.01.019-.02.039-.03.059-.002.003-.007.014-.009.018-.009.018-.019.036-.028.055-.004.007-.006.012-.01.019-.008.015-.015.029-.022.044-.005.01-.009.017-.014.027-.007.014-.015.028-.022.043-.004.007-.009.018-.013.025-.009.017-.017.034-.026.05-.005.01-.008.015-.013.025-.006.011-.011.022-.017.033-.007.014-.015.03-.022.044-.005.009-.009.018-.014.027-.005.011-.012.023-.017.034-.004.009-.009.017-.013.026-.009.018-.017.034-.026.052-.003.007-.006.013-.01.019-.011.021-.02.039-.031.06-.003.006-.006.011-.009.017-.021.042-.04.078-.061.12,0,.001-.001.002-.002.003-.327.646-.65,1.294-.97,1.947-.36.742-.052,1.637.69,2,.212.104.437.153.659.153.554,0,1.087-.309,1.347-.84,1.449-2.958,2.992-5.876,4.584-8.672.41-.719.159-1.635-.561-2.045-.234-.133-.489-.197-.741-.197h0Z"/>
  <path class="st1" d="M16.397,66.044c-.578,0-1.129.337-1.375.9-1.314,3.034-2.553,6.135-3.712,9.286-.283.776.115,1.636.891,1.921.171.063.345.092.517.092.611,0,1.184-.376,1.407-.982,1.133-3.081,2.359-6.15,3.646-9.122.329-.76-.02-1.642-.78-1.972-.194-.084-.396-.124-.595-.124h0Z"/>
  <path class="st1" d="M10.146,82.746c-.633,0-1.221.404-1.426,1.037-.263.826-.521,1.656-.774,2.488,0,0,0,0,0,0-.01.032-.018.059-.027.091,0,.002,0,.003-.001.005-.014.047-.027.088-.041.135,0,.003-.002.006-.003.009-.013.043-.026.087-.039.131-.002.006-.003.011-.005.017-.007.024-.015.049-.022.073-.001.005-.003.009-.004.014-.005.016-.007.025-.012.041-.002.006-.003.011-.005.017-.007.024-.014.046-.021.07-.002.006-.004.012-.005.018-.005.016-.007.024-.012.039-.002.006-.004.013-.006.019-.007.024-.013.045-.02.068-.002.006-.004.012-.006.019-.012.04-.026.087-.038.127-.002.006-.004.012-.005.018-.007.024-.015.051-.022.075-.001.004-.002.008-.004.012-.004.012-.008.028-.012.04-.002.007-.004.014-.006.02-.007.024-.013.043-.02.067-.002.007-.004.013-.006.02-.004.012-.008.026-.011.038-.003.009-.005.018-.008.027-.006.02-.011.038-.017.058-.002.008-.005.016-.007.024-.012.04-.024.083-.036.122-.002.008-.005.016-.007.024-.006.02-.012.042-.018.062-.002.007-.004.015-.006.022-.005.016-.007.023-.011.039-.002.008-.005.016-.007.024-.006.02-.012.04-.018.06-.002.008-.005.016-.007.024-.003.012-.008.027-.011.038-.002.007-.004.014-.006.021-.006.02-.013.043-.018.063-.002.008-.005.017-.007.025-.006.02-.011.037-.016.056-.003.009-.005.019-.008.028-.003.012-.007.025-.011.037-.002.008-.005.016-.007.025-.006.02-.012.04-.017.06-.002.008-.005.016-.007.025-.005.016-.006.022-.011.038-.002.007-.004.014-.006.02-.007.024-.013.044-.02.068-.002.006-.004.012-.005.018-.011.04-.026.091-.038.13-.001.004-.002.008-.004.013-.013.044-.026.089-.038.133-.001.004-.002.007-.003.011-.008.028-.016.057-.024.085,0,.001,0,.003-.001.004-.014.048-.026.091-.04.139,0,.002-.001.004-.002.005-.014.048-.026.092-.04.14,0,0,0,.001,0,.002-.404,1.415-.794,2.84-1.166,4.27-.206.8.274,1.617,1.074,1.825.127.033.254.049.379.049.666,0,1.274-.447,1.45-1.122.824-3.165,1.743-6.342,2.732-9.445.251-.789-.184-1.632-.973-1.884-.151-.048-.305-.071-.456-.071h0Z"/>
  <path class="st1" d="M5.557,99.985c-.689,0-1.309.478-1.463,1.177-.407,1.894-.786,3.799-1.136,5.711,0,.001,0,.002,0,.003-.009.049-.017.095-.026.145,0,.001,0,.003,0,.005-.009.049-.017.095-.026.145,0,.001,0,.002,0,.004-.009.049-.017.096-.026.145,0,.001,0,.003,0,.004-.006.033-.011.06-.017.093,0,.001,0,.003,0,.005-.003.016-.006.032-.009.048,0,0,0,0,0,0-.006.033-.011.06-.017.093,0,.003-.001.006-.002.009-.008.045-.016.091-.024.137,0,.005-.002.011-.003.017-.008.045-.016.089-.024.135,0,.005-.002.009-.003.014-.004.025-.01.058-.015.083,0,.003-.001.006-.002.009-.003.017-.005.026-.007.042-.001.006-.002.012-.003.019-.004.025-.008.044-.012.069-.001.008-.003.015-.004.023-.003.017-.004.022-.007.039-.001.008-.003.016-.004.024-.004.021-.007.041-.011.062-.002.01-.003.019-.005.028-.002.012-.004.022-.006.035-.003.015-.005.03-.008.044-.003.017-.004.024-.007.04-.002.012-.004.024-.006.035-.002.012-.003.018-.005.03-.003.019-.006.037-.01.056-.002.012-.003.017-.005.029-.002.013-.005.026-.007.04-.001.008-.003.018-.004.026-.003.02-.007.039-.01.059-.001.008-.003.017-.004.025-.003.017-.006.034-.009.051,0,.004-.003.015-.003.019-.003.02-.007.039-.01.059-.001.008-.002.014-.004.023-.004.022-.007.043-.011.065,0,.004,0,.002-.001.006-.004.021-.007.042-.011.063,0,.004-.002.011-.003.015-.004.023-.008.046-.012.069v.006c-.005.022-.009.045-.013.067,0,.004,0,.004-.001.008-.004.024-.008.049-.012.073v.003c-.101.591-.198,1.182-.292,1.774-.13.818.427,1.586,1.244,1.717.08.013.159.019.238.019.724,0,1.361-.526,1.479-1.263.513-3.217,1.122-6.469,1.809-9.665.174-.809-.341-1.607-1.15-1.781-.106-.023-.212-.034-.317-.034h0Z"/>
  <path class="st1" d="M2.654,117.586c-.75,0-1.398.562-1.487,1.325,0,.008-.001.011-.002.019,0,.008-.002.015-.003.023-.002.021-.005.046-.008.067,0,.008-.002.016-.003.023-.005.042-.01.088-.015.13,0,.007-.002.014-.002.021-.003.025-.006.054-.009.079,0,.004,0,.007-.001.011-.001.013-.003.03-.005.042,0,.006-.001.012-.002.019-.003.025-.006.055-.009.08,0,.003,0,.007-.001.01-.002.017-.003.028-.005.044,0,.005-.001.01-.002.015-.003.025-.006.055-.009.08,0,.005-.001.009-.002.014-.002.017-.003.028-.005.044,0,.004,0,.007-.001.011-.003.025-.006.057-.009.082,0,.005-.001.01-.002.014-.005.046-.01.092-.015.138,0,.004,0,.009-.001.013-.005.05-.01.09-.015.141,0,.003,0,.006,0,.009-.005.05-.01.094-.016.145,0,0,0,.002,0,.003-.014.134-.028.265-.043.399,0,0,0,0,0,.001-.011.1-.021.2-.031.3,0,0,0,0,0,.001-.108,1.038-.207,2.075-.296,3.115,0,0,0,.001,0,.002-.004.05-.008.097-.013.147,0,.002,0,.003,0,.005-.004.05-.008.094-.012.144,0,.003,0,.007,0,.01-.004.05-.008.09-.012.141,0,.004,0,.009-.001.013-.002.025-.005.058-.007.083,0,.004,0,.008,0,.011-.001.017-.002.027-.004.044,0,.006,0,.011-.001.017-.002.025-.004.049-.006.075,0,.006-.001.013-.002.019-.001.017-.002.025-.003.042,0,.005,0,.01-.001.015-.002.025-.004.049-.006.074,0,.007-.001.015-.002.022-.001.013-.002.027-.003.039,0,.011-.002.022-.003.033-.002.021-.003.035-.004.056,0,.009-.001.018-.002.028-.001.013-.002.024-.003.036-.001.017-.003.035-.004.053-.001.013-.002.023-.003.036,0,.01-.002.021-.002.031-.001.017-.002.027-.003.043-.001.015-.002.03-.004.045,0,.013-.001.018-.002.031-.001.014-.002.028-.003.042,0,.013-.002.022-.003.035-.001.016-.003.032-.004.048,0,.008-.002.021-.002.029-.001.017-.003.034-.004.051,0,.008-.001.018-.002.027-.001.016-.003.033-.004.05,0,.008-.001.016-.002.025-.002.021-.003.041-.005.062,0,.008,0,.009-.001.017-.001.018-.003.035-.004.053,0,.004-.001.016-.002.02-.002.022-.003.044-.005.065,0,.008,0,.007-.001.015-.001.019-.003.038-.004.058,0,.004,0,.01-.001.015-.002.023-.003.046-.005.068,0,.004,0,.009,0,.013-.002.022-.003.044-.005.066,0,.004,0,.001,0,.005-.002.024-.004.048-.005.073,0,.004,0,.004,0,.009-.004.049-.007.098-.011.148v.007c-.004.051-.008.101-.012.151v.002c-.059.805-.111,1.61-.159,2.415-.049.827.582,1.536,1.409,1.585.03.002.06.003.089.003.788,0,1.448-.615,1.495-1.411.191-3.24.477-6.533.852-9.79.095-.823-.496-1.566-1.318-1.661-.058-.007-.116-.01-.173-.01h0Z"/>
  <path class="st1" d="M1.512,135.38c-.819,0-1.488.659-1.499,1.48-.006.432-.009.864-.012,1.297v.003c0,.066,0,.132,0,.198v.011c0,.02,0,.04,0,.059v.004c0,.021,0,.043,0,.064,0,.004,0,.007,0,.011,0,.018,0,.035,0,.053,0,.004,0,.01,0,.015,0,.019,0,.038,0,.057,0,.004,0,.002,0,.006,0,.021,0,.042,0,.063,0,.004,0,.009,0,.013,0,.016,0,.033,0,.049,0,.004,0,.014,0,.018,0,.018,0,.036,0,.055,0,.004,0,.002,0,.007,0,.02,0,.041,0,.061,0,.004,0,.014,0,.018,0,.015,0,.03,0,.045,0,.004,0,.014,0,.019,0,.02,0,.041,0,.061H0c0,.019,0,.038,0,.057,0,.004,0,.014,0,.018,0,.013,0,.026,0,.039,0,.008,0,.013,0,.022,0,.012,0,.025,0,.037,0,.004,0,.016,0,.02,0,.014,0,.027,0,.041,0,.004,0,.013,0,.017,0,.018,0,.037,0,.055,0,.008,0,.01,0,.019,0,.013,0,.025,0,.038,0,.004,0,.018,0,.022,0,.012,0,.024,0,.036,0,.008,0,.014,0,.023,0,.011,0,.023,0,.034,0,.008,0,.015,0,.023,0,.018,0,.036,0,.054,0,.004,0,.01,0,.014,0,.014,0,.028,0,.043,0,.004,0,.018,0,.023,0,.011,0,.023,0,.034,0,.008,0,.015,0,.024,0,.011,0,.023,0,.035,0,.004,0,.018,0,.023,0,.015,0,.03,0,.045,0,.004,0,.007,0,.011,0,.018,0,.037,0,.055,0,.008,0,.015,0,.024,0,.011,0,.022,0,.033,0,.008,0,.019,0,.027,0,.009,0,.019,0,.028,0,.008,0,.021,0,.029,0,.01,0,.019,0,.029,0,.008,0,.019,0,.027,0,.011,0,.023,0,.035,0,.013,0,.034,0,.046,0,.009,0,.017,0,.026,0,.013,0,.017,0,.029,0,.009,0,.018,0,.027,0,.008,0,.023,0,.031,0,.008,0,.016,0,.023,0,.013,0,.019,0,.032,0,.008,0,.016,0,.024,0,.021,0,.041,0,.062,0,.007,0,.013,0,.02,0,.013,0,.022,0,.035,0,.006,0,.013,0,.019,0,.013,0,.023,0,.035,0,.007,0,.014,0,.02,0,.013,0,.022,0,.035,0,.006,0,.013,0,.019,0,.042,0,.085.001.127,0,.004,0,.008,0,.012,0,.013,0,.028,0,.04,0,.004,0,.009,0,.013,0,.017,0,.023,0,.04,0,.004,0,.009,0,.013,0,.063.001.123.002.186,0,.003,0,.007,0,.01,0,.017,0,.026,0,.043,0,.003,0,.006,0,.008,0,.067.002.129.002.195h0c0,.017,0,.031,0,.047,0,.002,0,.004,0,.006.012.901.032,1.795.058,2.686h0c.002.083.005.163.007.245,0,.001,0,.002,0,.003,0,.017,0,.029.001.045,0,.003,0,.005,0,.008.002.062.004.123.006.185,0,.004,0,.008,0,.012,0,.012,0,.026.001.038,0,.006,0,.011,0,.017,0,.012,0,.023.001.035,0,.007,0,.014,0,.02,0,.012,0,.022.001.035h0c0,.029.002.053.003.081,0,.007,0,.014,0,.021,0,.012,0,.019.001.031,0,.008,0,.016,0,.025,0,.008,0,.022.001.03,0,.008,0,.016,0,.025,0,.012,0,.017.001.03,0,.011,0,.023.001.034,0,.012,0,.013,0,.026,0,.016.001.033.002.049,0,.008,0,.007,0,.015,0,.014.001.028.002.042,0,.004,0,.012,0,.016,0,.014.001.028.002.042,0,.004,0,.011,0,.015.021.563.044,1.123.07,1.682.038.803.701,1.429,1.496,1.429.024,0,.047,0,.071-.002.827-.039,1.466-.741,1.428-1.568-.118-2.518-.177-5.098-.177-7.671,0-.716.005-1.432.014-2.147.011-.828-.652-1.508-1.48-1.518-.007,0-.013,0-.02,0h0Z"/>
  <path class="st1" d="M2.248,153.183c-.049,0-.098.002-.148.007-.822.08-1.424.811-1.347,1.633.331,3.384.769,6.693,1.309,9.921.125.73.759,1.246,1.476,1.246.082,0,.165-.007.249-.021.817-.137,1.368-.909,1.231-1.726-.529-3.163-.96-6.429-1.28-9.707-.076-.774-.728-1.353-1.49-1.353h0Z"/>
  <path class="st1" d="M5.07,170.748c-.11,0-.222.012-.335.038-.806.184-1.311.985-1.129,1.791.414,1.818.862,3.605,1.343,5.366,0,0,0,.001,0,.002.004.014.007.026.011.04,0,0,0,.001,0,.002.023.084.045.166.068.249,0,.002,0,.004.001.005.004.014.005.019.009.033.001.004.002.008.003.012.002.007.006.022.008.029.001.004.002.008.003.011.002.007.007.024.009.031,0,.003.002.006.002.008.004.014.006.021.01.035,0,.002.001.004.002.006.003.01.007.023.009.034,0,.003.001.005.002.008.008.028.015.054.023.081,0,.002.001.004.002.006.003.01.006.022.009.032.001.005.003.011.004.016.002.007.005.017.007.024.002.006.003.012.005.018.002.007.004.015.006.022.002.005.003.011.005.016.002.007.005.018.007.025.002.006.003.011.005.017.002.007.004.014.006.021.002.007.004.013.006.02,0,.003.004.014.005.018.002.008.004.015.006.023,0,.003.003.011.004.014.002.008.005.016.007.024,0,.003.001.005.002.008.01.035.019.069.029.104h0c.003.011.006.021.009.031,0,.003.002.007.003.01.003.01.005.019.008.029,0,.003.002.006.003.009.003.01.006.02.008.03l.002.008c.003.01.006.021.009.032,0,.003,0,.002.001.005.003.011.006.022.009.033v.002c.297,1.044.605,2.078.924,3.101.2.642.792,1.053,1.431,1.053.148,0,.298-.022.447-.068.79-.247,1.231-1.087.985-1.878-.952-3.052-1.804-6.221-2.534-9.42-.158-.695-.776-1.166-1.46-1.166h0Z"/>
  <path class="st1" d="M10.233,187.735c-.18,0-.363.033-.541.102-.771.299-1.155,1.165-.858,1.937,1.225,3.164,2.568,6.218,4.019,9.156.262.527.792.832,1.344.832.223,0,.45-.05.663-.155.742-.367,1.047-1.266.68-2.008-1.413-2.86-2.728-5.856-3.909-8.904-.23-.594-.797-.958-1.398-.958h0Z"/>
  <path class="st1" d="M17.949,203.69c-.26,0-.523.068-.763.21-.712.422-.947,1.342-.525,2.054.04.068.081.136.121.204.002.003,0,0,.002.004.006.01.012.02.018.03.002.003.003.004.004.007.005.009.01.018.016.026.003.006.003.005.007.011.004.007.009.015.013.022.003.006.005.008.008.014.004.007.008.013.012.02.003.006.006.01.009.016.003.006.007.012.011.018.003.006.007.011.01.016.003.006.007.011.01.017.005.008.007.012.012.02.003.004.005.008.008.013.005.008.008.014.013.022.002.004.005.008.007.012.005.008.01.016.015.024.002.003.003.005.005.008.005.008.011.018.016.026.001.002.003.005.004.007.007.011.011.017.017.029,0,.001.002.003.003.004.005.008.011.019.016.027.001.002.003.005.005.008.005.008.011.018.016.026.001.002.003.005.004.007.005.008.01.017.015.025.002.003.003.006.005.008.007.011.009.016.016.027.001.002.002.004.004.006.007.011.011.018.017.029,0,.001.002.003.003.004.007.011.012.02.019.031,0,0,0,.001.001.002.007.011.012.021.019.032,0,0,0,.001,0,.002.861,1.423,1.75,2.812,2.667,4.171,0,0,0,0,0,.001.021.032.041.06.062.092,0,.001.002.003.003.004.005.008.01.015.016.023.002.003.004.006.006.01.005.008.011.016.016.024.002.002.003.005.005.007.005.008.011.017.017.025.002.003.003.005.005.007.005.008.012.017.017.025.001.002.003.004.004.006.005.008.011.016.016.023.002.003.004.006.006.009.005.008.01.015.016.023.002.003.004.006.006.009.005.008.01.015.016.023.002.003.004.006.006.009.005.008.01.014.015.022.002.003.005.007.007.01.005.008.007.011.013.019.003.005.006.009.01.014.005.008.007.01.012.018.003.005.006.009.01.014.004.005.008.012.012.018.003.005.006.009.01.014.004.005.009.013.013.018.003.005.006.009.01.014.004.005.007.01.011.016.004.006.008.011.012.017.004.005.007.01.01.015.004.006.008.011.011.016.004.005.007.01.011.016.004.005.007.011.011.016.004.005.007.01.011.016.004.006.008.012.012.018.002.003.006.009.008.012.005.007.009.014.014.02.004.005.005.007.008.012.004.006.009.013.013.019.004.005.005.007.009.013.004.006.009.013.013.019.004.005.006.008.009.013.004.006.009.013.013.019.002.003.005.008.007.011.005.007.01.015.015.022.004.005.004.005.007.011.005.007.009.014.014.021.004.005.004.006.008.011.005.007.009.013.014.02.004.005.005.007.009.013.005.007.01.014.014.021.002.003.004.006.006.009.006.008.011.016.017.024l.005.007c.006.008.011.016.017.025l.005.007c.006.008.011.016.016.024.004.005.003.004.006.009.005.008.011.016.016.024.002.003.003.005.005.007.006.008.011.016.017.024.002.003.004.006.006.008.006.008.011.016.017.024.002.003.003.005.005.008.005.008.011.015.016.023.002.003.005.007.007.009.006.008.011.016.017.024.002.003.002.003.004.006.006.009.012.017.018.026.002.003.002.003.004.006.006.009.012.017.018.026.002.003.002.003.004.006.006.008.012.017.017.025.002.003.003.005.005.007.006.009.012.017.018.026.002.003.002.002.003.005.006.009.012.018.019.027.002.003.002.003.004.006.006.009.012.018.019.027.002.003.001.002.003.004.006.009.012.018.018.026.002.003.002.003.004.006.007.01.014.019.02.029h0c.007.011.014.021.021.031v.002c.016.021.03.041.045.062h0c.311.445.626.885.943,1.321l.002.002c.007.01.014.02.021.029h0c.007.011.014.02.021.03.002.003,0,0,.002.003.007.01.014.019.021.029.002.003-.001-.002,0,0,.007.01.014.02.021.029.002.003,0,.001.003.004.007.009.014.019.02.028.002.003,0,0,.002.003.007.009.013.018.02.028.002.003.002.002.003.005.007.009.013.018.02.027.002.003,0,.001.003.004.006.009.013.018.019.026.002.003.003.004.005.006.006.008.012.016.018.025.002.003.003.004.005.006.006.008.012.016.017.024.002.003.004.006.006.008.006.008.012.016.017.024.002.003.003.004.005.007.006.008.011.015.017.023.004.005.003.004.007.009.005.007.011.015.016.022.004.005.003.004.007.009.005.007.01.014.015.021.004.005.004.005.008.011.005.007.01.014.015.021q.004.005.008.01c.005.006.009.013.014.019.004.005.006.008.01.013.005.006.009.012.013.018.004.005.005.007.009.012.005.006.009.012.013.018.002.003.004.006.006.008.294.398.747.608,1.207.608.309,0,.621-.095.889-.293.666-.492.807-1.43.316-2.097-1.892-2.563-3.692-5.28-5.35-8.078-.28-.472-.779-.735-1.291-.735h0Z"/>
  <path class="st1" d="M28.318,218.02c-.351,0-.704.123-.989.373-.622.546-.683,1.494-.137,2.116.122.138.243.276.366.414h0c.008.01.017.019.025.029l.002.003c.007.008.015.016.022.024.002.002.005.006.007.008.006.007.013.014.019.021.002.002.004.005.006.007.006.007.013.014.019.021.004.005.003.004.007.008.006.007.012.014.018.021.002.002.006.006.008.009.005.006.011.012.016.018.004.005.006.007.01.012.005.005.01.011.015.016.004.005.007.008.011.013.005.005.009.01.013.015.004.005.008.009.012.014.004.005.008.009.013.014.006.007.008.008.014.015.003.003.006.007.009.01.006.007.011.012.017.019.002.002.004.005.007.007.006.007.012.014.019.021.002.002.003.003.005.005,2.025,2.255,4.141,4.388,6.341,6.393.286.258.645.385,1.003.385.407,0,.813-.165,1.108-.489.558-.612.514-1.56-.098-2.118-2.354-2.146-4.629-4.465-6.763-6.894-.296-.337-.711-.51-1.127-.51h0Z"/>
  <path class="st1" d="M41.24,230.055c-.454,0-.902.205-1.197.595-.499.66-.369,1.6.291,2.1l.002.002c.041.031.082.062.123.093l.004.003c.009.007.018.013.027.02l.004.003c.008.006.017.013.026.019.002.002.004.003.007.005.008.006.017.013.025.019.002.002.003.002.005.004.008.006.016.012.024.018.002.002.006.004.008.006.008.006.016.012.024.018.002.002.003.003.006.004.009.006.018.013.026.02.002.002.002.001.004.003.062.047.124.093.187.14h.002c.01.009.02.016.029.023h.002c.01.008.019.016.029.023l.003.002c.01.007.019.014.029.021h.002c.01.008.02.016.029.023.002.002,0,0,.002.002.105.078.209.155.314.232h0c.01.008.021.015.031.023h0c.01.008.02.015.031.023h0c2.359,1.731,4.794,3.333,7.298,4.801.238.14.499.206.757.206.515,0,1.016-.265,1.295-.741.419-.714.179-1.633-.535-2.052-2.754-1.615-5.45-3.416-8.013-5.355-.271-.205-.588-.304-.903-.304h0Z"/>
  <path class="st1" d="M56.351,239.153c-.565,0-1.106.321-1.36.867-.349.751-.024,1.642.727,1.992,1.697.789,3.42,1.522,5.167,2.197l.004.002c.01.004.021.008.031.012.003.001.003,0,.005.002.01.004.02.008.03.011.003.001.006.002.008.003.009.003.018.007.026.01.006.002.005.002.01.004.008.003.016.006.024.009.006.002.006.002.012.005.008.003.016.006.024.009.003.001.009.003.011.004.008.003.015.006.023.009.006.002.008.003.013.005.007.003.014.005.021.008.006.002.009.003.014.005.007.003.013.005.019.007.006.002.013.005.018.007.011.004.021.008.032.012.006.002.008.003.014.005.007.003.013.005.02.008.008.003.011.004.02.007.005.002.01.004.015.006.008.003.013.005.021.008.004.002.008.003.013.005.008.003.014.005.023.009.004.001.008.003.012.004.006.002.018.007.024.009.003.001.006.002.009.003.008.003.017.007.026.01.003.001.005.002.008.003.008.003.019.007.027.01.002,0,.003.001.005.002.011.004.019.007.03.011,0,0,0,0,0,0,.089.034.177.067.266.1,0,0,0,0,.001,0,1.08.404,2.17.786,3.268,1.146.153.05.309.073.462.073.63,0,1.217-.401,1.424-1.032.258-.787-.171-1.634-.957-1.892-3.046-.999-6.061-2.19-8.96-3.539-.205-.095-.42-.14-.631-.14h0Z"/>
  <path class="st1" d="M73.042,244.852c-.684,0-1.303.472-1.461,1.168-.183.807.323,1.611,1.13,1.794,1.915.435,3.851.806,5.808,1.112h0c.026.004.051.008.077.012h0c.103.016.206.032.309.048h.001c.012.002.025.004.037.006h.002c.012.002.024.004.036.006.003,0,.001,0,.004,0,.011.002.022.003.033.005h.006c.011.002.022.004.033.006h.006c.011.003.022.004.033.006.003,0,.001,0,.004,0,.011.002.022.003.033.005t.006,0c.011.002.023.003.035.005h.002c.077.012.154.023.231.034h.003c.011.002.022.004.034.005.003,0,.005,0,.008.001.01.001.02.003.031.004.003,0,.004,0,.007,0,.01.002.021.003.032.005.003,0,.003,0,.006,0,.011.002.022.003.033.005h.005c.011.002.022.004.033.005.003,0,.003,0,.006,0,.011.002.022.003.032.005.003,0,.003,0,.006,0,.011.002.023.003.034.005h.003c.013.002.025.004.037.006h.001c.064.009.128.018.193.027h.004c.011.002.023.004.034.005.003,0,.003,0,.006,0,.011.001.021.003.032.004.003,0,.005,0,.008.001.01.001.02.003.029.004.003,0,.006,0,.009.001.01.001.019.003.029.004h.009c.01.003.02.004.03.005.003,0,.004,0,.007,0,.011.001.021.003.032.004.003,0,.003,0,.006,0,.011.002.023.003.034.005h.004c.012.002.024.004.036.005h.003c.077.011.155.021.232.032h.002c.012.002.025.004.037.005h.002c.012.002.024.003.036.005.003,0,0,0,.004,0,.012.002.024.003.036.005h.002c.012.002.025.003.037.005h.002c.648.086,1.298.164,1.95.236.056.006.111.009.165.009.755,0,1.404-.568,1.488-1.336.09-.823-.504-1.563-1.327-1.654-3.205-.351-6.406-.887-9.515-1.593-.112-.025-.223-.038-.333-.038h0Z"/>
  <path class="st1" d="M100.397,246.655c-.044,0-.089.002-.134.006-2.561.226-5.179.341-7.783.341-.627,0-1.253-.007-1.877-.02-.011,0-.021,0-.032,0-.813,0-1.481.651-1.498,1.468-.017.828.64,1.513,1.468,1.53.502.011,1.005.017,1.508.019.003,0,.007,0,.01,0,.007,0,.014,0,.021,0,.006,0,.007,0,.013,0,.007,0,.013,0,.02,0,.003,0,.012,0,.015,0,.009,0,.019,0,.028,0,.009,0,.012,0,.021,0,.005,0,.011,0,.016,0,.006,0,.013,0,.019,0,.005,0,.01,0,.015,0,.006,0,.015,0,.021,0,.004,0,.009,0,.013,0,.006,0,.02,0,.026,0,.003,0,.005,0,.008,0,.012,0,.022,0,.035,0,.002,0,.004,0,.005,0,.012,0,.017,0,.029,0,.003,0,.007,0,.011,0,.006,0,.018,0,.025,0,.004,0,.007,0,.011,0,.006,0,.019,0,.026,0,.003,0,.006,0,.009,0,.012,0,.022,0,.035,0h0c.012,0,.022,0,.034,0,.004,0,.009,0,.013,0,.006,0,.016,0,.022,0,.005,0,.009,0,.014,0,.006,0,.015,0,.021,0,.005,0,.009,0,.014,0,.006,0,.016,0,.022,0,.004,0,.009,0,.013,0,.009,0,.018,0,.027,0,.002,0,.005,0,.007,0,.012,0,.023,0,.036,0,.001,0,.002,0,.004,0,.012,0,.019,0,.031,0,.004,0,.008,0,.012,0,.006,0,.015,0,.021,0,.005,0,.01,0,.016,0,.006,0,.014,0,.021,0,.005,0,.009,0,.014,0,.006,0,.017,0,.023,0,.004,0,.008,0,.011,0,.025,0,.046,0,.071,0,.001,0,.003,0,.004,0,.012,0,.019,0,.031,0,.002,0,.005,0,.007,0,.006,0,.022,0,.028,0,.003,0,.007,0,.01,0,.006,0,.018,0,.024,0,.004,0,.008,0,.011,0,.009,0,.017,0,.026,0,.003,0,.006,0,.009,0,.025,0,.047,0,.072,0,.001,0,.003,0,.004,0,.012,0,.019,0,.032,0,.002,0,.004,0,.006,0,.012,0,.017,0,.03,0,.002,0,.005,0,.008,0,.012,0,.018,0,.03,0,.002,0,.003,0,.005,0,.037,0,.072,0,.109,0,.001,0,.002,0,.004,0,.012,0,.02,0,.033,0,.001,0,.003,0,.004,0,.012,0,.02,0,.033,0,.001,0,.002,0,.004,0,.05,0,.097-.001.147-.002.001,0,.002,0,.003,0,.012,0,.021,0,.033,0,.001,0,.003,0,.004,0,.012,0,.02,0,.033,0,.001,0,.003,0,.004,0,.05,0,.098-.001.147-.002,0,0,0,0,.001,0,.012,0,.024,0,.036,0,0,0,0,0,0,0,2.1-.031,4.182-.134,6.246-.306,0,0,.002,0,.002,0,.037-.003.072-.006.109-.009,0,0,.001,0,.002,0,.012-.001.019-.002.031-.003.004,0,.007,0,.011,0,.006,0,.018-.002.024-.002.004,0,.008,0,.012-.001.006,0,.015-.001.021-.002.005,0,.01,0,.015-.001.006,0,.013-.001.019-.002.005,0,.01,0,.015-.001.006,0,.013-.001.019-.002.013-.001.026-.002.04-.003h.006c.008-.001.017-.002.025-.003.003,0,.004,0,.007,0,.008,0,.017-.001.025-.002.003,0,.005,0,.008,0,.008,0,.016-.001.024-.002.003,0,0,0,.004,0,.825-.073,1.434-.801,1.361-1.625-.069-.78-.723-1.367-1.492-1.367h0Z"/>
  <path class="st1" d="M117.725,243.313c-.144,0-.291.021-.436.065-3.053.927-6.206,1.687-9.373,2.258-.815.147-1.356.927-1.209,1.742.131.725.762,1.233,1.474,1.233.088,0,.178-.008.268-.024,3.301-.596,6.541-1.377,9.712-2.34.792-.241,1.24-1.078.999-1.87-.196-.647-.791-1.064-1.434-1.064h0Z"/>
  <path class="st1" d="M133.959,236.423c-.247,0-.497.061-.728.19-2.798,1.558-5.718,2.964-8.679,4.179-.766.314-1.132,1.19-.818,1.956.238.58.797.93,1.388.93.189,0,.382-.036.568-.112t.006-.002c.008-.003.016-.007.024-.01.003-.001.007-.003.01-.004.008-.003.017-.007.026-.011.005-.002.005-.002.01-.004.01-.004.02-.008.03-.012.003-.001.002,0,.004-.002.011-.005.023-.01.035-.014.003-.001.007-.003.01-.004.008-.003.017-.007.025-.01.005-.002.008-.003.014-.006.007-.003.013-.006.02-.008.008-.003.01-.004.018-.007.005-.002.011-.005.016-.007.005-.002.014-.006.019-.008.005-.002.009-.004.014-.006.005-.002.015-.006.021-.009.005-.002.009-.004.013-.006.005-.002.016-.007.022-.009.004-.001.007-.003.011-.005.008-.003.015-.006.023-.01.004-.001.007-.003.01-.004.008-.003.016-.007.024-.01.003-.001.005-.002.008-.003.008-.003.018-.008.026-.011,0,0,.002,0,.003-.001.055-.023.107-.044.161-.067,0,0,0,0,0,0,.011-.005.019-.008.03-.012.002,0,.003-.001.005-.002.011-.005.017-.007.028-.012.002,0,.004-.002.006-.002.011-.005.016-.007.027-.011.002,0,.005-.002.007-.003.011-.005.017-.007.028-.012,0,0,.002,0,.003-.001.011-.005.02-.008.03-.013,0,0,0,0,.001,0,.722-.304,1.438-.618,2.15-.943,0,0,0,0,0,0,.108-.049.214-.098.322-.147,0,0,.001,0,.002,0,.011-.005.019-.009.03-.014,0,0,.002,0,.002-.001.011-.005.018-.008.029-.013.002,0,.004-.002.005-.002.011-.005.018-.008.028-.013,0,0,.001,0,.002,0,.073-.034.147-.068.219-.102.003-.001.005-.002.008-.004.008-.004.017-.008.026-.012.003-.001.005-.002.007-.003.008-.004.017-.008.025-.012.003-.001.006-.003.009-.004.011-.005.014-.007.025-.012.003-.001.006-.003.009-.004.008-.004.015-.007.023-.011.003-.002.007-.003.011-.005.008-.004.016-.007.024-.011.003-.001.005-.003.008-.004.008-.004.016-.008.024-.011.003-.001.006-.003.009-.004.038-.018.072-.034.11-.052.005-.002.009-.004.014-.006.008-.004.01-.005.018-.009.005-.002.01-.005.015-.007.008-.004.01-.005.018-.008.006-.003.011-.005.017-.008.005-.003.012-.006.017-.008.005-.002.01-.005.015-.007.005-.003.014-.007.019-.009.005-.002.01-.005.015-.007.005-.003.012-.006.018-.008.006-.003.011-.005.016-.008.005-.003.011-.005.016-.008.007-.003.013-.006.02-.009.005-.003.009-.004.014-.007.007-.003.014-.007.021-.01.005-.003.007-.004.013-.006.034-.016.068-.032.102-.049.003-.001.005-.003.008-.004.009-.004.017-.008.026-.012.003-.001.008-.004.01-.005.008-.004.016-.008.024-.012.003-.001.006-.003.009-.004.009-.004.018-.008.026-.013.003-.001.005-.002.008-.004.009-.004.018-.009.027-.013.003-.001.005-.002.007-.004.009-.004.018-.008.026-.013.003-.001.006-.003.009-.004.01-.005.019-.009.029-.014l.004-.002c.011-.005.022-.01.033-.016h.002c.047-.023.094-.046.14-.068h0c.012-.006.023-.011.035-.017h.001c.011-.006.022-.011.033-.016.003-.001,0,0,.003-.002,1.452-.702,2.883-1.446,4.294-2.232.723-.403.983-1.316.58-2.039-.274-.492-.785-.77-1.311-.77h0Z"/>
  <path class="st1" d="M148.384,226.263c-.35,0-.701.122-.986.37-2.425,2.118-4.987,4.108-7.615,5.915-.682.469-.855,1.403-.386,2.085.291.423.76.65,1.237.65.293,0,.589-.086.848-.264,2.728-1.876,5.361-3.92,7.889-6.128.624-.545.688-1.492.143-2.115-.296-.339-.712-.513-1.13-.513h0Z"/>
  <path class="st1" d="M160.465,213.37c-.45,0-.894.201-1.19.585-1.975,2.568-4.093,5.038-6.294,7.339-.572.598-.551,1.547.047,2.12.29.278.664.416,1.036.416.393,0,.786-.154,1.08-.459.3-.313.596-.627.892-.946,0,0,0,0,0,0,.008-.009.015-.017.024-.026,0,0,.002-.002.003-.003.008-.009.014-.015.022-.024.001-.001.003-.003.004-.004.008-.009.013-.014.022-.023.001-.001.003-.003.004-.004.008-.009.013-.014.021-.023.002-.002.003-.003.005-.005.008-.009.013-.014.021-.023.002-.002.003-.003.005-.005.006-.007.014-.015.02-.022.002-.002.004-.004.006-.006.006-.007.014-.015.02-.022.001-.001.003-.003.004-.004.006-.007.015-.016.021-.023.002-.002.004-.005.007-.007.006-.007.012-.013.019-.02.004-.005.008-.009.012-.014.004-.005.008-.009.012-.013.006-.007.013-.014.019-.02.002-.002.005-.006.007-.008.009-.009.017-.018.026-.028.002-.002.003-.004.005-.006.007-.007.013-.015.02-.022.004-.005.005-.005.009-.01.006-.006.011-.013.017-.019.004-.005.003-.004.008-.008.006-.006.012-.013.018-.019.004-.005.005-.006.01-.011.006-.006.011-.012.017-.018.002-.002.005-.005.007-.008.006-.007.013-.014.019-.021.002-.002.004-.005.006-.007.007-.007.014-.015.02-.022.002-.002.002-.002.004-.005.007-.008.014-.015.021-.023.002-.002.005-.005.007-.007.007-.007.013-.014.019-.021.002-.002.004-.004.006-.007.007-.007.014-.015.02-.022.002-.002.003-.003.005-.005.007-.008.014-.016.022-.024l.004-.004c.007-.008.015-.016.022-.024l.004-.005c.008-.009.016-.017.024-.026h.001c.009-.011.017-.02.026-.029h0c1.427-1.568,2.811-3.196,4.147-4.885l.002-.003c.007-.009.014-.018.021-.027.002-.002.003-.003.004-.006.006-.008.012-.016.019-.023.002-.002.006-.007.008-.009.006-.007.011-.014.017-.022.002-.002.005-.006.007-.008.006-.007.011-.014.017-.022.002-.002.005-.006.007-.009.006-.007.012-.015.017-.022.004-.005.003-.004.007-.009.005-.007.01-.013.016-.02.004-.005.005-.007.009-.012.005-.006.01-.013.015-.019.004-.005.006-.007.009-.012.005-.006.009-.012.014-.018.004-.005.006-.008.01-.013.004-.005.009-.011.013-.017.004-.005.008-.01.012-.015.003-.004.007-.008.01-.012.006-.007.009-.012.015-.019.002-.003.005-.006.007-.009.006-.007.011-.014.017-.022.002-.002.003-.004.005-.006.006-.007.013-.017.019-.024.001-.002.003-.003.004-.005.176-.225.353-.453.528-.68.502-.656.378-1.595-.277-2.099-.272-.209-.594-.311-.913-.311h0Z"/>
  <path class="st1" d="M169.93,198.417c-.543,0-1.067.296-1.333.812-1.494,2.895-3.128,5.72-4.857,8.396-.449.696-.25,1.624.446,2.073.252.162.533.24.812.24.491,0,.972-.241,1.259-.683.825-1.277,1.624-2.579,2.401-3.91,0,0,0,0,0,0,.007-.011.013-.022.019-.033h0c.007-.012.012-.021.019-.033,0-.001.001-.002.002-.003.007-.011.011-.019.018-.031,0-.001.001-.002.002-.003.007-.011.011-.018.017-.03.001-.002.002-.004.003-.006.007-.011.01-.017.017-.029,0-.002.002-.003.003-.005.007-.011.01-.017.017-.029.001-.002.002-.004.003-.006.007-.011.009-.016.016-.028.001-.002.003-.004.004-.007.007-.011.009-.015.015-.027.002-.003.003-.005.005-.008.007-.011.009-.015.015-.026.001-.002.003-.005.004-.007.005-.008.01-.017.015-.025.002-.003.004-.007.006-.01.003-.006.01-.018.014-.023.002-.004.004-.007.006-.011.003-.006.01-.017.013-.023.002-.004.004-.008.007-.012.003-.006.01-.017.013-.023.002-.003.004-.007.006-.01.003-.006.01-.017.013-.023.003-.004.005-.008.007-.013.003-.006.008-.014.012-.02.003-.005.006-.01.008-.015.003-.006.007-.013.011-.019.003-.005.006-.011.009-.016.003-.006.007-.012.01-.017.003-.006.006-.011.01-.017.003-.006.006-.011.01-.017.004-.006.007-.012.011-.019.003-.006.005-.008.008-.014.004-.007.008-.014.012-.02.003-.006.004-.007.007-.013.004-.007.008-.014.012-.021.003-.006.004-.006.007-.012.004-.007.008-.015.013-.022.003-.006.004-.006.007-.012.004-.008.009-.015.013-.023.002-.003.004-.007.006-.01.004-.008.009-.016.013-.024.002-.003.004-.007.006-.01.005-.008.01-.017.014-.025.002-.003.003-.006.005-.008.005-.008.01-.017.015-.026.002-.003.003-.005.005-.008.005-.009.01-.018.015-.027t.003-.006c.005-.01.011-.019.016-.028.002-.003.001-.002.003-.005.006-.01.011-.02.017-.029.002-.003,0-.001.002-.004.006-.01.011-.02.017-.029.002-.003.001-.002.003-.005.006-.01.011-.02.017-.03.002-.003,0,0,.002-.003.006-.01.012-.021.017-.031.002-.003,0,0,.002-.004.006-.01.012-.021.018-.031.002-.003,0,.001,0-.001.006-.011.012-.021.018-.032.002-.003,0,0,.002-.003.669-1.18,1.319-2.381,1.949-3.603.38-.736.091-1.64-.645-2.02-.22-.114-.455-.167-.686-.167h0Z"/>
  <path class="st1" d="M176.759,182.051c-.63,0-1.216.4-1.424,1.031-1.023,3.11-2.177,6.175-3.43,9.111-.325.762.029,1.642.79,1.967.192.082.392.121.588.121.581,0,1.134-.34,1.378-.907,1.016-2.38,1.962-4.823,2.839-7.337,0,0,0,0,0-.001.005-.013.009-.024.013-.038,0-.001,0-.002.001-.003.005-.013.007-.021.012-.034.001-.003.002-.006.003-.009.003-.01.007-.02.01-.03.001-.003.002-.006.003-.009.003-.01.007-.02.01-.03.001-.003.002-.007.004-.01.002-.007.008-.023.01-.029.001-.003.002-.006.003-.009.003-.01.006-.018.01-.028.001-.004.003-.009.004-.013.002-.007.007-.02.009-.026.001-.004.003-.008.004-.012.003-.01.006-.016.009-.026.002-.004.003-.009.005-.014.003-.01.006-.016.009-.026.001-.004.003-.008.004-.012.003-.01.005-.013.008-.023.002-.006.004-.011.006-.017.002-.007.003-.01.006-.017.002-.007.005-.015.008-.022v-.003c.008-.021.016-.043.023-.064.001-.003.002-.005.003-.009.008-.023.016-.047.024-.07l.002-.005c.004-.01.007-.02.011-.031.001-.003.001-.004.003-.007.003-.01.007-.019.01-.029.001-.003.002-.006.003-.01.003-.01.007-.02.01-.03.001-.003.001-.003.002-.007.004-.011.007-.021.011-.031l.002-.007c.003-.01.007-.02.01-.03.001-.003.002-.005.003-.008.003-.01.007-.02.01-.03.001-.003.002-.005.003-.008.004-.011.007-.021.011-.031.001-.003,0,0,.001-.003.131-.386.261-.775.39-1.164.259-.787-.169-1.634-.956-1.893-.156-.051-.313-.076-.469-.075h0Z"/>
  <path class="st1" d="M181.1,164.821c-.711,0-1.342.508-1.474,1.232-.585,3.234-1.29,6.444-2.093,9.542-.208.801.273,1.62,1.075,1.828.126.033.253.048.377.048.665,0,1.272-.446,1.449-1.119.47-1.81.904-3.648,1.304-5.517,0-.002,0-.004.001-.005.003-.015.005-.021.008-.036,0-.003.001-.006.002-.009.002-.011.004-.02.007-.031,0-.005.002-.009.003-.014.002-.007.005-.022.006-.029,0-.004.002-.007.002-.011.003-.015.005-.023.008-.037,0-.001,0-.003,0-.004.006-.029.012-.055.018-.084,0-.004.002-.008.003-.013.002-.011.004-.018.006-.029.001-.005.002-.01.003-.015.002-.007.004-.018.005-.025.001-.006.002-.012.004-.018.002-.007.004-.017.005-.025.001-.006.002-.011.004-.017.002-.007.003-.015.005-.023.001-.006.003-.013.004-.019.002-.007.004-.017.005-.024.001-.006.002-.011.004-.017.003-.015.005-.026.008-.04,0-.004.002-.009.003-.013.002-.011.003-.016.006-.026.002-.008.003-.016.005-.024,0-.004.003-.012.003-.016.002-.009.004-.017.005-.026,0-.004.002-.011.003-.015.002-.008.003-.017.005-.025.002-.007.002-.008.003-.015.002-.01.004-.019.006-.028,0-.004,0-.004.002-.008.002-.011.005-.022.007-.033v-.002c.014-.063.027-.127.04-.19h0c.003-.013.005-.026.008-.039h0c.222-1.078.432-2.165.631-3.262.147-.815-.393-1.595-1.208-1.742-.09-.016-.18-.024-.269-.024h0Z"/>
  <path class="st1" d="M183.183,147.144c-.788,0-1.449.615-1.495,1.412-.192,3.291-.49,6.575-.885,9.761-.102.822.482,1.57,1.303,1.672.063.008.125.012.186.012.744,0,1.388-.553,1.485-1.309.174-1.407.33-2.83.467-4.264,0-.001,0-.003,0-.004.003-.032.006-.058.008-.09,0-.001,0-.002,0-.004.001-.016.003-.03.004-.046,0-.001,0-.003,0-.004.003-.028.005-.055.008-.083,0-.006.001-.011.002-.017.002-.024.004-.048.007-.071,0-.006.001-.011.002-.017.001-.012.003-.028.004-.04,0-.008.002-.017.002-.025.001-.016.004-.041.005-.057,0-.011.002-.021.003-.032.001-.012.002-.022.003-.034.002-.017.003-.035.005-.052.001-.012.002-.02.003-.032.001-.013.002-.025.003-.038.001-.012.002-.026.003-.038.001-.015.003-.03.004-.045,0-.008.002-.019.002-.027.002-.019.003-.039.005-.058,0-.008.001-.014.002-.022.002-.017.003-.034.005-.052,0-.008,0-.008.001-.016.002-.021.004-.042.006-.064,0-.008,0-.011.002-.019.002-.022.004-.044.006-.067,0-.004,0-.003,0-.007.002-.022.004-.044.006-.066v-.009c.003-.024.005-.048.007-.071,0-.004,0-.004,0-.008.004-.05.009-.1.013-.15,0-.004,0,0,0-.003.123-1.43.228-2.873.313-4.33.048-.827-.583-1.536-1.409-1.584-.03-.002-.059-.003-.089-.003h0Z"/>
  <path class="st1" d="M183.263,129.319c-.024,0-.049,0-.073.002-.827.04-1.465.743-1.425,1.57.131,2.719.197,5.463.197,8.156,0,.557-.003,1.113-.008,1.667-.008.828.656,1.506,1.484,1.514.005,0,.01,0,.015,0,.82,0,1.489-.66,1.499-1.482,0-.025,0-.054,0-.079v-.014c0-.013,0-.02,0-.033,0-.007,0-.014,0-.021,0-.008,0-.019,0-.027,0-.009,0-.018,0-.027,0-.008,0-.014,0-.023,0-.011,0-.022,0-.033,0-.004,0-.011,0-.015,0-.013,0-.027,0-.04,0-.004,0-.007,0-.011,0-.015,0-.03,0-.045,0-.004,0-.002,0-.006,0-.016,0-.032,0-.049v-.004c.001-.194.003-.388.003-.582h0c0-.017,0-.034,0-.051,0-.004,0-.002,0-.006,0-.015,0-.031,0-.046,0-.004,0-.003,0-.008,0-.014,0-.028,0-.043,0-.004,0-.008,0-.013,0-.013,0-.026,0-.039,0-.008,0-.006,0-.015,0-.012,0-.024,0-.036,0-.004,0-.012,0-.016,0-.012,0-.024,0-.036,0-.004,0-.013,0-.017,0-.011,0-.022,0-.034,0-.004,0-.015,0-.019,0-.011,0-.023,0-.034,0-.004,0-.014,0-.018,0-.011,0-.022,0-.033,0-.008,0-.011,0-.02,0-.011,0-.022,0-.034,0-.008,0-.01,0-.019,0-.01,0-.021,0-.031,0-.008,0-.013,0-.021,0-.012,0-.024,0-.037v-.015c0-.017,0-.035,0-.052h0c0-.02,0-.039,0-.059v-.019c0-.014,0-.027,0-.041,0-.008,0-.012,0-.02,0-.015,0-.03,0-.045,0-.004,0-.01,0-.014,0-.02,0-.039,0-.058,0-.004,0-.01,0-.014,0-.015,0-.031,0-.046,0-.004,0-.013,0-.017,0-.015,0-.029,0-.044,0-.004,0-.013,0-.017,0-.039,0-.078,0-.118,0-.004,0-.015,0-.019,0-.014,0-.027,0-.041,0-.008,0-.011,0-.02,0-.015,0-.03,0-.045,0-.008,0-.007,0-.015,0-.02,0-.039,0-.059,0-.004,0-.008,0-.012,0-.016,0-.032,0-.047,0-.004,0-.014,0-.018,0-.015,0-.03,0-.045,0-.004,0-.011,0-.016,0-.019,0-.038,0-.057v-.002c0-.02,0-.04,0-.06,0-.004,0-.011,0-.015,0-.015,0-.03,0-.045,0-.008,0-.009,0-.018,0-.016,0-.033,0-.049v-.01c0-.02,0-.041,0-.061,0-.004,0-.002,0-.006,0-.018,0-.036,0-.055,0-.004,0-.009,0-.013,0-.016,0-.032,0-.048,0-.004,0-.009,0-.014,0-.041,0-.082,0-.123v-.008c0-.018,0-.037,0-.055v-.009c0-.019,0-.039,0-.058v-.003c0-.042,0-.084-.001-.126,0-.004,0-.003,0-.007,0-.019,0-.038,0-.057,0-.004,0-.001,0-.005,0-.042,0-.085-.001-.127h0c0-.021,0-.042,0-.062v-.006c0-.063-.002-.127-.002-.19,0-.004,0,.001,0-.003,0-.021,0-.041,0-.062v-.002c-.026-2.032-.089-4.064-.187-6.094-.039-.803-.701-1.427-1.496-1.427h0Z"/>
  <path class="st1" d="M181.511,111.572c-.074,0-.148.005-.223.017-.819.122-1.384.885-1.262,1.704.483,3.24.881,6.523,1.183,9.758.073.777.726,1.36,1.491,1.36.047,0,.094-.002.141-.007.823-.077,1.427-.804,1.354-1.626-.084-.897-.174-1.793-.271-2.688,0,0,0,0,0,0-.011-.1-.022-.198-.033-.299,0-.003,0-.005,0-.007-.003-.029-.006-.057-.01-.086,0-.004,0-.008-.001-.012-.002-.017-.003-.028-.005-.045,0-.003,0-.007-.001-.01-.003-.025-.006-.055-.009-.08,0-.006-.001-.012-.002-.018-.002-.017-.003-.026-.005-.043,0-.004,0-.008-.001-.012-.003-.025-.006-.053-.009-.078,0-.007-.002-.014-.002-.021-.001-.013-.003-.028-.005-.041-.002-.017-.004-.034-.006-.051-.001-.013-.003-.024-.004-.037-.001-.009-.002-.018-.003-.027-.002-.017-.004-.037-.006-.054-.001-.011-.003-.023-.004-.034-.001-.013-.003-.024-.004-.037-.001-.01-.002-.019-.003-.029-.002-.021-.004-.033-.006-.054-.001-.012-.003-.023-.004-.035,0-.008-.003-.024-.004-.033-.002-.013-.003-.026-.005-.039-.002-.017-.003-.024-.005-.04-.002-.014-.003-.028-.005-.042,0-.008-.002-.021-.003-.03-.002-.016-.004-.033-.006-.049-.001-.013-.002-.021-.004-.033-.002-.015-.003-.029-.005-.044,0-.008-.002-.017-.003-.026-.002-.02-.005-.04-.007-.061,0-.008-.002-.013-.002-.021-.002-.016-.004-.032-.006-.049,0-.008-.002-.013-.003-.021-.002-.021-.005-.041-.007-.062,0-.008-.002-.015-.003-.023-.002-.017-.004-.033-.006-.049,0-.008-.001-.011-.002-.019-.003-.022-.005-.043-.008-.065,0-.004-.002-.014-.002-.018-.002-.021-.005-.042-.007-.063,0-.004,0-.001,0-.006-.003-.023-.006-.046-.008-.069,0-.004-.001-.01-.002-.014-.006-.047-.011-.094-.017-.141,0-.004,0-.008-.001-.012-.003-.024-.006-.048-.009-.072,0-.004,0,.003,0-.001-.003-.024-.006-.047-.009-.071,0-.004,0-.006-.001-.01-.003-.024-.006-.048-.009-.073v-.003c-.003-.025-.006-.05-.009-.075h0c-.003-.027-.006-.052-.009-.078h0c-.193-1.577-.407-3.149-.641-4.717-.111-.744-.751-1.278-1.481-1.278h0Z"/>
  <path class="st1" d="M178.029,94.075c-.12,0-.242.015-.364.045-.803.201-1.292,1.014-1.091,1.818.791,3.168,1.506,6.398,2.126,9.601.139.717.766,1.215,1.47,1.215.094,0,.19-.009.286-.028.811-.157,1.342-.94,1.188-1.751-.097-.501-.195-.996-.296-1.496,0-.002,0-.004-.001-.006-.006-.029-.012-.058-.018-.087,0-.003-.001-.006-.002-.009-.003-.016-.005-.027-.009-.043,0-.005-.002-.01-.003-.014-.005-.025-.01-.051-.015-.076-.001-.006-.002-.011-.003-.017-.003-.016-.005-.025-.008-.041-.001-.006-.002-.012-.004-.017-.005-.025-.009-.045-.014-.069-.002-.008-.003-.017-.005-.025-.003-.012-.005-.024-.007-.036-.004-.018-.007-.035-.011-.053-.003-.012-.004-.019-.006-.031-.002-.011-.005-.023-.007-.034-.003-.012-.004-.018-.006-.03-.004-.018-.008-.037-.011-.055-.003-.012-.004-.018-.006-.03-.003-.014-.006-.028-.009-.042-.003-.012-.004-.017-.006-.03-.004-.017-.007-.035-.011-.052-.002-.008-.003-.016-.005-.025-.004-.02-.008-.041-.013-.061,0-.004-.002-.009-.003-.014-.004-.018-.007-.036-.011-.053-.002-.008-.003-.014-.005-.023-.004-.021-.009-.042-.013-.063,0-.004-.002-.01-.003-.014-.004-.019-.008-.039-.012-.058,0-.004-.002-.009-.003-.014-.005-.023-.009-.045-.014-.068l-.002-.011c-.005-.022-.009-.045-.014-.067v-.003c-.006-.024-.011-.048-.016-.072,0-.004,0-.005-.002-.009-.01-.048-.02-.097-.031-.145v-.006c-.479-2.269-.998-4.524-1.557-6.763-.17-.681-.781-1.136-1.453-1.136h0Z"/>
  <path class="st1" d="M172.874,76.998c-.167,0-.337.028-.503.087-.78.278-1.187,1.135-.91,1.915,1.09,3.063,2.114,6.208,3.042,9.347.193.652.79,1.074,1.437,1.074.141,0,.284-.02.426-.062.792-.234,1.245-1.065,1.014-1.857-.219-.74-.444-1.483-.671-2.218,0,0,0-.001,0-.002-.015-.047-.028-.092-.043-.139,0-.001,0-.003-.001-.004-.01-.031-.018-.057-.027-.088,0-.002,0-.003-.001-.005-.013-.043-.028-.089-.041-.132-.002-.005-.003-.01-.005-.015-.012-.039-.027-.086-.039-.126-.002-.007-.005-.015-.007-.022-.006-.02-.012-.039-.018-.058-.003-.009-.006-.019-.009-.028-.002-.008-.008-.026-.011-.034-.004-.011-.007-.023-.011-.034-.005-.016-.01-.031-.015-.046-.003-.011-.007-.022-.01-.033-.004-.012-.006-.019-.01-.031-.006-.018-.011-.035-.017-.053-.004-.012-.005-.016-.009-.028-.004-.013-.008-.025-.012-.038-.002-.008-.006-.019-.008-.027-.006-.018-.012-.037-.017-.055-.002-.008-.006-.019-.008-.027-.005-.015-.009-.029-.014-.044-.002-.008-.007-.022-.009-.03-.005-.016-.01-.032-.015-.048-.002-.008-.004-.014-.007-.022-.006-.02-.013-.04-.019-.06-.002-.008-.003-.01-.006-.018-.005-.016-.01-.032-.015-.049-.002-.008-.004-.012-.006-.02-.006-.02-.013-.04-.019-.06-.001-.004-.005-.014-.006-.018-.006-.019-.012-.039-.019-.059-.001-.004,0-.002-.002-.006-.007-.022-.014-.044-.021-.067-.003-.008-.001-.004-.004-.012-.007-.023-.014-.045-.022-.068-.001-.004,0,0-.001-.003-.007-.022-.014-.044-.021-.066-.001-.004-.002-.006-.003-.01-.007-.023-.015-.045-.022-.068l-.002-.007c-.007-.023-.015-.046-.022-.069v-.002c-.008-.024-.016-.047-.023-.071l-.002-.006c-.016-.048-.031-.096-.046-.144-.001-.004,0,.001,0-.003-.567-1.76-1.159-3.505-1.775-5.236-.218-.614-.796-.997-1.412-.997h0Z"/>
  <path class="st1" d="M166.053,60.524c-.216,0-.436.047-.644.146-.748.356-1.065,1.251-.709,1.998,1.39,2.918,2.722,5.942,3.961,8.986.237.582.797.934,1.389.934.188,0,.38-.036.565-.111.765-.311,1.134-1.183.826-1.948-.193-.474-.386-.944-.583-1.415,0-.002-.002-.004-.002-.006-.011-.026-.021-.05-.032-.076-.002-.004-.004-.008-.005-.013-.006-.015-.01-.025-.017-.04-.002-.004-.003-.007-.005-.011-.009-.022-.02-.047-.029-.069-.003-.007-.006-.014-.009-.021-.008-.019-.016-.038-.024-.057-.004-.008-.007-.017-.011-.025-.005-.011-.01-.023-.014-.035-.005-.011-.009-.022-.014-.033-.006-.015-.011-.027-.018-.042-.005-.011-.009-.022-.014-.033-.005-.011-.007-.018-.012-.029-.007-.017-.014-.034-.022-.051-.005-.011-.006-.015-.011-.026-.006-.014-.012-.028-.018-.042-.005-.011-.007-.017-.012-.028-.007-.016-.013-.032-.02-.048-.003-.007-.006-.014-.009-.021-.008-.019-.016-.039-.024-.058-.003-.007-.004-.009-.007-.017-.007-.017-.014-.033-.021-.05-.003-.007-.003-.008-.006-.015-.008-.02-.016-.039-.025-.059-.003-.007-.005-.012-.008-.019-.009-.02-.017-.04-.026-.06-.002-.004-.002-.004-.003-.008-.008-.02-.017-.039-.025-.059-.002-.004-.003-.008-.005-.012-.009-.021-.018-.043-.027-.064-.002-.004-.002-.005-.004-.009-.019-.046-.039-.091-.058-.136-.002-.004,0,0-.002-.004-.01-.023-.02-.047-.03-.07h0c-.02-.048-.041-.096-.061-.144h0c-.555-1.297-1.123-2.582-1.705-3.854v-.002c-.021-.045-.042-.09-.063-.136-.002-.004-.002-.005-.004-.008-.01-.022-.02-.044-.03-.066l-.002-.004c-.01-.022-.02-.044-.03-.066v-.003c-.011-.022-.021-.044-.032-.066l-.004-.008c-.01-.022-.02-.043-.03-.065-.002-.004-.001-.002-.003-.006-.009-.02-.018-.039-.027-.059-.002-.004-.003-.007-.005-.011-.009-.02-.019-.041-.028-.061-.002-.004-.005-.011-.007-.014-.009-.019-.018-.038-.027-.058l-.003-.006c-.009-.02-.018-.04-.027-.059-.002-.004-.007-.014-.008-.018-.009-.019-.018-.038-.026-.057-.003-.007-.004-.01-.008-.017-.007-.015-.014-.031-.022-.047-.003-.007-.005-.01-.008-.017-.008-.018-.017-.036-.025-.054-.003-.007-.008-.016-.011-.024-.007-.015-.014-.03-.021-.045-.005-.011-.009-.019-.014-.03-.006-.013-.012-.025-.018-.038-.003-.007-.008-.017-.011-.024-.008-.016-.015-.033-.023-.049-.005-.011-.009-.019-.014-.03-.005-.01-.009-.02-.014-.03-.007-.014-.016-.035-.023-.049-.004-.008-.007-.016-.011-.024-.005-.011-.012-.025-.017-.036-.002-.004-.004-.008-.006-.012-.01-.022-.021-.044-.031-.065-.003-.007-.006-.014-.01-.021-.01-.022-.02-.042-.03-.064-.002-.005-.004-.009-.006-.014-.007-.014-.012-.025-.018-.039-.001-.003-.003-.006-.004-.009-.01-.022-.024-.051-.034-.073-.002-.003-.003-.007-.005-.011-.02-.043-.037-.08-.058-.123,0-.002-.002-.004-.003-.006-.107-.226-.211-.447-.319-.673-.258-.537-.794-.852-1.353-.852h0Z"/>
  <path class="st1" d="M157.514,44.893c-.271,0-.546.074-.793.228-.702.438-.916,1.363-.478,2.066,1.699,2.722,3.352,5.575,4.913,8.479.271.504.788.79,1.322.79.24,0,.483-.058.708-.179.729-.392,1.003-1.301.611-2.03-.498-.927-1.003-1.845-1.516-2.755-.002-.003-.002-.004-.004-.007-.012-.021-.024-.042-.036-.064l-.002-.004c-.024-.043-.048-.085-.072-.128-.002-.003-.004-.007-.006-.01-.011-.019-.022-.038-.033-.058-.002-.003-.007-.012-.009-.015-.01-.018-.02-.036-.031-.054-.002-.003-.005-.009-.007-.012-.009-.017-.019-.033-.028-.049-.004-.007-.007-.012-.011-.019-.01-.017-.02-.035-.03-.052-.004-.007-.008-.014-.012-.02-.008-.015-.016-.029-.025-.044-.006-.01-.011-.019-.016-.029-.007-.012-.014-.024-.021-.036-.004-.007-.009-.016-.013-.023-.009-.016-.018-.032-.027-.048-.004-.007-.011-.02-.015-.027-.007-.013-.015-.026-.022-.039-.006-.01-.013-.024-.019-.034-.006-.01-.012-.02-.018-.031-.008-.013-.015-.027-.023-.04-.006-.01-.012-.021-.018-.031-.006-.01-.012-.021-.018-.031-.005-.01-.011-.019-.017-.029-.01-.017-.017-.03-.027-.046-.004-.007-.008-.014-.012-.02-.012-.02-.02-.036-.032-.056-.003-.006-.007-.012-.01-.018-.008-.013-.012-.022-.02-.035-.003-.005-.005-.009-.008-.014-.012-.02-.024-.041-.035-.061-.003-.005-.006-.011-.009-.016-.012-.02-.023-.04-.035-.06-.003-.005-.006-.01-.009-.015-.023-.04-.042-.072-.065-.113-.002-.003-.004-.006-.006-.01-.012-.02-.028-.048-.039-.068-.002-.003-.003-.006-.005-.008-.023-.04-.044-.077-.068-.117,0,0,0-.001,0-.002-.015-.027-.03-.052-.045-.078,0,0,0,0,0-.001-.286-.494-.574-.984-.865-1.472,0,0,0,0,0,0-.039-.066-.077-.129-.116-.195-.002-.003-.003-.005-.005-.008-.016-.026-.026-.043-.042-.07-.001-.002-.003-.004-.004-.006-.024-.04-.045-.076-.069-.115,0-.002-.002-.003-.003-.005-.014-.023-.028-.046-.041-.069-.002-.003-.004-.007-.006-.01-.024-.039-.043-.072-.067-.111-.002-.004-.005-.008-.007-.012-.012-.02-.025-.041-.036-.061-.003-.006-.007-.011-.01-.017-.01-.016-.022-.036-.032-.053-.004-.007-.009-.014-.013-.021-.008-.013-.011-.018-.019-.031-.007-.012-.014-.023-.021-.035-.008-.013-.013-.022-.021-.035-.006-.009-.011-.019-.017-.028-.008-.013-.015-.025-.023-.038-.007-.011-.014-.023-.021-.034-.004-.007-.011-.019-.015-.025-.009-.015-.019-.031-.028-.046-.006-.01-.009-.015-.015-.024-.007-.012-.015-.024-.022-.036-.006-.01-.01-.016-.016-.026-.009-.015-.017-.029-.026-.043-.004-.007-.009-.015-.013-.022-.01-.017-.02-.033-.03-.049-.004-.007-.008-.012-.012-.019-.01-.016-.019-.032-.029-.048-.004-.007-.003-.006-.007-.012-.01-.017-.021-.035-.032-.052-.002-.003-.007-.011-.009-.014-.011-.019-.022-.037-.034-.055-.002-.003-.005-.009-.007-.012-.012-.02-.024-.039-.036-.059h0c-.012-.021-.024-.041-.037-.061-.002-.003-.003-.005-.005-.008-.012-.02-.025-.041-.037-.061-.002-.003-.001-.002-.003-.005-.228-.373-.458-.745-.689-1.115-.284-.455-.773-.706-1.273-.706h0Z"/>
  <path class="st1" d="M147.146,30.451c-.337,0-.676.113-.955.345-.638.528-.727,1.473-.199,2.111,2.027,2.448,4.02,5.058,5.925,7.758.292.414.756.635,1.226.635.299,0,.6-.089.863-.274.677-.477.838-1.413.361-2.089-.357-.507-.718-1.01-1.08-1.509-.002-.003,0,0-.002-.003-.007-.009-.013-.018-.02-.027l-.006-.008c-.006-.008-.012-.017-.019-.026-.002-.003-.002-.003-.005-.006-.006-.009-.013-.018-.019-.027-.002-.003-.002-.003-.004-.006-.029-.04-.059-.081-.088-.121v-.002c-.008-.009-.014-.017-.02-.025-.002-.003-.004-.005-.006-.008-.005-.007-.01-.014-.016-.022-.002-.003-.007-.01-.009-.013-.005-.007-.01-.014-.015-.021-.004-.006-.005-.006-.009-.012-.005-.007-.01-.013-.015-.02-.002-.003-.008-.011-.01-.014-.005-.007-.01-.014-.015-.02-.002-.003-.007-.01-.009-.013-.005-.007-.01-.013-.015-.02-.004-.006-.005-.007-.01-.013-.009-.012-.018-.025-.027-.037-.004-.006-.007-.01-.011-.016-.003-.004-.006-.009-.009-.013-.007-.009-.009-.013-.016-.022-.003-.004-.006-.008-.009-.012-.007-.009-.011-.014-.017-.023-.003-.004-.005-.007-.008-.011-.004-.006-.011-.016-.016-.021-.004-.005-.007-.009-.01-.014-.004-.006-.011-.015-.015-.021-.003-.004-.006-.009-.01-.013-.004-.006-.011-.015-.015-.021-.003-.005-.007-.009-.01-.014-.007-.009-.01-.013-.016-.022-.003-.004-.006-.008-.009-.012-.007-.009-.011-.015-.018-.024-.003-.004-.006-.008-.009-.013-.009-.012-.015-.02-.023-.032-.001-.001-.002-.003-.003-.004-.009-.012-.013-.018-.022-.03-.002-.002-.004-.005-.005-.007-.007-.009-.013-.018-.02-.027-.002-.003-.004-.005-.006-.008-.004-.006-.015-.02-.019-.026-.002-.003-.004-.006-.007-.009-.007-.009-.014-.019-.021-.028-.001-.001-.002-.003-.003-.005-.009-.012-.014-.018-.022-.03-.001-.002-.003-.004-.004-.005-.035-.048-.068-.093-.104-.14,0,0-.001-.002-.002-.003-.009-.012-.015-.02-.024-.032,0-.001-.002-.002-.003-.004-.009-.012-.014-.019-.023-.031-.001-.002-.002-.003-.004-.005-.009-.012-.015-.021-.024-.033,0,0,0,0,0,0-.044-.059-.088-.118-.132-.177,0,0,0,0,0,0-.018-.024-.034-.046-.052-.07,0,0-.001-.002-.002-.002-.071-.095-.14-.187-.211-.281,0,0,0,0-.001-.001-.319-.424-.638-.844-.96-1.262,0,0,0,0,0,0-.018-.023-.035-.045-.053-.069,0,0,0-.001-.001-.002-.009-.012-.017-.022-.026-.034,0,0,0,0,0,0-.009-.012-.016-.021-.025-.032,0,0-.002-.002-.002-.003-.036-.046-.07-.091-.106-.137,0,0-.001-.002-.002-.003-.009-.012-.016-.02-.025-.032,0,0-.001-.002-.002-.002-.009-.012-.015-.019-.024-.03-.001-.002-.003-.004-.004-.005-.009-.012-.014-.018-.023-.029-.001-.001-.002-.003-.003-.004-.009-.012-.016-.02-.024-.032,0,0,0-.001-.001-.002-.036-.046-.071-.091-.107-.138,0,0-.001-.001-.002-.002-.009-.012-.015-.02-.024-.031,0-.001-.002-.003-.003-.004-.009-.012-.014-.018-.023-.029-.001-.002-.003-.004-.005-.006-.009-.012-.013-.017-.022-.028-.001-.002-.003-.003-.004-.005-.009-.012-.014-.017-.023-.029-.001-.002-.003-.004-.004-.005-.036-.046-.069-.088-.105-.134-.002-.003-.005-.006-.007-.009-.007-.009-.013-.016-.02-.025-.002-.003-.004-.006-.007-.009-.005-.006-.014-.018-.019-.024-.003-.004-.005-.007-.008-.01-.005-.006-.014-.018-.019-.024-.002-.003-.005-.006-.007-.009-.007-.009-.012-.015-.019-.024-.003-.003-.005-.006-.007-.01-.007-.009-.015-.018-.021-.027-.001-.002-.003-.004-.005-.006-.018-.023-.033-.043-.052-.065-.004-.004-.007-.009-.01-.013-.005-.006-.01-.013-.015-.019-.004-.005-.009-.011-.013-.016-.005-.006-.008-.011-.013-.016-.004-.005-.008-.01-.012-.015-.005-.006-.01-.012-.014-.018-.004-.005-.008-.01-.012-.016-.005-.006-.009-.011-.013-.017-.004-.005-.008-.01-.012-.015-.005-.006-.009-.012-.014-.018-.004-.005-.008-.011-.012-.016-.007-.009-.01-.013-.017-.021-.003-.003-.005-.007-.008-.01-.009-.011-.016-.02-.025-.032-.004-.005-.008-.01-.012-.015-.005-.006-.009-.012-.014-.017-.005-.006-.01-.012-.014-.018-.002-.003-.008-.01-.01-.013-.005-.006-.01-.012-.015-.019-.005-.006-.007-.009-.012-.015-.005-.006-.009-.011-.014-.017-.005-.006-.007-.009-.012-.015-.005-.006-.009-.012-.014-.018-.005-.006-.008-.01-.012-.016-.005-.006-.009-.011-.013-.017-.002-.003-.009-.012-.011-.014-.005-.006-.009-.012-.014-.018-.005-.006-.007-.009-.012-.015-.012-.015-.024-.03-.036-.046-.002-.003,0,.001-.001-.002-.006-.008-.013-.016-.019-.024l-.006-.007c-.006-.008-.012-.016-.019-.023-.002-.003-.004-.005-.007-.008-.006-.008-.013-.016-.019-.024-.002-.003-.003-.004-.005-.007-.006-.008-.013-.016-.019-.024-.002-.003-.004-.005-.007-.008-.006-.008-.013-.016-.019-.024-.002-.003-.003-.004-.005-.007-.006-.008-.013-.016-.019-.024l-.005-.006c-.047-.058-.093-.117-.14-.175l-.003-.004c-.007-.009-.014-.018-.021-.027l-.003-.004c-.007-.009-.014-.018-.021-.027-.002-.003,0,0-.003-.003-.387-.482-.776-.959-1.168-1.432-.296-.358-.724-.543-1.156-.543h0Z"/>
  <path class="st1" d="M134.794,17.747c-.42,0-.839.176-1.135.519-.541.626-.472,1.573.154,2.115,2.377,2.054,4.737,4.309,7.012,6.7.295.31.69.466,1.086.466.371,0,.743-.137,1.033-.413.6-.571.623-1.52.053-2.12-.009-.009-.018-.019-.027-.028h-.001c-.009-.01-.017-.019-.026-.028-.002-.003,0,0-.002-.002-.009-.009-.017-.018-.026-.027l-.002-.002c-.008-.009-.016-.017-.024-.026l-.004-.005c-.008-.008-.016-.017-.024-.025l-.003-.003c-.008-.009-.016-.017-.024-.025-.002-.003-.001-.001-.004-.004-.008-.008-.016-.017-.024-.026l-.002-.003c-.008-.009-.016-.017-.025-.026l-.004-.004c-.062-.065-.125-.13-.187-.195l-.002-.003c-.007-.007-.014-.014-.02-.021-.002-.003-.006-.007-.009-.009-.007-.007-.014-.015-.021-.022-.002-.003-.003-.004-.006-.006-.007-.008-.014-.015-.022-.023-.002-.003-.004-.004-.007-.007-.007-.007-.014-.014-.021-.021-.002-.003-.005-.005-.008-.008-.006-.007-.013-.013-.019-.02-.005-.005-.006-.006-.011-.011-.006-.006-.012-.012-.018-.018-.005-.005-.005-.005-.01-.01-.006-.006-.012-.012-.018-.018-.005-.005-.007-.008-.012-.013-.005-.005-.01-.011-.015-.016-.005-.005-.008-.009-.013-.014-.005-.005-.01-.01-.015-.015-.005-.005-.009-.01-.014-.015-.005-.005-.01-.01-.014-.015-.002-.003-.01-.01-.012-.013-.005-.005-.011-.011-.016-.016-.005-.005-.009-.009-.014-.014-.005-.005-.009-.01-.014-.015-.007-.008-.01-.01-.017-.018-.004-.004-.007-.007-.011-.011-.007-.008-.014-.015-.022-.022-.002-.002-.005-.005-.007-.007-.01-.01-.018-.019-.028-.029-.003-.003-.005-.005-.008-.008-.007-.008-.014-.015-.022-.022-.002-.002-.004-.004-.006-.006-.007-.008-.016-.016-.023-.024-.003-.003-.005-.005-.008-.008-.007-.008-.013-.014-.021-.021-.003-.003-.007-.007-.01-.01-.007-.008-.011-.011-.018-.019-.004-.004-.008-.008-.012-.012-.007-.008-.01-.011-.018-.018-.003-.003-.006-.006-.009-.01-.005-.005-.015-.015-.02-.02-.003-.003-.006-.006-.009-.009-.005-.005-.015-.015-.02-.02-.003-.003-.006-.006-.009-.009-.005-.005-.015-.015-.02-.02-.003-.003-.006-.006-.009-.009-.007-.008-.014-.014-.021-.022-.002-.002-.004-.004-.006-.006-.01-.01-.014-.014-.024-.024-.002-.002-.003-.003-.005-.005-.01-.01-.015-.015-.025-.025-.001-.001-.003-.003-.004-.004-.01-.01-.015-.016-.025-.026-.001-.001-.003-.003-.004-.004-1.97-2.006-3.986-3.903-6.05-5.686-.282-.242-.629-.36-.974-.36h0Z"/>
  <path class="st1" d="M120.334,7.661c-.533,0-1.049.285-1.32.787-.393.729-.122,1.638.607,2.032,2.734,1.477,5.471,3.196,8.133,5.111.265.191.571.282.874.282.466,0,.926-.217,1.218-.624.482-.671.331-1.605-.338-2.089-2.757-1.983-5.581-3.762-8.466-5.319-.226-.121-.469-.179-.708-.179h0Z"/>
  <path class="st1" d="M103.943,1.499c-.691,0-1.312.48-1.464,1.182-.175.809.339,1.607,1.148,1.782,3.028.655,6.081,1.59,9.075,2.779.181.072.369.106.553.106.596,0,1.161-.358,1.394-.947.305-.769-.07-1.64-.84-1.946l-.004-.002c-.009-.004-.018-.007-.027-.011-.003-.001-.006-.002-.008-.003-.011-.004-.021-.008-.032-.013h-.003c-.085-.035-.171-.068-.256-.102h0c-.012-.005-.024-.01-.036-.014h-.001c-.012-.005-.023-.01-.035-.014-.003-.001,0,0-.002,0-.011-.004-.022-.009-.033-.013-.003-.001-.002,0-.005-.002-.011-.004-.022-.008-.032-.013h-.004c-.011-.006-.022-.01-.033-.014h-.003c-.011-.005-.022-.01-.034-.014h-.003c-.011-.005-.023-.01-.034-.014-.003-.001,0,0-.003,0-.159-.061-.318-.122-.477-.182h0c-.012-.005-.024-.009-.036-.014h-.002c-.012-.005-.023-.009-.035-.014h-.002c-.012-.005-.023-.009-.034-.014h-.002c-.012-.005-.024-.01-.035-.014h0c-.172-.064-.343-.128-.515-.19h0c-.012-.005-.024-.009-.035-.013h-.003c-.011-.005-.023-.009-.034-.013h-.003c-.012-.005-.023-.009-.035-.013h-.002c-.012-.005-.024-.009-.036-.014h0c-.012-.005-.024-.009-.037-.013h0c-.123-.044-.246-.088-.369-.132h-.002c-.012-.005-.023-.009-.035-.013-.003-.001,0,0-.003,0-.011-.004-.022-.008-.033-.011-.003-.001-.004-.001-.006-.002-.01-.004-.02-.007-.03-.011l-.006-.002c-.01-.004-.02-.007-.031-.011l-.005-.002c-.011-.004-.021-.007-.032-.011-.003-.001-.001,0-.004-.001-.011-.004-.021-.007-.032-.011-.003-.001-.002,0-.005-.002-.011-.004-.023-.008-.034-.012h-.002c-.123-.044-.246-.086-.369-.128h-.003c-.011-.005-.022-.008-.033-.012-.003,0-.003-.001-.006-.002-.01-.003-.02-.007-.031-.01l-.006-.002c-.01-.003-.02-.007-.031-.01-.003,0-.004-.001-.007-.002-.01-.003-.02-.007-.03-.01l-.007-.002c-.01-.003-.019-.007-.029-.01-.003,0-.005-.002-.008-.003-.01-.003-.019-.007-.029-.01-.003,0-.004-.001-.007-.002-.01-.003-.02-.007-.03-.01-.003,0-.004-.001-.007-.002-.01-.004-.021-.007-.031-.01l-.005-.002c-.01-.003-.021-.007-.031-.01l-.006-.002c-.012-.004-.023-.008-.035-.012h0c-.062-.021-.123-.041-.185-.062-.003,0-.001,0-.004-.001-.011-.004-.021-.007-.032-.01-.003,0-.006-.002-.009-.003-.009-.003-.018-.006-.027-.009-.003,0-.009-.003-.012-.004-.008-.003-.017-.005-.025-.008-.003,0-.008-.003-.011-.004-.008-.003-.017-.006-.025-.008-.003,0-.009-.003-.012-.004-.008-.003-.016-.005-.025-.008-.003,0-.009-.003-.012-.004-.008-.003-.016-.005-.024-.008-.006-.002-.007-.002-.013-.004-.008-.003-.016-.005-.024-.008-.006-.002-.007-.002-.013-.004-.008-.003-.015-.005-.023-.008-.006-.002-.008-.002-.013-.004-.008-.003-.015-.005-.023-.008-.003,0-.011-.003-.014-.004-.007-.002-.015-.005-.022-.007-.003,0-.012-.004-.015-.005-.008-.003-.015-.005-.023-.008-.003,0-.01-.003-.013-.004-.008-.003-.016-.005-.024-.008-.006-.002-.007-.002-.012-.004-.009-.003-.018-.006-.026-.008-.003,0-.007-.002-.01-.003-.01-.003-.02-.006-.03-.01-.003,0-.003,0-.006-.002-.024-.008-.049-.016-.073-.023-.003,0-.007-.002-.01-.003-.009-.003-.018-.006-.026-.008-.006-.002-.009-.003-.015-.005-.007-.002-.014-.005-.021-.007-.006-.002-.012-.004-.018-.006-.006-.002-.012-.004-.018-.006-.006-.002-.011-.004-.017-.005-.006-.002-.013-.004-.019-.006-.006-.002-.012-.004-.018-.006-.006-.002-.012-.004-.018-.006-.006-.002-.012-.004-.018-.006-.006-.002-.012-.004-.018-.006-.006-.002-.012-.004-.018-.006-.006-.002-.012-.004-.018-.006-.006-.002-.012-.004-.018-.006-.006-.002-.012-.004-.018-.006-.006-.002-.013-.004-.019-.006-.005-.002-.011-.003-.017-.005-.006-.002-.014-.004-.02-.006-.005-.002-.01-.003-.016-.005-.006-.002-.015-.005-.021-.007-.005-.001-.009-.003-.014-.004-.009-.003-.013-.004-.022-.007-.005-.001-.009-.003-.014-.004-.009-.003-.013-.004-.022-.007-.005-.002-.01-.003-.015-.005-.009-.003-.012-.004-.021-.006-.005-.002-.01-.003-.015-.005-.009-.003-.013-.004-.022-.007-.003,0-.006-.002-.009-.003-.009-.003-.019-.006-.027-.008,0,0,0,0,0,0-.044-.014-.09-.028-.134-.041-.003,0-.005-.002-.008-.002-.009-.003-.016-.005-.024-.007-.004-.001-.008-.002-.012-.004-.009-.003-.014-.004-.022-.007-.005-.001-.009-.003-.014-.004-.009-.003-.014-.004-.023-.007-.004-.001-.009-.003-.013-.004-.009-.003-.014-.004-.023-.007-.004-.001-.009-.003-.013-.004-.006-.002-.016-.005-.022-.007-.005-.001-.009-.003-.014-.004-.006-.002-.016-.005-.022-.007-.005-.001-.009-.003-.014-.004-.006-.002-.017-.005-.023-.007-.004-.001-.008-.003-.012-.004-.006-.002-.018-.005-.024-.007-.004-.001-.008-.003-.012-.004-.006-.002-.017-.005-.023-.007-.004-.001-.009-.003-.013-.004-.009-.003-.013-.004-.022-.007-.005-.001-.01-.003-.015-.004-.009-.003-.013-.004-.022-.007-.004-.001-.008-.002-.012-.004-.009-.003-.016-.005-.025-.007-.003,0-.006-.002-.009-.003-.009-.003-.018-.005-.027-.008-.002,0-.004-.001-.006-.002-.056-.017-.111-.033-.167-.049-.001,0-.003,0-.004-.001-.009-.003-.019-.006-.028-.008-.003,0-.005-.002-.008-.002-.009-.003-.018-.005-.027-.008-.003,0-.006-.002-.009-.003-.009-.003-.018-.005-.027-.008-.003,0-.006-.002-.009-.003-.009-.003-.017-.005-.026-.007-.004-.001-.007-.002-.011-.003-.009-.003-.016-.005-.025-.007-.004-.001-.007-.002-.011-.003-.006-.002-.019-.005-.025-.007-.004-.001-.008-.002-.011-.003-.006-.002-.019-.006-.025-.007-.004-.001-.007-.002-.011-.003-.006-.002-.019-.005-.025-.007-.004-.001-.008-.002-.012-.003-.009-.003-.016-.005-.025-.007-.004-.001-.007-.002-.011-.003-.009-.003-.017-.005-.026-.007-.003,0-.006-.002-.009-.003-.009-.003-.019-.005-.028-.008-.002,0-.004-.001-.006-.002-.009-.003-.021-.006-.03-.008-.002,0-.004-.001-.005-.002-.083-.024-.159-.045-.241-.068,0,0-.002,0-.003,0-.009-.002-.021-.006-.03-.008-.002,0-.004-.001-.006-.002-.009-.002-.02-.006-.029-.008-.002,0-.005-.001-.007-.002-.009-.002-.019-.005-.028-.008-.003,0-.006-.002-.009-.002-.009-.002-.018-.005-.027-.008-.003,0-.006-.002-.009-.002-.009-.002-.018-.005-.027-.007-.003,0-.007-.002-.01-.003-.006-.002-.02-.006-.026-.007-.003,0-.007-.002-.01-.003-.006-.002-.02-.005-.026-.007-.004-.001-.007-.002-.011-.003-.009-.002-.017-.005-.026-.007-.003,0-.006-.002-.01-.003-.009-.002-.018-.005-.027-.007-.003,0-.006-.002-.009-.002-.009-.002-.019-.005-.028-.008-.002,0-.005-.001-.007-.002-.009-.002-.02-.005-.029-.008-.002,0-.004-.001-.006-.002-.009-.002-.021-.006-.03-.008,0,0-.002,0-.002,0-.071-.019-.138-.038-.209-.057,0,0-.002,0-.002,0-.009-.002-.022-.006-.03-.008-.002,0-.004-.001-.006-.002-.009-.002-.02-.005-.029-.008-.002,0-.005-.001-.007-.002-.009-.002-.018-.005-.027-.007-.004,0-.007-.002-.01-.003-.009-.002-.017-.004-.026-.007-.004,0-.007-.002-.011-.003-.009-.002-.016-.004-.025-.007-.004,0-.007-.002-.011-.003-.006-.002-.02-.005-.026-.007-.004,0-.007-.002-.01-.003-.006-.002-.019-.005-.025-.007-.004-.001-.008-.002-.011-.003-.009-.002-.017-.004-.025-.007-.004,0-.007-.002-.01-.003-.009-.002-.016-.004-.025-.007-.004-.001-.008-.002-.012-.003-.009-.002-.016-.004-.025-.007-.004,0-.007-.002-.01-.003-.009-.002-.017-.004-.026-.007-.004,0-.007-.002-.01-.003-.009-.002-.018-.005-.027-.007-.002,0-.004-.001-.006-.002-.009-.002-.021-.005-.03-.008-.002,0-.003,0-.005-.001-.044-.012-.085-.022-.13-.034-.003,0-.006-.001-.009-.002-.009-.002-.014-.004-.023-.006-.005-.001-.009-.002-.014-.004-.006-.002-.014-.004-.02-.005-.006-.002-.012-.003-.018-.005-.009-.002-.011-.003-.02-.005-.005-.001-.011-.003-.016-.004-.009-.002-.013-.003-.022-.006-.005-.001-.01-.003-.015-.004-.006-.002-.014-.004-.02-.005-.005-.001-.011-.003-.016-.004-.006-.002-.014-.004-.02-.005-.006-.002-.012-.003-.017-.004-.006-.002-.014-.003-.02-.005-.005-.001-.011-.003-.016-.004-.006-.001-.015-.004-.02-.005-.006-.001-.011-.003-.017-.004-.006-.001-.013-.003-.019-.005-.006-.001-.012-.003-.018-.004-.006-.001-.012-.003-.018-.005-.006-.002-.013-.003-.019-.005-.006-.001-.012-.003-.018-.005-.006-.001-.011-.003-.017-.004-.009-.002-.011-.003-.019-.005-.006-.002-.012-.003-.018-.005-.006-.001-.012-.003-.018-.005-.007-.002-.013-.003-.02-.005-.006-.001-.01-.003-.016-.004-.008-.002-.016-.004-.024-.006-.006-.001-.006-.002-.012-.003-.01-.002-.02-.005-.03-.007-.003,0-.004,0-.007-.002-.025-.006-.05-.012-.075-.018h-.002c-.012-.003-.023-.006-.035-.009-.003,0-.005-.001-.008-.002-.009-.002-.019-.005-.028-.007-.006-.001-.006-.002-.012-.003-.008-.002-.017-.004-.025-.006-.003,0-.008-.002-.011-.003-.009-.002-.017-.004-.026-.006-.003,0-.009-.002-.012-.003-.008-.002-.017-.004-.025-.006-.003,0-.009-.002-.012-.003-.008-.002-.017-.004-.025-.006-.003,0-.009-.002-.012-.003-.009-.002-.018-.004-.026-.006-.003,0-.006-.002-.009-.002-.009-.002-.019-.005-.028-.007-.003,0-.007-.002-.01-.002-.009-.002-.018-.004-.027-.007-.003,0-.007-.002-.01-.002-.009-.002-.018-.004-.027-.007-.003,0-.007-.002-.01-.002-.01-.002-.02-.005-.03-.007-.003,0-.003,0-.006-.001-.011-.003-.023-.005-.034-.008h-.003c-.377-.09-.755-.176-1.134-.258-.107-.023-.214-.034-.319-.034h0Z"/>
  <path class="st1" d="M92.48.261c-.013,0-.025,0-.038,0-.003,0-.009,0-.012,0-.009,0-.018,0-.026,0-.006,0-.009,0-.015,0-.008,0-.016,0-.023,0-.006,0-.01,0-.016,0-.007,0-.015,0-.022,0-.003,0-.014,0-.017,0-.007,0-.014,0-.021,0-.006,0-.011,0-.017,0-.007,0-.014,0-.021,0-.006,0-.011,0-.017,0-.007,0-.014,0-.021,0-.006,0-.011,0-.017,0-.007,0-.014,0-.021,0-.006,0-.012,0-.018,0-.007,0-.014,0-.021,0-.006,0-.011,0-.017,0-.007,0-.014,0-.021,0-.006,0-.011,0-.018,0-.007,0-.014,0-.021,0-.003,0-.014,0-.017,0-.007,0-.014,0-.022,0-.006,0-.011,0-.017,0-.007,0-.014,0-.022,0-.006,0-.01,0-.016,0-.008,0-.015,0-.022,0-.006,0-.01,0-.016,0-.009,0-.018,0-.027,0-.003,0-.007,0-.01,0-.011,0-.021,0-.032,0-.009,0-.013,0-.022,0-.007,0-.015,0-.022,0-.006,0-.011,0-.017,0-.007,0-.014,0-.021,0-.006,0-.011,0-.017,0-.007,0-.014,0-.021,0-.006,0-.012,0-.018,0-.007,0-.013,0-.02,0-.009,0-.01,0-.019,0-.007,0-.013,0-.019,0-.006,0-.013,0-.019,0-.006,0-.013,0-.019,0-.006,0-.013,0-.019,0-.007,0-.013,0-.02,0-.006,0-.012,0-.018,0-.006,0-.013,0-.019,0-.006,0-.014,0-.02,0-.006,0-.012,0-.018,0-.006,0-.013,0-.019,0-.006,0-.012,0-.018,0-.006,0-.013,0-.019,0-.007,0-.013,0-.019,0-.006,0-.013,0-.019,0-.006,0-.012,0-.018,0-.009,0-.011,0-.02,0-.006,0-.012,0-.018,0-.006,0-.014,0-.02,0-.006,0-.013,0-.019,0-.006,0-.013,0-.019,0-.006,0-.012,0-.018,0-.028,0-.057.001-.085.002-.003,0-.006,0-.009,0-.009,0-.014,0-.023,0-.005,0-.01,0-.015,0-.009,0-.013,0-.022,0-.005,0-.01,0-.016,0-.009,0-.013,0-.022,0-.005,0-.011,0-.016,0-.009,0-.013,0-.022,0-.005,0-.011,0-.016,0-.006,0-.015,0-.022,0-.005,0-.011,0-.016,0-.006,0-.016,0-.022,0-.005,0-.01,0-.015,0-.006,0-.017,0-.023,0-.005,0-.01,0-.014,0-.006,0-.018,0-.024,0-.004,0-.009,0-.014,0-.006,0-.018,0-.024,0-.005,0-.01,0-.014,0-.009,0-.014,0-.024,0-.004,0-.009,0-.014,0-.009,0-.015,0-.024,0-.004,0-.008,0-.012,0-.009,0-.017,0-.026,0-.003,0-.007,0-.01,0-.009,0-.018,0-.027,0-.003,0-.006,0-.009,0-.046.001-.092.003-.138.005,0,0-.001,0-.002,0-.009,0-.021,0-.03.001-.002,0-.005,0-.007,0-.009,0-.019,0-.028.001-.003,0-.006,0-.01,0-.009,0-.018,0-.027.001-.003,0-.007,0-.01,0-.009,0-.017,0-.026,0-.004,0-.008,0-.012,0-.009,0-.017,0-.026,0-.004,0-.007,0-.011,0-.009,0-.017,0-.026.001-.004,0-.007,0-.011,0-.006,0-.021,0-.027.001-.003,0-.007,0-.01,0-.009,0-.018,0-.027.001-.004,0-.007,0-.011,0-.009,0-.018,0-.027.001-.003,0-.006,0-.009,0-.009,0-.019,0-.029.001-.003,0-.005,0-.008,0-.009,0-.021,0-.03.001-.002,0-.004,0-.006,0-.012,0-.02,0-.032.001-.001,0-.003,0-.004,0-.086.004-.168.007-.253.012,0,0,0,0,0,0-.012,0-.021.001-.033.002-.002,0-.003,0-.005,0-.012,0-.02,0-.033.002-.001,0-.003,0-.004,0-.012,0-.02,0-.032.002-.002,0-.004,0-.005,0-.012,0-.02.001-.033.002-.001,0-.002,0-.004,0-.012,0-.021.001-.033.002-.001,0-.003,0-.004,0-.012,0-.021.001-.033.002,0,0-.002,0-.003,0-.012,0-.022.001-.034.002,0,0-.001,0-.002,0-.171.009-.341.019-.512.029,0,0,0,0-.001,0-2.206.137-4.392.405-6.559.801-.811.151-1.348.93-1.2,1.743.132.724.763,1.231,1.473,1.231.089,0,.18-.008.271-.025,3.115-.568,6.279-.856,9.403-.856h0c1.215,0,2.447.044,3.662.13.036.003.072.004.108.004.78,0,1.438-.603,1.494-1.393.058-.824-.561-1.54-1.384-1.601-1.032-.073-2.064-.117-3.103-.132,0,0,0,0-.001,0-.012,0-.023,0-.036,0,0,0,0,0,0,0-.037,0-.072,0-.109-.001-.002,0-.003,0-.005,0-.012,0-.018,0-.03,0-.002,0-.005,0-.007,0-.012,0-.019,0-.031,0-.001,0-.003,0-.004,0-.025,0-.047,0-.072,0,0,0-.002,0-.003,0-.012,0-.019,0-.031,0-.003,0-.005,0-.008,0-.006,0-.021,0-.027,0-.003,0-.006,0-.008,0-.009,0-.02,0-.029,0-.002,0-.004,0-.006,0-.012,0-.023,0-.035,0-.001,0-.002,0-.003,0-.012,0-.019,0-.031,0-.003,0-.007,0-.01,0-.006,0-.019,0-.025,0-.003,0-.007,0-.01,0-.006,0-.019,0-.025,0-.003,0-.007,0-.01,0-.009,0-.019,0-.028,0-.002,0-.004,0-.006,0-.012,0-.022,0-.034,0-.003,0-.007,0-.01,0-.009,0-.015,0-.025,0-.004,0-.008,0-.012,0-.006,0-.016,0-.023,0-.004,0-.008,0-.012,0-.006,0-.018,0-.024,0-.003,0-.007,0-.01,0-.012,0-.022,0-.034,0h0Z"/>
</svg>